<svg width="171" height="274" viewBox="0 0 171 274" fill="none" xmlns="http://www.w3.org/2000/svg">
<path d="M87.885 224.531L65.46 203.419C65.46 203.419 76.3399 189.723 85.0021 177.293C90.1649 169.884 103.609 161.776 103.186 160.627C101.897 157.067 60.4636 140.131 46.7703 121.525C35.1767 105.772 48.378 89.2368 48.378 89.2368L84.6279 96.3135L83.7548 106.942C85.2239 109.304 115.521 122.321 132.638 140.131C137.44 145.123 139.914 153.432 137.974 161.264C132.756 182.307 87.885 224.524 87.885 224.524V224.531Z" fill="#F7A9A0"/>
<path d="M75.3766 263.342C73.9214 262.352 45.0101 224.247 44.8369 222.101C44.8022 221.762 50.3184 217.586 56.77 212.829L74.1778 193.96L94.1772 218.417L75.4667 236.51C75.4667 236.51 79.881 255.504 79.8256 257.886C79.7701 260.254 76.8249 264.332 75.3766 263.335V263.342Z" fill="#F7A9A0"/>
<path d="M75.4736 236.518C75.4736 236.518 79.8879 255.511 79.8325 257.893C79.7701 260.261 76.8319 264.34 75.3835 263.343C73.9214 262.352 45.0171 224.255 44.8369 222.101C44.8369 221.741 50.3392 217.58 56.777 212.837L63.4989 205.552L82.7984 229.434L75.4736 236.518Z" fill="#37474F"/>
<path d="M80.8581 231.311L80.3592 231.795L61.1428 208.1L61.6209 207.588L80.8581 231.311Z" fill="#FFC727"/>
<path d="M79.3266 232.792L78.8277 233.277L59.6875 209.679L60.1657 209.167L79.3266 232.792Z" fill="#FFC727"/>
<path d="M75.5221 263.495C74.0738 262.505 44.6498 224.331 44.4627 222.191C44.3864 221.381 50.1798 217.019 57.0472 212.636L75.8409 236.719C75.8409 236.719 80.0057 255.698 79.9503 258.066C79.8948 260.427 76.9705 264.492 75.5221 263.502V263.495Z" fill="#01D38C"/>
<path d="M76.6309 261.798C71.9602 255.324 52.5082 229.648 47.4009 223.597C47.3593 223.548 47.3247 223.576 47.3593 223.624C51.8499 230.14 71.5028 255.663 76.527 261.874C76.6309 262.006 76.7279 261.93 76.6309 261.798Z" fill="#263238"/>
<path d="M79.4652 254.583C78.3841 253.032 76.5478 252.097 75.0232 251.958C73.561 251.82 71.8355 252.069 70.5465 253.115C70.5119 253.142 70.5604 253.219 70.602 253.191C73.367 251.668 77.2684 252.27 79.382 254.645C79.4236 254.693 79.4999 254.638 79.4583 254.583H79.4652Z" fill="#263238"/>
<path d="M76.721 239.19C74.8222 236.621 71.683 234.35 68.4052 234.35C68.2805 234.35 68.2805 234.53 68.3775 234.579C71.3088 235.977 73.8521 237.494 76.4438 239.474C76.624 239.613 76.8596 239.377 76.721 239.19Z" fill="#263238"/>
<path d="M77.4417 241.732C75.5429 239.163 72.4037 236.892 69.1259 236.892C69.0012 236.892 69.0012 237.072 69.0982 237.12C72.0295 238.519 74.5728 240.035 77.1645 242.016C77.3447 242.154 77.5803 241.919 77.4417 241.732Z" fill="#263238"/>
<path d="M78.1693 244.28C76.2706 241.711 73.1314 239.439 69.8536 239.439C69.7288 239.439 69.7288 239.619 69.8259 239.668C72.7572 241.067 75.3004 242.583 77.8922 244.563C78.0723 244.702 78.3079 244.467 78.1693 244.28Z" fill="#263238"/>
<path d="M78.897 246.821C76.9982 244.252 73.859 241.981 70.5812 241.981C70.4564 241.981 70.4564 242.161 70.5534 242.209C73.4848 243.608 76.028 245.125 78.6198 247.105C78.7999 247.243 79.0356 247.008 78.897 246.821Z" fill="#263238"/>
<path d="M54.6703 220.64C52.4943 217.794 48.0593 221.166 50.2421 224.019C52.4181 226.865 56.8532 223.493 54.6703 220.64Z" fill="#263238"/>
<path d="M85.6051 236.794C85.6951 234.689 83.4152 233.865 81.7105 233.907C79.5276 233.976 77.0814 234.613 75.0232 235.631C74.7252 235.769 74.4342 235.922 74.1639 236.074C74.0461 236.15 73.9214 236.219 73.8105 236.282C73.8105 236.296 73.8036 236.282 73.8036 236.282L73.7204 236.344C73.6234 236.406 73.5264 236.462 73.4363 236.517C73.3878 236.559 73.3947 236.621 73.4363 236.656C73.3393 236.773 73.3046 236.96 73.3878 237.099C73.4155 237.168 73.4779 237.23 73.568 237.265C74.2887 237.5 75.0301 237.771 75.7786 238.034C75.9033 238.089 76.028 238.124 76.1528 238.172C77.9684 238.809 79.8186 239.391 81.7243 239.405C83.3667 239.419 85.515 238.761 85.6051 236.78V236.794ZM77.8229 237.771C77.1922 237.584 76.5616 237.376 75.9449 237.182C75.4113 237.016 74.8846 236.857 74.351 236.697C74.2748 236.67 74.1986 236.656 74.1293 236.635C74.06 236.621 73.9907 236.593 73.9214 236.58C73.9837 236.559 74.0461 236.538 74.1154 236.51C74.1154 236.51 74.1223 236.51 74.1362 236.51C74.5589 236.372 74.9678 236.247 75.3836 236.102C76.5062 235.735 77.6219 235.389 78.7861 235.153C79.5761 234.987 80.3938 234.828 81.2046 234.772C82.4658 234.689 86.4921 235.582 83.9072 237.93C82.4936 239.225 79.3682 238.228 77.8229 237.764V237.771Z" fill="#263238"/>
<path d="M73.9976 236.968C74.0461 236.981 74.0946 236.961 74.1154 236.891C74.1293 236.801 74.1293 236.718 74.1223 236.642C74.1431 236.601 74.1431 236.559 74.1362 236.538C74.1362 236.524 74.1431 236.517 74.1362 236.517C74.1639 236.358 74.1639 236.227 74.1639 236.081C74.1986 235.548 74.1847 235.001 74.1362 234.475C73.9976 232.356 73.4501 230.154 72.5701 228.368C71.8147 226.83 70.0199 225.217 68.2043 226.269C68.1419 226.304 68.0795 226.353 68.0172 226.401C66.5203 227.447 66.9361 229.545 67.6845 230.936C68.4814 232.384 69.6249 233.616 70.8376 234.773C71.6761 235.569 72.5562 236.337 73.3739 237.12C73.3739 237.12 73.3785 237.124 73.3878 237.134C73.5957 237.335 73.8936 237.189 73.9976 236.974V236.968ZM70.9693 233.602C69.8258 232.453 67.4905 230.154 67.9686 228.291C68.1211 227.717 68.3151 227.343 68.5507 227.107C69.6872 225.923 71.5929 228.257 72.0226 229.219C72.3622 229.953 72.5978 230.756 72.8334 231.532C73.0066 232.127 73.1452 232.723 73.263 233.332C73.4709 234.316 73.6234 235.306 73.8036 236.296V236.31C73.8036 236.372 73.8313 236.434 73.8382 236.497C73.7966 236.448 73.7551 236.414 73.7135 236.365C73.6095 236.247 73.5056 236.13 73.3947 236.019C72.6047 235.202 71.7731 234.426 70.9762 233.609L70.9693 233.602Z" fill="#263238"/>
<path d="M84.628 96.3135C84.628 96.3135 75.5845 116.726 70.9693 121.816C70.9693 121.816 41.9264 184.121 30.5823 196.391C19.7371 208.121 -19.5342 236.122 -19.5342 236.122L-38.8061 213.743C-38.8061 213.743 -14.7111 187.375 6.7506 175.722C10.07 173.921 32.8275 117.44 32.8622 116.124C33.2225 102.455 48.385 89.2368 48.385 89.2368L84.6349 96.3135H84.628Z" fill="#F7A9A0"/>
<path d="M84.628 96.3135L48.3781 89.2368L40.1177 96.1057C40.1177 96.1057 24.6018 98.3146 21.6775 100.517C15.4545 105.197 14.7546 114.137 16.9305 117.086C19.7579 120.923 29.127 122.771 36.7637 128.034C46.4585 134.709 55.0099 144.451 61.9328 144.091C73.8313 143.468 82.8262 132.015 88.3285 128.872C93.8308 125.728 100.4 121.144 108.273 121.317C109.818 121.352 106.866 116.429 102.902 114.552C100.671 113.493 84.1706 106.589 84.1706 106.589L84.6349 96.3204L84.628 96.3135Z" fill="#01D38C"/>
<path d="M83.7617 106.341C83.1935 106.417 82.6321 106.569 82.0708 106.666C81.4679 106.77 80.8581 106.867 80.2552 106.971C79.0356 107.192 77.809 107.365 76.5824 107.511C74.2055 107.795 71.8147 107.899 69.417 107.878C64.573 107.829 59.7221 107.171 55.0445 105.932C52.3696 105.226 49.66 104.395 47.1376 103.252C47.0752 103.225 47.0198 103.315 47.0822 103.349C49.2928 104.457 51.5034 105.496 53.8457 106.306C56.1533 107.102 58.5372 107.705 60.9418 108.134C65.8065 109.006 70.7821 109.096 75.6885 108.48C77.0398 108.307 78.3772 108.092 79.7077 107.795C80.4007 107.642 81.0937 107.469 81.7728 107.261C82.452 107.054 83.1519 106.874 83.8033 106.59C83.928 106.534 83.9211 106.313 83.7617 106.334V106.341Z" fill="#263238"/>
<path d="M83.7409 102.836C78.0793 102.213 72.4037 101.715 66.7213 101.341C65.0997 101.237 63.4781 101.154 61.8566 101.05C61.7942 101.05 61.7942 101.161 61.8566 101.174C67.5182 101.929 73.1799 102.545 78.8693 102.822C80.4908 102.899 82.1194 102.94 83.7409 102.968C83.8102 102.968 83.8033 102.843 83.7409 102.836Z" fill="#263238"/>
<path d="M82.8885 100.517C80.6502 100.15 78.3634 99.9768 76.1043 99.7899C73.7966 99.6029 71.4821 99.4852 69.1744 99.3052C69.1051 99.3052 69.1051 99.409 69.1744 99.416C71.4613 99.6445 73.7412 99.9422 76.0211 100.164C78.2871 100.385 80.5809 100.621 82.8608 100.662C82.944 100.662 82.9648 100.524 82.8747 100.51L82.8885 100.517Z" fill="#263238"/>
<path d="M75.9864 115.965C73.1314 118.284 70.7544 121.075 68.6616 124.087C66.4025 127.335 64.282 130.672 62.1961 134.03C60.9626 136.018 59.7222 138.005 58.5579 140.034C58.5233 140.096 58.6203 140.179 58.6688 140.117C61.1289 136.876 63.4643 133.518 65.7372 130.146C67.8508 127.016 69.8744 123.81 72.1404 120.784C73.3739 119.129 74.649 117.544 76.1251 116.096C76.2151 116.013 76.0835 115.896 75.9934 115.965H75.9864Z" fill="#263238"/>
<path d="M82.5074 117.121C80.1998 118.34 77.9822 119.725 75.8756 121.255C74.85 122.003 73.859 122.792 72.8888 123.609C72.3968 124.025 71.9048 124.44 71.4405 124.883C70.9554 125.34 70.5119 125.853 70.0268 126.303C69.9852 126.344 70.0476 126.427 70.0961 126.386C71.094 125.597 72.1959 124.904 73.2215 124.149C74.2609 123.388 75.3073 122.64 76.3607 121.892C78.4604 120.389 80.5879 118.921 82.7292 117.481C82.9579 117.329 82.75 116.997 82.5074 117.121Z" fill="#263238"/>
<path d="M41.7601 94.7003C39.494 96.3622 37.2834 98.1002 35.0728 99.8312C33.964 100.704 32.8622 101.59 31.7603 102.469C31.2337 102.892 30.7001 103.314 30.1734 103.743C29.6537 104.166 29.0369 104.574 28.6142 105.101C28.5795 105.142 28.6142 105.232 28.6766 105.205C29.2933 104.962 29.8616 104.498 30.4021 104.117C30.9565 103.73 31.5039 103.342 32.0514 102.947C33.2156 102.109 34.3729 101.251 35.5024 100.371C37.7131 98.6333 39.8821 96.8399 41.9402 94.9219C42.058 94.818 41.8917 94.6103 41.767 94.7072L41.7601 94.7003Z" fill="#263238"/>
<path opacity="0.1" d="M105.126 115.979C95.1128 116.644 85.8407 123.949 78.301 129.911C72.6601 134.37 68.2043 137.894 64.5107 137.894C58.4887 137.894 51.9538 132.66 45.6408 127.605C42.7718 125.313 40.0692 123.152 37.6507 121.684C34.5808 119.829 32.0375 118.908 29.7992 118.098C26.5145 116.914 23.9158 115.972 22.218 112.766C20.0143 108.591 24.3939 102.421 28.4617 98.2318C30.1803 97.8371 32.0098 97.477 33.6937 97.1724C31.8366 98.6542 29.2309 101.209 27.2213 103.958C24.8166 107.247 23.888 109.989 24.6711 111.471C25.863 113.728 27.6995 114.393 30.7416 115.494C32.9869 116.304 35.7796 117.315 39.0851 119.316C41.663 120.874 44.435 123.097 47.3732 125.444C53.0418 129.98 59.4658 135.125 64.5107 135.125C67.241 135.125 71.7801 131.538 76.5824 127.736C83.4984 122.28 91.7865 115.723 101.093 113.749C101.939 114.116 102.576 114.393 102.902 114.552C103.692 114.926 104.447 115.425 105.126 115.979Z" fill="black"/>
<path d="M82.1854 61.8447C92.0743 76.5519 104.707 91.5569 109.926 90.6568C117.41 89.3688 131.339 79.7025 138.594 73.796C140.722 72.065 125.441 56.8522 123.161 58.7079C120.403 60.9445 108.72 71.0125 108.387 71.144C107.68 71.4279 91.901 58.1401 87.7016 55.4743C79.9956 50.5788 76.801 53.8471 82.1854 61.8447Z" fill="#F7A9A0"/>
<path opacity="0.1" d="M112.053 90.1233C111.298 90.3587 110.577 90.5457 109.919 90.6564C104.708 91.5566 92.0745 76.5447 82.1787 61.8374C78.2633 56.021 78.887 52.7042 82.5044 53.2236L112.053 90.1233Z" fill="black"/>
<path d="M134.922 76.0463C137.049 74.8899 150.077 68.6303 152.274 66.3453C154.471 64.0603 160.312 57.0182 158.732 55.1556C157.152 53.293 155.274 55.2179 155.274 55.2179C155.274 55.2179 157.513 51.5688 155.51 50.1285C153.909 48.9791 151.123 51.548 151.123 51.548C151.123 51.548 153.369 47.4211 151.193 46.244C149.211 45.1776 146.91 48.7021 146.91 48.7021C146.91 48.7021 148.435 45.0599 146.335 44.3952C143.806 43.5989 141.158 49.907 138.546 52.2474C137.95 52.7806 125.74 62.1769 125.74 62.1769L134.915 76.0394L134.922 76.0463Z" fill="#F7A9A0"/>
<path d="M146.834 48.5156C144.374 53.0372 143.223 54.8375 139.156 57.6696C139.079 57.7249 139.142 57.8565 139.232 57.808C143.466 55.3984 144.984 53.3626 147.07 48.6056C147.167 48.3771 146.952 48.3148 146.841 48.5225L146.834 48.5156Z" fill="#263238"/>
<path d="M151.075 51.5484C148.622 56.1807 146.792 57.9118 142.752 61.1939C142.697 61.2424 142.766 61.3393 142.828 61.2978C147.063 58.4173 149.398 56.5477 151.241 51.5899C151.324 51.3683 151.186 51.3337 151.075 51.5484Z" fill="#263238"/>
<path d="M155.073 55.3846C152.378 59.6984 150.507 61.8104 146.176 64.4901C146.072 64.5524 146.155 64.7047 146.266 64.6562C150.95 62.3574 153.293 59.74 155.191 55.4815C155.323 55.1907 155.24 55.1145 155.067 55.3846H155.073Z" fill="#263238"/>
<path d="M120.591 61.235C120.591 61.235 124.887 56.5888 126.821 54.5115C128.754 52.4342 133.397 45.8215 135.829 46.043C138.553 46.2923 136.405 53.3344 132.988 57.0596C132.988 57.0596 137.222 64.2055 134.111 67.9447C130.999 71.6838 120.598 61.235 120.598 61.235H120.591Z" fill="#F7A9A0"/>
<path d="M132.773 57.5655C134.52 60.2868 135.684 64.3929 134.305 67.308C134.263 67.3911 134.381 67.4604 134.43 67.3842C136.328 64.4552 135.032 59.6913 133.321 57.3578C132.995 56.9077 132.316 56.8661 132.766 57.5655H132.773Z" fill="#263238"/>
<path d="M116.668 63.6381C116.759 63.1534 120.896 59.4143 121.429 59.5874C121.963 59.7536 136.287 75.0078 136.425 76.0465C136.481 76.455 132.066 80.3534 131.304 80.3326C130.32 80.3119 116.377 65.2168 116.668 63.6381Z" fill="#FFC727"/>
<path d="M134.977 77.6389C134.811 77.7843 134.637 77.9436 134.457 78.1028L119.163 61.1244C119.336 60.9721 119.517 60.8197 119.69 60.6743L134.977 77.6389Z" fill="#EBEBEB"/>
<path d="M133.425 78.9687C133.238 79.1211 133.057 79.2665 132.877 79.405L117.652 62.5027C117.812 62.3503 117.978 62.1842 118.158 62.0249L133.425 78.9687Z" fill="#EBEBEB"/>
<path d="M79.3721 23.1586C78.9771 22.8055 78.5128 22.5216 78.0069 22.3416C75.7062 21.5383 73.2877 22.5077 71.3612 23.7472C69.31 25.0836 67.4182 26.9878 64.9789 27.5971C64.0295 27.8326 62.9831 27.8533 62.103 27.3894C61.1051 26.8701 60.6339 25.8453 60.3775 24.8066C60.1003 23.7126 60.0102 22.3554 59.0677 21.5799C58.2847 20.9359 57.162 20.929 56.2265 21.1852C53.8011 21.8499 52.4705 24.3981 50.5926 25.8868C48.5898 27.4794 46.1297 28.428 43.5726 28.6081C41.1888 28.7812 38.7703 28.1926 36.6913 27.0293C35.6796 26.4615 34.7233 25.7483 33.9125 24.9174C33.0047 23.9826 32.3186 22.8678 31.4593 21.8915C30.6555 20.9913 29.5744 20.1258 28.3062 20.1258C27.3291 20.1258 24.2384 22.0023 22.6307 26.1153C22.5129 26.4131 21.9932 26.1846 22.0001 25.8453C22.007 25.1875 22.0555 24.5366 22.1456 23.8926C22.8663 18.5055 26.1788 13.6931 30.995 11.1519C33.5729 9.79469 36.4349 9.12996 39.3316 9.13688C40.9393 9.14381 42.5678 9.28229 44.1617 9.01917C45.5823 8.78374 46.8504 8.14671 48.0008 7.29501C50.1837 5.6678 51.9508 3.54203 54.4109 2.29565C56.6146 1.18776 59.0954 0.709983 61.5486 0.786151C66.6905 0.952334 71.4513 3.46586 74.6598 7.44735C77.8198 11.3734 79.5939 23.3733 79.3652 23.1794L79.3721 23.1586Z" fill="#263238"/>
<path d="M79.2404 23.0474C78.3811 22.445 77.4386 21.9188 76.3853 21.7526C75.4359 21.6072 74.4657 21.7526 73.5649 22.078C71.5414 22.812 70.0099 24.2869 68.4437 25.6995C66.9746 27.0289 65.353 28.3515 63.3226 28.6077C62.4633 28.7115 61.5347 28.6423 60.7516 28.2615C59.8577 27.8322 59.2964 27.0497 58.9568 26.1357C58.34 24.4739 58.0906 22.175 56.1502 21.4825C54.2792 20.8109 52.415 22.3342 51.0568 23.4214C47.7443 26.0734 43.8429 30.0064 39.1444 28.7739C36.7675 28.1507 34.5777 26.5165 32.8106 24.8616C31.5355 23.6706 29.9347 22.1473 28.0359 22.4035C27.9666 22.4104 27.9943 22.5143 28.0636 22.5073C30.0733 22.2719 31.4107 24.0722 32.665 25.3463C34.1342 26.842 35.8874 28.1853 37.8208 29.0162C39.8166 29.8679 41.9372 29.8264 43.9537 29.0716C46.005 28.3099 47.7513 26.9874 49.4144 25.5956C50.2668 24.8824 51.1053 24.1484 51.9785 23.456C52.7615 22.8328 53.6208 22.2165 54.6187 21.988C55.679 21.7457 56.6214 22.1819 57.2036 23.0821C57.7787 23.9615 57.9728 25.0001 58.3054 25.9764C58.6034 26.8489 59.0261 27.6867 59.7607 28.2684C60.3497 28.7392 61.0704 29.0162 61.8119 29.127C63.5166 29.3901 65.2144 28.85 66.6212 27.9083C68.617 26.5719 70.1138 24.6193 72.1373 23.3175C73.1699 22.6528 74.3549 22.1265 75.6022 22.0988C76.912 22.0642 77.993 22.6666 79.1018 23.269C79.2542 23.3521 79.3721 23.1375 79.2335 23.0405L79.2404 23.0474Z" fill="#263238"/>
<path d="M74.7429 5.18966C71.5829 1.12508 66.1915 -0.585225 61.2021 0.17645C58.4024 0.598834 55.7968 1.77597 53.503 3.42396C51.3686 4.96116 49.3936 6.8238 46.9544 7.8763C44.2517 9.03958 41.3897 8.52026 38.5485 8.43024C36.2478 8.35408 33.9817 8.76954 31.8543 9.66277C27.7795 11.38 24.4324 14.7452 22.7901 18.8514C22.5822 19.3776 22.3951 19.9038 22.2426 20.4439C22.2218 20.5132 22.3258 20.5409 22.3465 20.4716C23.6147 16.2132 26.8856 12.7233 30.8425 10.7845C32.7898 9.82896 34.9172 9.25424 37.0863 9.1573C39.7681 9.03266 42.45 9.70432 45.1179 9.21962C47.6196 8.76954 49.7124 7.21849 51.6666 5.68129C53.7941 4.0056 55.9077 2.36454 58.5064 1.4713C63.3295 -0.183614 68.908 0.605758 72.7818 4.04022C77.106 7.86245 78.2494 13.762 78.6444 19.246C78.6999 19.98 78.7484 20.714 78.79 21.448C78.79 21.5311 78.9216 21.538 78.9216 21.448C78.7969 15.8462 78.3049 9.77356 74.7291 5.18274L74.7429 5.18966Z" fill="#263238"/>
<path d="M82.2549 22.1543C82.0955 21.3026 81.2362 20.3401 80.6541 20.3055C80.072 20.2709 76.3715 22.9229 76.2537 24.0446C76.1358 25.1664 78.1524 25.6926 78.1524 25.6926L82.2549 22.1543Z" fill="#FFC727"/>
<path d="M88.396 81.8586L85.2499 95.915L49 88.8383C49 88.8383 58.7156 62.6782 72.0625 54.3621C78.7359 50.2006 82.6235 51.8624 85.3954 56.8133C86.0953 58.0666 92.1866 69.3464 92.2282 75.5505C92.2421 78.2926 88.403 81.8586 88.403 81.8586H88.396Z" fill="#01D38C"/>
<path d="M73.885 79.7949C75.8115 80.2104 77.7449 80.7089 79.5952 81.4706C80.5169 81.8445 81.4108 82.2738 82.3117 82.7239C82.7552 82.9455 83.2056 83.1532 83.663 83.3609C84.1273 83.5687 84.6332 83.7695 85.1321 83.8387C85.1737 83.8387 85.1668 83.9287 85.1252 83.9218C84.6332 83.8941 84.1689 83.8664 83.6838 83.7626C83.2264 83.6587 82.776 83.4994 82.3394 83.3263C81.4039 82.9524 80.4822 82.53 79.5467 82.1492C77.6618 81.3737 75.7838 80.6051 73.8504 79.9957C73.7603 79.968 73.8019 79.7811 73.8919 79.8018L73.885 79.7949Z" fill="#263238"/>
<path d="M68.8678 81.4429C70.4894 81.3875 72.1318 81.4291 73.7464 81.6022C74.5572 81.6853 75.3541 81.8307 76.1511 81.9969C76.5322 82.08 76.9134 82.163 77.2945 82.26C77.7103 82.3638 78.1192 82.537 78.5349 82.627C78.5765 82.6339 78.5696 82.717 78.528 82.7101C78.133 82.6339 77.7172 82.6408 77.3222 82.5924C76.9203 82.5439 76.5183 82.4954 76.1164 82.4469C75.3126 82.35 74.5018 82.2669 73.6979 82.1561C72.0833 81.9415 70.4825 81.7545 68.8609 81.6091C68.7708 81.6022 68.7916 81.4498 68.8748 81.4498L68.8678 81.4429Z" fill="#263238"/>
<path d="M75.7269 54.1099C75.9071 54.8924 79.6215 60.0025 83.2112 59.8571C84.3823 59.8087 84.3892 53.4244 84.3892 53.4244L84.5001 52.9536L86.0177 46.3616L78.2841 41.3415L77.1684 40.6768C77.1684 40.6768 76.8704 42.5048 76.5308 44.7898C76.5169 44.8937 76.4962 45.0045 76.4823 45.1153C76.4615 45.2468 76.4338 45.3645 76.4199 45.4892C76.3645 45.8285 76.309 46.1747 76.2605 46.5278C76.2259 46.7909 76.1843 47.0471 76.1566 47.331C76.1219 47.608 76.0873 47.885 76.0526 48.1619C75.7477 50.9248 75.6715 53.7845 75.7408 54.1169L75.7269 54.1099Z" fill="#F7A9A0"/>
<path d="M86.0108 46.362L85.1238 50.2396C80.855 51.6661 77.0991 50.5374 75.8656 50.0735C75.9071 49.4503 75.9695 48.7994 76.0388 48.1554C76.0804 47.8785 76.1081 47.6084 76.1428 47.3314C76.1774 47.0475 76.2051 46.7913 76.2467 46.5282C76.2952 46.182 76.3507 45.8289 76.4061 45.4965C76.4269 45.3718 76.4477 45.2541 76.4754 45.1226C76.4962 45.0118 76.5031 44.901 76.5239 44.7971C76.8704 42.519 77.1614 40.6841 77.1614 40.6841L78.2841 41.3488L86.0247 46.369L86.0108 46.362Z" fill="#263238"/>
<path d="M68.1665 37.6162C68.8873 49.4706 76.0735 50.3777 78.6306 50.2185C80.9521 50.0731 88.8382 49.2906 89.351 37.4292C89.8569 25.5679 84.119 22.1542 78.79 22.2027C73.4609 22.2511 67.4459 25.7687 68.1735 37.6231L68.1665 37.6162Z" fill="#F7A9A0"/>
<path d="M70.0376 36.7365C70.3217 36.7573 70.592 36.7296 70.8761 36.7158C71.1949 36.7019 71.4513 36.7296 71.7215 36.5357C71.8671 36.4319 71.9086 36.1687 71.8186 36.0164C71.6107 35.6633 71.2157 35.5802 70.8345 35.5732C70.4118 35.5732 70.093 35.6771 69.7673 35.9333C69.4485 36.1895 69.6703 36.7019 70.0445 36.7227L70.0376 36.7365Z" fill="#263238"/>
<path d="M77.9098 34.4517C77.6604 34.5902 77.404 34.6733 77.1406 34.7772C76.8427 34.9018 76.6209 35.0265 76.2952 34.9642C76.122 34.9295 75.9764 34.708 75.9972 34.5348C76.0388 34.1263 76.3645 33.8909 76.7179 33.7247C77.0991 33.5516 77.4386 33.51 77.8406 33.6139C78.2356 33.7108 78.2494 34.2717 77.9168 34.4517H77.9098Z" fill="#263238"/>
<path d="M76.4752 37.4917C76.4752 37.4917 76.5445 37.5194 76.5514 37.554C76.6554 38.3711 76.9187 39.2851 77.7018 39.4374C77.7226 39.4374 77.7295 39.4859 77.7018 39.4859C76.7871 39.5067 76.4475 38.288 76.4821 37.4917H76.4752Z" fill="#263238"/>
<path d="M77.0644 36.5219C78.3534 36.2103 78.887 38.8139 77.6881 39.1047C76.51 39.3886 75.9764 36.7851 77.0644 36.5219Z" fill="#263238"/>
<path d="M77.6049 36.5567C77.8613 36.6606 78.1386 36.8753 78.4157 36.8406C78.7414 36.806 78.9216 36.4875 79.0741 36.1828C79.0879 36.1482 79.1156 36.169 79.1226 36.2036C79.2335 36.7022 79.1434 37.2492 78.6236 37.4361C78.1524 37.6023 77.7089 37.2353 77.4802 36.7576C77.4386 36.6675 77.4941 36.5152 77.5911 36.5567H77.6049Z" fill="#263238"/>
<path d="M71.9363 38.1212C71.9363 38.1212 71.8809 38.1697 71.8878 38.2043C72.068 39.0075 72.1373 39.9561 71.4582 40.3647C71.4374 40.3785 71.4443 40.4201 71.4721 40.4062C72.3383 40.1085 72.2343 38.8482 71.9363 38.1143V38.1212Z" fill="#263238"/>
<path d="M71.0493 37.4154C69.7257 37.5678 70.1277 40.1921 71.3473 40.0536C72.5531 39.9151 72.1512 37.2908 71.0493 37.4154Z" fill="#263238"/>
<path d="M70.5296 37.6718C70.3425 37.8449 70.1762 38.1288 69.9267 38.1773C69.6426 38.2396 69.3862 37.9903 69.1644 37.741C69.1436 37.7133 69.1228 37.741 69.1298 37.7756C69.1921 38.2811 69.4347 38.7797 69.9336 38.8004C70.3841 38.8212 70.6474 38.3434 70.689 37.8241C70.6959 37.7272 70.6058 37.5956 70.5296 37.6649V37.6718Z" fill="#263238"/>
<path d="M77.9029 43.938C77.7574 44.1735 77.6327 44.4781 77.3485 44.5751C77.0783 44.6651 76.7179 44.6235 76.4407 44.5889C76.413 44.5889 76.3922 44.6166 76.42 44.6374C76.7041 44.8936 77.1892 44.9767 77.5426 44.8174C77.8891 44.6651 77.9861 44.305 77.993 43.9519C77.993 43.9034 77.9306 43.9034 77.9099 43.938H77.9029Z" fill="#263238"/>
<path d="M76.9051 41.9163C76.5378 42.6641 75.921 43.1142 75.228 43.3357C74.9162 43.4396 74.5835 43.4881 74.2509 43.495C74.1885 43.495 74.1193 43.495 74.0638 43.495C74.0015 43.495 73.9529 43.495 73.8836 43.495C73.7866 43.495 73.7312 43.4188 73.7035 43.3357C73.7035 43.3011 73.7035 43.2734 73.7035 43.2457V43.1696C73.6134 42.5533 73.5649 41.6116 73.5649 41.6116C73.35 41.7501 72.2621 42.401 72.2482 42.0755C72.1027 39.3958 71.9364 36.4114 72.3522 33.7109C72.3591 33.6209 72.4977 33.6278 72.4977 33.7109C72.7402 36.2799 72.5323 38.8834 72.7402 41.4662C73.0936 41.2861 73.6619 40.9607 73.9807 40.9261C74.0708 40.9399 74.043 42.7541 74.1054 43.0242C74.1054 43.0242 74.1054 43.038 74.1123 43.0519C75.1657 43.0657 75.9072 42.6641 76.8357 41.8539C76.8912 41.7985 76.9605 41.8539 76.9189 41.9163H76.9051Z" fill="#263238"/>
<path d="M74.8469 43.183C74.8469 43.183 75.429 43.6954 76.0942 43.7855C76.3368 43.8201 76.5932 43.7993 76.8357 43.6747C77.3347 43.4254 77.2446 42.9338 77.0575 42.546C76.905 42.2206 76.6833 41.9644 76.6833 41.9644C76.6833 41.9644 76.0665 42.8507 74.8399 43.19L74.8469 43.183Z" fill="#263238"/>
<path d="M76.0942 43.7854C76.3368 43.82 76.5932 43.7992 76.8357 43.6746C77.3347 43.4253 77.2446 42.9337 77.0575 42.5459C76.5031 42.7259 76.0249 43.2245 76.0942 43.7854Z" fill="#FF9CBD"/>
<path d="M89.1986 36.8408C87.8888 37 83.8557 34.0572 82.6083 27.8184C82.6083 27.8184 84.119 33.344 84.6942 34.0849C85.2693 34.8327 82.435 32.423 81.3609 27.4098C81.3609 27.4098 78.9355 29.9372 76.6764 31.0451C74.4172 32.153 72.9481 32.3954 72.7472 32.2569C72.5462 32.1184 75.8517 30.3665 76.6001 29.0994C76.6001 29.0994 70.7999 33.2055 67.9171 33.9672C67.5844 34.0572 67.0855 28.5454 71.0632 24.7647C75.0409 20.9841 81.6035 21.4965 83.8695 22.999C83.8695 22.999 85.6158 23.3522 87.7502 25.8865C90.4667 29.1132 90.6192 36.6677 89.2055 36.8408H89.1986Z" fill="#263238"/>
<path d="M81.1046 26.7864C81.1046 26.641 81.3194 26.6064 81.3332 26.7587C81.555 29.1753 82.3519 31.1695 83.4884 33.3022C83.5023 33.3299 83.4538 33.3576 83.4399 33.3299C82.0955 31.2941 81.1184 29.2653 81.1046 26.7795V26.7864Z" fill="#263238"/>
<path d="M73.7173 32.4643C77.0437 31.4395 79.7671 29.8331 81.555 26.7656C81.5896 26.7033 81.6936 26.7379 81.6658 26.8141C80.3284 30.0547 77.0436 31.8827 73.752 32.589C73.6827 32.6028 73.648 32.4851 73.7173 32.4643Z" fill="#263238"/>
<path d="M86.7108 32.3886C88.166 33.3649 89.7044 34.632 90.6746 35.5737C90.6746 35.5737 91.1944 33.1572 90.6123 31.7238C90.6123 31.7238 86.3712 28.0332 81.1808 26.3159L86.7108 32.3886Z" fill="#01D38C"/>
<path d="M89.1085 34.1886C89.1085 34.1886 81.2986 25.3462 77.4802 23.816C73.6619 22.2926 65.7481 22.5211 61.4238 25.8656C58.049 28.476 67.7161 32.5545 67.7161 32.5545C67.7161 32.5545 68.0695 30.7472 69.1644 29.9717C71.2919 28.4622 75.8379 28.4553 78.5197 28.9607C81.8945 29.6047 89.1154 34.1817 89.1154 34.1817L89.1085 34.1886Z" fill="#FFC727"/>
<path opacity="0.2" d="M89.1085 34.1886C89.1085 34.1886 81.2986 25.3462 77.4802 23.816C73.6619 22.2926 65.7481 22.5211 61.4238 25.8656C58.049 28.476 67.7161 32.5545 67.7161 32.5545C67.7161 32.5545 68.0695 30.7472 69.1644 29.9717C71.2919 28.4622 75.8379 28.4553 78.5197 28.9607C81.8945 29.6047 89.1154 34.1817 89.1154 34.1817L89.1085 34.1886Z" fill="#008156"/>
<path d="M87.1127 38.35C87.1127 38.35 88.9352 34.2092 90.7647 34.7909C92.5942 35.3725 91.7279 41.0228 89.9331 42.1237C88.1383 43.2247 87.085 41.5906 87.085 41.5906L87.1127 38.35Z" fill="#F7A9A0"/>
<path d="M90.4806 36.4043C90.4806 36.4043 90.5291 36.4389 90.5014 36.4528C89.254 37.2698 88.7827 38.6755 88.5402 40.0742C88.8451 39.4925 89.3441 39.1048 90.1064 39.4579C90.1479 39.4787 90.1202 39.541 90.0856 39.541C89.5035 39.5341 89.1223 39.7072 88.8313 40.2265C88.6303 40.5935 88.5264 41.0297 88.4086 41.4314C88.367 41.5629 88.1383 41.5421 88.1521 41.3967C88.1521 41.3829 88.1521 41.376 88.1521 41.3621C87.7779 39.638 88.6442 36.9513 90.4667 36.4043H90.4806Z" fill="#263238"/>
<path d="M162.197 37.0487C154.609 31.0522 139.53 28.9472 129.184 41.9996C121.796 51.3266 121.27 58.0224 121.083 65.3345C120.972 70.0154 122.753 74.7585 122.406 76.1503C121 81.8837 115.546 91.6331 115.546 91.6331L119.738 94.9499C119.738 94.9499 127.985 87.4023 133.245 84.7226C134.527 84.0648 139.551 84.7088 144.083 83.5247C151.165 81.669 157.561 79.6194 164.948 70.2923C175.288 57.24 169.772 43.052 162.19 37.0556L162.197 37.0487ZM128.38 85.422C125.622 87.3539 119.759 92.5956 119.759 92.5956L117.833 91.0722C117.833 91.0722 121.595 84.1618 122.843 81.0389C123.39 79.6679 124.561 76.8497 124.561 76.8497C125.469 78.6915 127.742 80.5473 127.742 80.5473C127.742 80.5473 130.064 82.3337 132.066 82.7907C132.066 82.7907 129.592 84.5772 128.38 85.4289V85.422ZM129.447 78.3938C122.15 72.6189 120.272 57.0669 130.549 44.0976C140.826 31.1284 154.969 34.5559 160.631 39.0359C166.327 43.5437 172.876 56.4783 162.599 69.4476C152.322 82.4168 136.744 84.1618 129.454 78.3938H129.447Z" fill="#263238"/>
<path d="M140.285 36.4531L140.202 36.5639C140.251 36.5431 140.299 36.5154 140.348 36.5016L140.285 36.4531ZM167.755 58.1747C167.755 58.2163 167.748 58.2578 167.734 58.2994L167.804 58.2093L167.755 58.1678V58.1747Z" fill="#263238"/>
<path d="M119.836 94.9973L115.484 91.5552L114.12 93.2763L118.473 96.7184L119.836 94.9973Z" fill="#FFC727"/>
<path opacity="0.5" d="M119.836 94.9973L115.484 91.5552L114.12 93.2763L118.473 96.7184L119.836 94.9973Z" fill="white"/>
<path d="M118.938 97.0922L113.64 92.9023L97.3879 113.421L102.686 117.61L118.938 97.0922Z" fill="#FFC727"/>
<path opacity="0.3" d="M118.927 97.0968L118.664 97.4222L111.443 95.6704L111.866 95.1372L118.463 96.7298L118.927 97.0968Z" fill="white"/>
<path opacity="0.3" d="M115.823 101.016L108.595 99.2641L109.018 98.731L116.246 100.483L115.823 101.016Z" fill="white"/>
<path opacity="0.3" d="M112.975 104.61L105.747 102.858L106.177 102.325L113.397 104.077L112.975 104.61Z" fill="white"/>
<path opacity="0.3" d="M110.127 108.203L102.899 106.452L103.328 105.918L110.549 107.67L110.127 108.203Z" fill="white"/>
<path opacity="0.3" d="M107.278 111.804L100.051 110.045L100.48 109.512L107.708 111.264L107.278 111.804Z" fill="white"/>
<path opacity="0.3" d="M104.853 114.858L104.43 115.391L97.8331 113.798L97.3757 113.431L97.6321 113.106L104.853 114.858Z" fill="white"/>
<path d="M141.151 36.1969L123.993 57.8561C124.076 57.4615 124.166 57.0737 124.263 56.679L140.292 36.4461L140.354 36.4946C140.625 36.3838 140.895 36.2869 141.158 36.1899L141.151 36.1969Z" fill="#263238"/>
<path d="M148.393 35.0059L123.563 66.3523C123.529 66.103 123.508 65.8537 123.494 65.6044L147.728 35.0197C147.956 35.0197 148.178 35.0128 148.4 35.0128L148.393 35.0059Z" fill="#263238"/>
<path d="M154.048 35.8299L125.088 72.3903C125.012 72.2103 124.936 72.0233 124.866 71.8364L153.5 35.6914C153.687 35.733 153.868 35.7814 154.048 35.8368V35.8299Z" fill="#263238"/>
<path d="M158.788 37.7967L127.839 76.8638C127.721 76.7322 127.604 76.6006 127.5 76.4622L158.33 37.5405C158.49 37.6236 158.642 37.7067 158.788 37.7967Z" fill="#263238"/>
<path d="M162.613 40.9123L131.775 79.8408C131.616 79.7577 131.464 79.6815 131.311 79.5915L162.267 40.5176C162.384 40.6491 162.502 40.7738 162.62 40.9053L162.613 40.9123Z" fill="#263238"/>
<path d="M165.531 45.1846L136.883 81.3503C136.682 81.3226 136.488 81.2949 136.294 81.2603L165.267 44.686C165.357 44.8453 165.447 45.0115 165.531 45.1846Z" fill="#263238"/>
<path d="M167.512 50.6344L143.265 81.2399C143.016 81.2814 142.766 81.323 142.517 81.3437L167.367 49.9766C167.415 50.1912 167.464 50.4059 167.512 50.6275V50.6344Z" fill="#263238"/>
<path d="M167.804 58.2163L151.761 78.4631C151.401 78.65 151.047 78.8231 150.687 78.9893L167.873 57.2954C167.845 57.5862 167.804 57.884 167.755 58.1817L167.804 58.2233V58.2163Z" fill="#263238"/>
<path d="M164.817 43.9243L154.907 36.0859C155.448 36.259 155.974 36.4529 156.473 36.6607L163.902 42.5325C164.221 42.9687 164.526 43.4326 164.817 43.9173V43.9243Z" fill="#263238"/>
<path d="M167.852 52.6146L145.753 35.1376C146.002 35.1099 146.252 35.0822 146.501 35.0684L167.741 51.8668C167.783 52.116 167.817 52.3584 167.845 52.6146H167.852Z" fill="#263238"/>
<path d="M167.658 58.7629L139.793 36.7228C139.925 36.6674 140.063 36.612 140.195 36.5566L140.278 36.4458L167.797 58.2089L167.727 58.299C167.707 58.4513 167.679 58.6036 167.651 58.7629H167.658Z" fill="#263238"/>
<path d="M166.071 63.804L135.247 39.4235C135.386 39.3127 135.531 39.2088 135.677 39.105L166.286 63.3124C166.217 63.4786 166.147 63.6448 166.071 63.804Z" fill="#263238"/>
<path d="M163.59 68.1315L131.609 42.837C131.72 42.7054 131.838 42.5739 131.956 42.4492L163.888 67.7022C163.791 67.8476 163.687 67.9861 163.59 68.1315Z" fill="#263238"/>
<path d="M160.797 71.5593C160.68 71.6839 160.562 71.8155 160.437 71.9332L128.629 46.7702C128.719 46.6248 128.816 46.4794 128.913 46.334L160.797 71.5524V71.5593Z" fill="#263238"/>
<path d="M157.145 74.959C157.007 75.0698 156.868 75.1806 156.723 75.2913L126.204 51.1532C126.273 50.987 126.356 50.8277 126.426 50.6685L157.139 74.959H157.145Z" fill="#263238"/>
<path d="M152.863 77.8675C152.703 77.9575 152.537 78.0545 152.371 78.1445L124.423 56.042C124.471 55.862 124.527 55.682 124.575 55.502L152.856 77.8744L152.863 77.8675Z" fill="#263238"/>
<path d="M147.79 80.1453C147.589 80.2076 147.395 80.2769 147.194 80.3323L123.48 61.5812C123.487 61.3665 123.508 61.1657 123.529 60.958L147.79 80.1522V80.1453Z" fill="#263238"/>
<path d="M141.484 81.454C141.228 81.4748 140.971 81.4886 140.708 81.5025L123.834 68.1524C123.785 67.9031 123.744 67.6469 123.702 67.3838L141.484 81.4471V81.454Z" fill="#263238"/>
<path d="M130.916 79.3907C130.396 79.0861 129.911 78.7537 129.454 78.3936C128.997 78.0336 128.56 77.6319 128.144 77.2026L130.916 79.3907Z" fill="#263238"/>
<path d="M73.2392 65.6531C71.5899 68.0766 68.1111 69.7939 65.9074 69.3923C64.1126 69.0668 63.3988 67.0311 64.3066 64.5729C65.8589 60.3837 71.6037 54.4565 74.0015 54.775C76.7526 55.1489 75.9765 61.6024 73.2392 65.6462V65.6531Z" fill="#F7A9A0"/>
<path d="M69.4624 61.9484C66.0183 79.3284 64.2997 98.8619 68.6169 101.916C74.8122 106.299 91.4992 109.338 100.806 110.301C103.536 110.585 103.529 89.0363 100.612 88.7247C97.0777 88.3577 81.6935 87.1875 81.3678 87.049C80.6679 86.7444 78.9493 66.2068 77.8752 61.3459C75.9071 52.4413 71.3334 52.4828 69.4624 61.9414V61.9484Z" fill="#F7A9A0"/>
<path d="M128.047 89.4935C128.886 91.6054 127.056 93.0941 127.056 93.0941C127.056 93.0941 128.546 94.1328 128.886 95.8431C129.267 97.8026 126.356 99.2637 126.356 99.2637C126.356 99.2637 127.652 100.628 127.818 102.47C127.992 104.381 125.268 106.271 125.268 106.271C125.268 106.271 125.774 108.203 124.776 109.899C123.071 112.808 117.923 112.953 114.652 113.078C111.381 113.202 101.984 110.495 100.141 110.163L99.1567 89.1957C99.1567 89.1957 113.668 84.4595 117.535 84.8611C120.792 85.1935 127.112 87.1253 128.047 89.4935Z" fill="#F7A9A0"/>
<path d="M126.89 92.7619C123.515 91.5778 119.967 91.4532 116.433 91.1277C116.356 91.1208 116.343 91.2454 116.426 91.2524C119.939 91.5362 123.356 92.5126 126.855 92.935C126.952 92.9488 126.98 92.8034 126.89 92.7688V92.7619Z" fill="#263238"/>
<path d="M126.273 98.9931C125.504 98.7508 124.652 98.7577 123.848 98.7231C122.981 98.6884 122.122 98.6677 121.256 98.6607C119.523 98.6469 117.791 98.6677 116.059 98.7438C115.982 98.7438 115.968 98.8685 116.052 98.8685C117.777 98.8892 119.503 98.9308 121.228 99.0208C122.087 99.0693 122.954 99.1177 123.813 99.1801C124.617 99.2355 125.455 99.3601 126.252 99.2355C126.37 99.2147 126.391 99.0346 126.273 99V98.9931Z" fill="#263238"/>
<path d="M125.192 106.271C124.527 106.029 123.688 106.14 122.995 106.147C122.205 106.153 121.415 106.16 120.625 106.16C119.045 106.16 117.472 106.16 115.892 106.105C115.816 106.105 115.802 106.223 115.885 106.23C117.486 106.292 119.087 106.375 120.695 106.423C121.485 106.444 122.268 106.465 123.058 106.479C123.73 106.493 124.561 106.583 125.199 106.347C125.234 106.333 125.227 106.278 125.199 106.271H125.192Z" fill="#263238"/>
<path d="M68.3675 65.085C68.3813 65.3689 68.3952 65.6459 68.4021 65.9298C68.6447 64.5864 68.7763 64.3441 69.1228 63.0215C69.1298 62.9938 69.1783 63.0008 69.1713 63.0285C68.9981 64.5657 68.9565 65.0088 68.7001 66.5322C68.5754 67.2523 68.416 67.8547 68.2704 68.5679C68.1041 69.3781 68.0071 69.2396 68.0903 68.4571C68.1665 67.7786 68.1388 67.4185 68.2497 66.7468C68.2219 66.5391 68.1942 66.3383 68.1873 66.1306C68.1734 65.7913 68.1665 65.452 68.1804 65.1127C68.2012 64.4341 68.3259 64.4203 68.3605 65.0919L68.3675 65.085Z" fill="#263238"/>
<path d="M103.717 87.7834C106.599 86.814 109.538 86.0454 112.504 85.3529C114.021 85.0621 115.476 84.6674 117.043 84.6328C118.602 84.6951 120.092 85.1175 121.498 85.6922C120.043 85.3322 118.539 85.0136 117.043 85.0413C115.587 85.1591 114.09 85.5399 112.621 85.8653C110.009 86.4401 106.322 87.2987 103.723 87.7903L103.717 87.7834Z" fill="#263238"/>
</svg>
