<svg width="72" height="18" viewBox="0 0 72 18" fill="none" xmlns="http://www.w3.org/2000/svg">
<g clip-path="url(#clip0_1500_1304)">
<path d="M7.00969 0.025072L6.4987 0.0117003C6.36441 0.00501439 6.22519 0 6.08435 0C4.97066 0 3.94868 0.272449 3.01842 0.817346C2.08817 1.36224 1.3528 2.12109 0.8107 3.09388C0.270233 4.06667 0 5.23001 0 6.5839C0 7.93778 0.270233 9.05766 0.812338 10.0388C1.3528 11.02 1.93094 11.4462 2.8612 11.9744C3.79146 12.5042 4.81343 12.7683 5.92712 12.7683C7.04081 12.7683 8.29862 12.5343 9.0389 12.0579C9.23215 11.9343 9.39593 11.8156 9.54006 11.6919V17.415L13.1153 17.4183L13.2038 7.2926C13.2021 3.38639 10.8355 0.128703 7.00969 0.025072ZM6.28907 9.05599C4.7299 9.05599 3.46554 7.76562 3.46554 6.17439C3.46554 4.58315 4.7299 3.29278 6.28907 3.29278C7.84823 3.29278 9.1126 4.58315 9.1126 6.17439C9.1126 7.76562 7.84823 9.05599 6.28907 9.05599Z" fill="white"/>
<path d="M38.1866 9.9854C37.5495 10.776 36.5865 11.2808 35.5055 11.2808C34.0266 11.2808 32.7672 10.3381 32.2644 9.00927H32.3823H42.2253C42.3007 8.59474 42.3416 8.16852 42.3416 7.7306C42.3416 3.87787 39.2806 0.753906 35.5055 0.753906C31.7304 0.753906 28.6694 3.87787 28.6694 7.7306C28.6694 11.5833 31.7304 14.7073 35.5055 14.7073C38.5076 14.7073 41.056 12.7316 41.9747 9.98373H38.1866V9.9854ZM35.5055 4.18208C36.8649 4.18208 38.0392 4.98104 38.6124 6.14104H32.4003C32.9719 4.97937 34.1462 4.18208 35.5072 4.18208H35.5055Z" fill="white"/>
<path d="M23.9478 1.27148V8.65768C23.9478 9.99319 22.8882 11.0746 21.5796 11.0746H20.972C19.6634 11.0746 18.6038 9.99319 18.6038 8.65768V1.27148H14.9761V8.34512C14.9761 9.68396 15.2004 10.7855 15.6508 11.6479C16.1012 12.5121 16.7252 13.1456 17.5261 13.5501C18.327 13.9546 20.2202 14.2604 21.2258 14.2604C21.7941 14.2604 22.5754 14.2705 23.4696 14.0515C24.0101 13.9529 24.5178 13.7874 24.9878 13.5501C25.7887 13.1456 26.4143 12.5104 26.8631 11.6479C27.3135 10.7838 27.5378 9.68396 27.5378 8.34512V1.27148H23.9478Z" fill="white"/>
<path d="M53.1575 1.29688V8.658C53.1575 9.9935 52.0979 11.0749 50.7893 11.0749H50.0769C48.7683 11.0749 47.7086 9.9935 47.7086 8.658V1.29688H44.1235V8.37051C44.1235 9.70935 44.3479 10.8108 44.7983 11.6733C45.2487 12.5375 45.8727 13.171 46.6736 13.5755C47.4744 13.9799 49.3677 14.2858 50.3733 14.2858C50.9416 14.2858 51.7228 14.2959 52.6171 14.0769C53.1575 13.9783 53.6652 13.8128 54.1353 13.5755C54.9361 13.171 55.5618 12.5358 56.0105 11.6733C56.4609 10.8092 56.6853 9.70935 56.6853 8.37051V1.29688H53.1575Z" fill="white"/>
<path d="M58.7979 7.87463L58.8863 18.0004L62.4616 17.997V12.2739C62.6057 12.3976 62.7711 12.5163 62.9627 12.64C63.703 13.1147 65.0067 13.3503 66.0745 13.3503C67.1882 13.3503 68.2102 13.0863 69.1404 12.5564C70.0707 12.0282 70.6472 11.6003 71.1893 10.6208C71.7314 9.6397 72.0016 8.48806 72.0016 7.16593C72.0016 5.8438 71.7314 4.6487 71.1893 3.67591C70.6488 2.70312 69.9118 1.94427 68.9816 1.39938C68.0513 0.85448 67.0293 0.582031 65.9156 0.582031C65.7748 0.582031 65.6372 0.585374 65.5013 0.593731L64.9903 0.607103C61.1644 0.710734 58.7979 3.96842 58.7979 7.87463ZM62.8874 6.75642C62.8874 5.16519 64.1517 3.87482 65.7109 3.87482C67.2701 3.87482 68.5344 5.16519 68.5344 6.75642C68.5344 8.34765 67.2701 9.63803 65.7109 9.63803C64.1517 9.63803 62.8874 8.34765 62.8874 6.75642Z" fill="white"/>
<path d="M7.00969 0.025072L6.4987 0.0117003C6.36441 0.00501439 6.22519 0 6.08435 0C4.97066 0 3.94868 0.272449 3.01842 0.817346C2.08817 1.36224 1.3528 2.12109 0.8107 3.09388C0.270233 4.06667 0 5.23001 0 6.5839C0 7.93778 0.270233 9.05766 0.812338 10.0388C1.3528 11.02 1.93094 11.4462 2.8612 11.9744C3.79146 12.5042 4.81343 12.7683 5.92712 12.7683C7.04081 12.7683 8.29862 12.5343 9.0389 12.0579C9.23215 11.9343 9.39593 11.8156 9.54006 11.6919V17.415L13.1153 17.4183L13.2038 7.2926C13.2021 3.38639 10.8355 0.128703 7.00969 0.025072ZM6.28907 9.05599C4.7299 9.05599 3.46554 7.76562 3.46554 6.17439C3.46554 4.58315 4.7299 3.29278 6.28907 3.29278C7.84823 3.29278 9.1126 4.58315 9.1126 6.17439C9.1126 7.76562 7.84823 9.05599 6.28907 9.05599Z" fill="white"/>
<path d="M38.1866 9.9854C37.5495 10.776 36.5865 11.2808 35.5055 11.2808C34.0266 11.2808 32.7672 10.3381 32.2644 9.00927H32.3823H42.2253C42.3007 8.59474 42.3416 8.16852 42.3416 7.7306C42.3416 3.87787 39.2806 0.753906 35.5055 0.753906C31.7304 0.753906 28.6694 3.87787 28.6694 7.7306C28.6694 11.5833 31.7304 14.7073 35.5055 14.7073C38.5076 14.7073 41.056 12.7316 41.9747 9.98373H38.1866V9.9854ZM35.5055 4.18208C36.8649 4.18208 38.0392 4.98104 38.6124 6.14104H32.4003C32.9719 4.97937 34.1462 4.18208 35.5072 4.18208H35.5055Z" fill="white"/>
<path d="M23.9478 1.27148V8.65768C23.9478 9.99319 22.8882 11.0746 21.5796 11.0746H20.972C19.6634 11.0746 18.6038 9.99319 18.6038 8.65768V1.27148H14.9761V8.34512C14.9761 9.68396 15.2004 10.7855 15.6508 11.6479C16.1012 12.5121 16.7252 13.1456 17.5261 13.5501C18.327 13.9546 20.2202 14.2604 21.2258 14.2604C21.7941 14.2604 22.5754 14.2705 23.4696 14.0515C24.0101 13.9529 24.5178 13.7874 24.9878 13.5501C25.7887 13.1456 26.4143 12.5104 26.8631 11.6479C27.3135 10.7838 27.5378 9.68396 27.5378 8.34512V1.27148H23.9478Z" fill="white"/>
<path d="M53.1575 1.29688V8.658C53.1575 9.9935 52.0979 11.0749 50.7893 11.0749H50.0769C48.7683 11.0749 47.7086 9.9935 47.7086 8.658V1.29688H44.1235V8.37051C44.1235 9.70935 44.3479 10.8108 44.7983 11.6733C45.2487 12.5375 45.8727 13.171 46.6736 13.5755C47.4744 13.9799 49.3677 14.2858 50.3733 14.2858C50.9416 14.2858 51.7228 14.2959 52.6171 14.0769C53.1575 13.9783 53.6652 13.8128 54.1353 13.5755C54.9361 13.171 55.5618 12.5358 56.0105 11.6733C56.4609 10.8092 56.6853 9.70935 56.6853 8.37051V1.29688H53.1575Z" fill="white"/>
<path d="M58.7979 7.87463L58.8863 18.0004L62.4616 17.997V12.2739C62.6057 12.3976 62.7711 12.5163 62.9627 12.64C63.703 13.1147 65.0067 13.3503 66.0745 13.3503C67.1882 13.3503 68.2102 13.0863 69.1404 12.5564C70.0707 12.0282 70.6472 11.6003 71.1893 10.6208C71.7314 9.6397 72.0016 8.48806 72.0016 7.16593C72.0016 5.8438 71.7314 4.6487 71.1893 3.67591C70.6488 2.70312 69.9118 1.94427 68.9816 1.39938C68.0513 0.85448 67.0293 0.582031 65.9156 0.582031C65.7748 0.582031 65.6372 0.585374 65.5013 0.593731L64.9903 0.607103C61.1644 0.710734 58.7979 3.96842 58.7979 7.87463ZM62.8874 6.75642C62.8874 5.16519 64.1517 3.87482 65.7109 3.87482C67.2701 3.87482 68.5344 5.16519 68.5344 6.75642C68.5344 8.34765 67.2701 9.63803 65.7109 9.63803C64.1517 9.63803 62.8874 8.34765 62.8874 6.75642Z" fill="white"/>
</g>
<defs>
<clipPath id="clip0_1500_1304">
<rect width="72" height="18" fill="white"/>
</clipPath>
</defs>
</svg>
