<svg width="62" height="62" viewBox="0 0 62 62" fill="none" xmlns="http://www.w3.org/2000/svg">
<g filter="url(#filter0_d_1500_1550)">
<rect width="54" height="54" transform="translate(4)"/>
<circle cx="31" cy="27" r="27" fill="#FAFAFA"/>
<path d="M28.0837 45.7156C31.0498 42.761 32.9668 39.0389 34.664 35.2589C35.5318 33.3265 36.4228 31.3863 37.715 29.693C38.9454 28.0807 40.4767 26.7539 42.2008 25.6855C45.7031 23.5139 49.838 22.3336 53.8455 21.5159C54.1965 21.4465 54.5437 21.3809 54.8947 21.3153C53.3248 14.5923 49.0087 8.93389 43.1844 5.58203C42.0812 7.22132 40.8431 8.76417 39.4082 10.1257C37.2714 12.1585 34.7064 13.7939 31.8637 14.6309C28.6005 15.5875 25.1792 15.3136 21.8505 14.9472C17.6964 14.492 12.5703 13.8595 8.82496 16.0927C7.22039 19.3636 6.31396 23.0395 6.31396 26.9313C6.31396 37.2685 12.6898 46.1129 21.7194 49.7579C24.1147 48.9402 26.3171 47.4745 28.0837 45.7156Z" fill="#F56D50"/>
<path d="M13.0257 12.7673C15.9803 12.3623 18.904 12.6979 21.8508 13.0219C25.114 13.3806 28.4697 13.6892 31.6518 12.6825C35.8561 11.3479 39.0074 8.24674 41.4605 4.67888C38.2668 3.16688 34.699 2.31445 30.9305 2.31445C22.3561 2.31445 14.8115 6.70002 10.4028 13.3459C11.2591 13.0797 12.1385 12.8907 13.0257 12.7712V12.7673Z" fill="#F56D50"/>
<path d="M52.0561 23.9033C48.2953 24.8483 44.3572 26.1173 41.3448 28.6591C39.7942 29.9667 38.6371 31.5597 37.6959 33.3494C36.7008 35.2433 35.9216 37.2413 34.9651 39.1544C33.0982 42.8766 30.6643 46.3827 27.3202 48.9246C26.4292 49.6034 25.4726 50.1936 24.4736 50.6873C26.5333 51.2466 28.6933 51.5474 30.9305 51.5474C44.5231 51.5474 55.5468 40.5276 55.5468 26.9311C55.5468 25.666 55.4503 24.424 55.2652 23.209C54.1852 23.4057 53.1168 23.6371 52.0599 23.9033H52.0561Z" fill="#F56D50"/>
<circle cx="26.0066" cy="24.7063" r="1.5637" fill="#2F2F2F"/>
<circle cx="36.8479" cy="24.7063" r="1.5637" fill="#2F2F2F"/>
<path d="M29.2383 28.3564V27.8564H28.7385L28.7383 28.3563L29.2383 28.3564ZM33.8251 28.3564H34.3251V27.8564H33.8251V28.3564ZM32.8251 28.3564V27.8564H32.3251V28.3564H32.8251ZM30.2383 28.3564H30.7383V27.8564H30.2383V28.3564ZM28.7383 28.3563C28.7383 28.3566 28.7383 28.357 28.7383 28.3574H29.7383C29.7383 28.3571 29.7383 28.3569 29.7383 28.3566L28.7383 28.3563ZM28.7383 28.3574C28.7383 29.9735 29.9489 31.3593 31.5317 31.3593V30.3593C30.5813 30.3593 29.7383 29.5049 29.7383 28.3574H28.7383ZM31.5317 31.3593C33.1145 31.3593 34.3251 29.9735 34.3251 28.3574H33.3251C33.3251 29.5049 32.4821 30.3593 31.5317 30.3593V31.3593ZM34.3251 28.3574C34.3251 28.3574 34.3251 28.3574 34.3251 28.3574C34.3251 28.3574 34.3251 28.3574 34.3251 28.3574C34.3251 28.3574 34.3251 28.3574 34.3251 28.3574C34.3251 28.3574 34.3251 28.3574 34.3251 28.3574C34.3251 28.3574 34.3251 28.3574 34.3251 28.3574C34.3251 28.3574 34.3251 28.3574 34.3251 28.3574C34.3251 28.3574 34.3251 28.3574 34.3251 28.3574C34.3251 28.3574 34.3251 28.3574 34.3251 28.3574C34.3251 28.3574 34.3251 28.3574 34.3251 28.3574C34.3251 28.3574 34.3251 28.3574 34.3251 28.3574C34.3251 28.3574 34.3251 28.3574 34.3251 28.3574C34.3251 28.3574 34.3251 28.3574 34.3251 28.3574C34.3251 28.3574 34.3251 28.3574 34.3251 28.3574C34.3251 28.3574 34.3251 28.3574 34.3251 28.3574C34.3251 28.3574 34.3251 28.3574 34.3251 28.3574C34.3251 28.3574 34.3251 28.3574 34.3251 28.3574C34.3251 28.3574 34.3251 28.3574 34.3251 28.3574C34.3251 28.3574 34.3251 28.3574 34.3251 28.3574C34.3251 28.3574 34.3251 28.3574 34.3251 28.3574C34.3251 28.3574 34.3251 28.3574 34.3251 28.3574C34.3251 28.3574 34.3251 28.3574 34.3251 28.3574C34.3251 28.3574 34.3251 28.3574 34.3251 28.3574C34.3251 28.3574 34.3251 28.3574 34.3251 28.3574C34.3251 28.3573 34.3251 28.3573 34.3251 28.3573C34.3251 28.3573 34.3251 28.3573 34.3251 28.3573C34.3251 28.3573 34.3251 28.3573 34.3251 28.3573C34.3251 28.3573 34.3251 28.3573 34.3251 28.3573C34.3251 28.3573 34.3251 28.3573 34.3251 28.3573C34.3251 28.3573 34.3251 28.3573 34.3251 28.3573C34.3251 28.3573 34.3251 28.3573 34.3251 28.3573C34.3251 28.3573 34.3251 28.3573 34.3251 28.3573C34.3251 28.3573 34.3251 28.3573 34.3251 28.3573C34.3251 28.3573 34.3251 28.3573 34.3251 28.3573C34.3251 28.3573 34.3251 28.3573 34.3251 28.3573C34.3251 28.3573 34.3251 28.3573 34.3251 28.3573C34.3251 28.3573 34.3251 28.3573 34.3251 28.3573C34.3251 28.3573 34.3251 28.3573 34.3251 28.3573C34.3251 28.3573 34.3251 28.3573 34.3251 28.3573C34.3251 28.3573 34.3251 28.3573 34.3251 28.3573C34.3251 28.3573 34.3251 28.3573 34.3251 28.3573C34.3251 28.3573 34.3251 28.3573 34.3251 28.3573C34.3251 28.3573 34.3251 28.3573 34.3251 28.3573C34.3251 28.3573 34.3251 28.3573 34.3251 28.3573C34.3251 28.3573 34.3251 28.3573 34.3251 28.3573C34.3251 28.3573 34.3251 28.3573 34.3251 28.3573C34.3251 28.3573 34.3251 28.3573 34.3251 28.3573C34.3251 28.3573 34.3251 28.3573 34.3251 28.3573C34.3251 28.3573 34.3251 28.3573 34.3251 28.3573C34.3251 28.3573 34.3251 28.3573 34.3251 28.3573C34.3251 28.3573 34.3251 28.3573 34.3251 28.3573C34.3251 28.3573 34.3251 28.3573 34.3251 28.3573C34.3251 28.3573 34.3251 28.3573 34.3251 28.3573C34.3251 28.3573 34.3251 28.3573 34.3251 28.3573C34.3251 28.3573 34.3251 28.3573 34.3251 28.3573C34.3251 28.3573 34.3251 28.3573 34.3251 28.3573C34.3251 28.3573 34.3251 28.3573 34.3251 28.3573C34.3251 28.3573 34.3251 28.3573 34.3251 28.3573C34.3251 28.3573 34.3251 28.3573 34.3251 28.3573C34.3251 28.3573 34.3251 28.3573 34.3251 28.3573C34.3251 28.3573 34.3251 28.3573 34.3251 28.3573C34.3251 28.3573 34.3251 28.3573 34.3251 28.3573C34.3251 28.3573 34.3251 28.3573 34.3251 28.3573C34.3251 28.3573 34.3251 28.3573 34.3251 28.3573C34.3251 28.3573 34.3251 28.3573 34.3251 28.3573C34.3251 28.3573 34.3251 28.3573 34.3251 28.3573C34.3251 28.3573 34.3251 28.3573 34.3251 28.3573C34.3251 28.3573 34.3251 28.3573 34.3251 28.3573C34.3251 28.3573 34.3251 28.3573 34.3251 28.3573C34.3251 28.3573 34.3251 28.3573 34.3251 28.3573C34.3251 28.3573 34.3251 28.3573 34.3251 28.3573C34.3251 28.3573 34.3251 28.3573 34.3251 28.3573C34.3251 28.3573 34.3251 28.3573 34.3251 28.3573C34.3251 28.3573 34.3251 28.3573 34.3251 28.3573C34.3251 28.3573 34.3251 28.3573 34.3251 28.3573C34.3251 28.3573 34.3251 28.3573 34.3251 28.3573C34.3251 28.3573 34.3251 28.3573 34.3251 28.3573C34.3251 28.3573 34.3251 28.3572 34.3251 28.3572C34.3251 28.3572 34.3251 28.3572 34.3251 28.3572C34.3251 28.3572 34.3251 28.3572 34.3251 28.3572C34.3251 28.3572 34.3251 28.3572 34.3251 28.3572C34.3251 28.3572 34.3251 28.3572 34.3251 28.3572C34.3251 28.3572 34.3251 28.3572 34.3251 28.3572C34.3251 28.3572 34.3251 28.3572 34.3251 28.3572C34.3251 28.3572 34.3251 28.3572 34.3251 28.3572C34.3251 28.3572 34.3251 28.3572 34.3251 28.3572C34.3251 28.3572 34.3251 28.3572 34.3251 28.3572C34.3251 28.3572 34.3251 28.3572 34.3251 28.3572C34.3251 28.3572 34.3251 28.3572 34.3251 28.3572C34.3251 28.3572 34.3251 28.3572 34.3251 28.3572C34.3251 28.3572 34.3251 28.3572 34.3251 28.3572C34.3251 28.3572 34.3251 28.3572 34.3251 28.3572C34.3251 28.3572 34.3251 28.3572 34.3251 28.3572C34.3251 28.3572 34.3251 28.3572 34.3251 28.3572C34.3251 28.3572 34.3251 28.3572 34.3251 28.3572C34.3251 28.3572 34.3251 28.3572 34.3251 28.3572C34.3251 28.3572 34.3251 28.3572 34.3251 28.3572C34.3251 28.3572 34.3251 28.3572 34.3251 28.3572C34.3251 28.3572 34.3251 28.3572 34.3251 28.3572C34.3251 28.3572 34.3251 28.3572 34.3251 28.3572C34.3251 28.3572 34.3251 28.3572 34.3251 28.3572C34.3251 28.3572 34.3251 28.3572 34.3251 28.3572C34.3251 28.3572 34.3251 28.3572 34.3251 28.3572C34.3251 28.3572 34.3251 28.3572 34.3251 28.3572C34.3251 28.3572 34.3251 28.3572 34.3251 28.3572C34.3251 28.3572 34.3251 28.3572 34.3251 28.3572C34.3251 28.3572 34.3251 28.3572 34.3251 28.3572C34.3251 28.3572 34.3251 28.3572 34.3251 28.3572C34.3251 28.3572 34.3251 28.3572 34.3251 28.3572C34.3251 28.3572 34.3251 28.3572 34.3251 28.3572C34.3251 28.3572 34.3251 28.3572 34.3251 28.3572C34.3251 28.3572 34.3251 28.3572 34.3251 28.3572C34.3251 28.3572 34.3251 28.3572 34.3251 28.3572C34.3251 28.3572 34.3251 28.3572 34.3251 28.3572C34.3251 28.3572 34.3251 28.3572 34.3251 28.3572C34.3251 28.3572 34.3251 28.3572 34.3251 28.3572C34.3251 28.3572 34.3251 28.3572 34.3251 28.3572C34.3251 28.3572 34.3251 28.3572 34.3251 28.3572C34.3251 28.3572 34.3251 28.3572 34.3251 28.3572C34.3251 28.3572 34.3251 28.3572 34.3251 28.3572C34.3251 28.3572 34.3251 28.3572 34.3251 28.3572C34.3251 28.3572 34.3251 28.3572 34.3251 28.3572C34.3251 28.3572 34.3251 28.3572 34.3251 28.3572C34.3251 28.3572 34.3251 28.3572 34.3251 28.3572C34.3251 28.3572 34.3251 28.3572 34.3251 28.3572C34.3251 28.3572 34.3251 28.3572 34.3251 28.3572C34.3251 28.3572 34.3251 28.3572 34.3251 28.3572C34.3251 28.3572 34.3251 28.3572 34.3251 28.3572C34.3251 28.3572 34.3251 28.3572 34.3251 28.3572C34.3251 28.3572 34.3251 28.3572 34.3251 28.3572C34.3251 28.3572 34.3251 28.3572 34.3251 28.3571C34.3251 28.3571 34.3251 28.3571 34.3251 28.3571C34.3251 28.3571 34.3251 28.3571 34.3251 28.3571C34.3251 28.3571 34.3251 28.3571 34.3251 28.3571C34.3251 28.3571 34.3251 28.3571 34.3251 28.3571C34.3251 28.3571 34.3251 28.3571 34.3251 28.3571C34.3251 28.3571 34.3251 28.3571 34.3251 28.3571C34.3251 28.3571 34.3251 28.3571 34.3251 28.3571C34.3251 28.3571 34.3251 28.3571 34.3251 28.3571C34.3251 28.3571 34.3251 28.3571 34.3251 28.3571C34.3251 28.3571 34.3251 28.3571 34.3251 28.3571C34.3251 28.3571 34.3251 28.3571 34.3251 28.3571C34.3251 28.3571 34.3251 28.3571 34.3251 28.3571C34.3251 28.3571 34.3251 28.3571 34.3251 28.3571C34.3251 28.3571 34.3251 28.3571 34.3251 28.3571C34.3251 28.3571 34.3251 28.3571 34.3251 28.3571C34.3251 28.3571 34.3251 28.3571 34.3251 28.3571C34.3251 28.3571 34.3251 28.3571 34.3251 28.3571C34.3251 28.3571 34.3251 28.3571 34.3251 28.3571C34.3251 28.3571 34.3251 28.3571 34.3251 28.3571C34.3251 28.3571 34.3251 28.3571 34.3251 28.3571C34.3251 28.3571 34.3251 28.3571 34.3251 28.3571C34.3251 28.3571 34.3251 28.3571 34.3251 28.3571C34.3251 28.3571 34.3251 28.3571 34.3251 28.3571C34.3251 28.3571 34.3251 28.3571 34.3251 28.3571C34.3251 28.3571 34.3251 28.3571 34.3251 28.3571C34.3251 28.3571 34.3251 28.3571 34.3251 28.3571C34.3251 28.3571 34.3251 28.3571 34.3251 28.3571C34.3251 28.3571 34.3251 28.3571 34.3251 28.3571C34.3251 28.3571 34.3251 28.3571 34.3251 28.3571C34.3251 28.3571 34.3251 28.3571 34.3251 28.3571C34.3251 28.3571 34.3251 28.3571 34.3251 28.3571C34.3251 28.3571 34.3251 28.3571 34.3251 28.3571C34.3251 28.3571 34.3251 28.3571 34.3251 28.3571C34.3251 28.3571 34.3251 28.3571 34.3251 28.3571C34.3251 28.3571 34.3251 28.3571 34.3251 28.3571C34.3251 28.3571 34.3251 28.3571 34.3251 28.3571C34.3251 28.3571 34.3251 28.3571 34.3251 28.3571C34.3251 28.3571 34.3251 28.3571 34.3251 28.3571C34.3251 28.3571 34.3251 28.3571 34.3251 28.3571C34.3251 28.3571 34.3251 28.3571 34.3251 28.3571C34.3251 28.3571 34.3251 28.3571 34.3251 28.3571C34.3251 28.3571 34.3251 28.3571 34.3251 28.3571C34.3251 28.3571 34.3251 28.3571 34.3251 28.3571C34.3251 28.3571 34.3251 28.3571 34.3251 28.3571C34.3251 28.3571 34.3251 28.3571 34.3251 28.3571C34.3251 28.3571 34.3251 28.3571 34.3251 28.3571C34.3251 28.3571 34.3251 28.3571 34.3251 28.3571C34.3251 28.3571 34.3251 28.3571 34.3251 28.3571C34.3251 28.3571 34.3251 28.3571 34.3251 28.3571C34.3251 28.3571 34.3251 28.3571 34.3251 28.3571C34.3251 28.3571 34.3251 28.3571 34.3251 28.3571C34.3251 28.3571 34.3251 28.3571 34.3251 28.3571C34.3251 28.3571 34.3251 28.3571 34.3251 28.3571C34.3251 28.357 34.3251 28.357 34.3251 28.357C34.3251 28.357 34.3251 28.357 34.3251 28.357C34.3251 28.357 34.3251 28.357 34.3251 28.357C34.3251 28.357 34.3251 28.357 34.3251 28.357C34.3251 28.357 34.3251 28.357 34.3251 28.357C34.3251 28.357 34.3251 28.357 34.3251 28.357C34.3251 28.357 34.3251 28.357 34.3251 28.357C34.3251 28.357 34.3251 28.357 34.3251 28.357C34.3251 28.357 34.3251 28.357 34.3251 28.357C34.3251 28.357 34.3251 28.357 34.3251 28.357C34.3251 28.357 34.3251 28.357 34.3251 28.357C34.3251 28.357 34.3251 28.357 34.3251 28.357C34.3251 28.357 34.3251 28.357 34.3251 28.357C34.3251 28.357 34.3251 28.357 34.3251 28.357C34.3251 28.357 34.3251 28.357 34.3251 28.357C34.3251 28.357 34.3251 28.357 34.3251 28.357C34.3251 28.357 34.3251 28.357 34.3251 28.357C34.3251 28.357 34.3251 28.357 34.3251 28.357C34.3251 28.357 34.3251 28.357 34.3251 28.357C34.3251 28.357 34.3251 28.357 34.3251 28.357C34.3251 28.357 34.3251 28.357 34.3251 28.357C34.3251 28.357 34.3251 28.357 34.3251 28.357C34.3251 28.357 34.3251 28.357 34.3251 28.357C34.3251 28.357 34.3251 28.357 34.3251 28.357C34.3251 28.357 34.3251 28.357 34.3251 28.357C34.3251 28.357 34.3251 28.357 34.3251 28.357C34.3251 28.357 34.3251 28.357 34.3251 28.357C34.3251 28.357 34.3251 28.357 34.3251 28.357C34.3251 28.357 34.3251 28.357 34.3251 28.357C34.3251 28.357 34.3251 28.357 34.3251 28.357C34.3251 28.357 34.3251 28.357 34.3251 28.357C34.3251 28.357 34.3251 28.357 34.3251 28.357C34.3251 28.357 34.3251 28.357 34.3251 28.357C34.3251 28.357 34.3251 28.357 34.3251 28.357C34.3251 28.357 34.3251 28.357 34.3251 28.357C34.3251 28.357 34.3251 28.357 34.3251 28.357C34.3251 28.357 34.3251 28.357 34.3251 28.357C34.3251 28.357 34.3251 28.357 34.3251 28.357C34.3251 28.357 34.3251 28.357 34.3251 28.357C34.3251 28.357 34.3251 28.357 34.3251 28.357C34.3251 28.357 34.3251 28.357 34.3251 28.357C34.3251 28.357 34.3251 28.357 34.3251 28.357C34.3251 28.357 34.3251 28.357 34.3251 28.357C34.3251 28.357 34.3251 28.357 34.3251 28.357C34.3251 28.357 34.3251 28.357 34.3251 28.357C34.3251 28.357 34.3251 28.357 34.3251 28.357C34.3251 28.357 34.3251 28.357 34.3251 28.357C34.3251 28.357 34.3251 28.357 34.3251 28.357C34.3251 28.357 34.3251 28.357 34.3251 28.357C34.3251 28.357 34.3251 28.357 34.3251 28.357C34.3251 28.357 34.3251 28.357 34.3251 28.357C34.3251 28.357 34.3251 28.357 34.3251 28.357C34.3251 28.357 34.3251 28.357 34.3251 28.357C34.3251 28.357 34.3251 28.3569 34.3251 28.3569C34.3251 28.3569 34.3251 28.3569 34.3251 28.3569C34.3251 28.3569 34.3251 28.3569 34.3251 28.3569C34.3251 28.3569 34.3251 28.3569 34.3251 28.3569C34.3251 28.3569 34.3251 28.3569 34.3251 28.3569C34.3251 28.3569 34.3251 28.3569 34.3251 28.3569C34.3251 28.3569 34.3251 28.3569 34.3251 28.3569C34.3251 28.3569 34.3251 28.3569 34.3251 28.3569C34.3251 28.3569 34.3251 28.3569 34.3251 28.3569C34.3251 28.3569 34.3251 28.3569 34.3251 28.3569C34.3251 28.3569 34.3251 28.3569 34.3251 28.3569C34.3251 28.3569 34.3251 28.3569 34.3251 28.3569C34.3251 28.3569 34.3251 28.3569 34.3251 28.3569C34.3251 28.3569 34.3251 28.3569 34.3251 28.3569C34.3251 28.3569 34.3251 28.3569 34.3251 28.3569C34.3251 28.3569 34.3251 28.3569 34.3251 28.3569C34.3251 28.3569 34.3251 28.3569 34.3251 28.3569C34.3251 28.3569 34.3251 28.3569 34.3251 28.3569C34.3251 28.3569 34.3251 28.3569 34.3251 28.3569C34.3251 28.3569 34.3251 28.3569 34.3251 28.3569C34.3251 28.3569 34.3251 28.3569 34.3251 28.3569C34.3251 28.3569 34.3251 28.3569 34.3251 28.3569C34.3251 28.3569 34.3251 28.3569 34.3251 28.3569C34.3251 28.3569 34.3251 28.3569 34.3251 28.3569C34.3251 28.3569 34.3251 28.3569 34.3251 28.3569C34.3251 28.3569 34.3251 28.3569 34.3251 28.3569C34.3251 28.3569 34.3251 28.3569 34.3251 28.3569C34.3251 28.3569 34.3251 28.3569 34.3251 28.3569C34.3251 28.3569 34.3251 28.3569 34.3251 28.3569C34.3251 28.3569 34.3251 28.3569 34.3251 28.3569C34.3251 28.3569 34.3251 28.3569 34.3251 28.3569C34.3251 28.3569 34.3251 28.3569 34.3251 28.3569C34.3251 28.3569 34.3251 28.3569 34.3251 28.3569C34.3251 28.3569 34.3251 28.3569 34.3251 28.3569C34.3251 28.3569 34.3251 28.3569 34.3251 28.3569C34.3251 28.3569 34.3251 28.3569 34.3251 28.3569C34.3251 28.3569 34.3251 28.3569 34.3251 28.3569C34.3251 28.3569 34.3251 28.3569 34.3251 28.3569C34.3251 28.3569 34.3251 28.3569 34.3251 28.3569C34.3251 28.3569 34.3251 28.3569 34.3251 28.3569C34.3251 28.3569 34.3251 28.3569 34.3251 28.3569C34.3251 28.3569 34.3251 28.3569 34.3251 28.3569C34.3251 28.3569 34.3251 28.3569 34.3251 28.3569C34.3251 28.3569 34.3251 28.3569 34.3251 28.3569C34.3251 28.3569 34.3251 28.3569 34.3251 28.3569C34.3251 28.3569 34.3251 28.3569 34.3251 28.3569C34.3251 28.3569 34.3251 28.3569 34.3251 28.3569C34.3251 28.3569 34.3251 28.3569 34.3251 28.3569C34.3251 28.3569 34.3251 28.3569 34.3251 28.3569C34.3251 28.3569 34.3251 28.3569 34.3251 28.3569C34.3251 28.3569 34.3251 28.3569 34.3251 28.3569C34.3251 28.3569 34.3251 28.3569 34.3251 28.3569C34.3251 28.3569 34.3251 28.3569 34.3251 28.3569C34.3251 28.3569 34.3251 28.3569 34.3251 28.3568C34.3251 28.3568 34.3251 28.3568 34.3251 28.3568C34.3251 28.3568 34.3251 28.3568 34.3251 28.3568C34.3251 28.3568 34.3251 28.3568 34.3251 28.3568C34.3251 28.3568 34.3251 28.3568 34.3251 28.3568C34.3251 28.3568 34.3251 28.3568 34.3251 28.3568C34.3251 28.3568 34.3251 28.3568 34.3251 28.3568C34.3251 28.3568 34.3251 28.3568 34.3251 28.3568C34.3251 28.3568 34.3251 28.3568 34.3251 28.3568C34.3251 28.3568 34.3251 28.3568 34.3251 28.3568C34.3251 28.3568 34.3251 28.3568 34.3251 28.3568C34.3251 28.3568 34.3251 28.3568 34.3251 28.3568C34.3251 28.3568 34.3251 28.3568 34.3251 28.3568C34.3251 28.3568 34.3251 28.3568 34.3251 28.3568C34.3251 28.3568 34.3251 28.3568 34.3251 28.3568C34.3251 28.3568 34.3251 28.3568 34.3251 28.3568C34.3251 28.3568 34.3251 28.3568 34.3251 28.3568C34.3251 28.3568 34.3251 28.3568 34.3251 28.3568C34.3251 28.3568 34.3251 28.3568 34.3251 28.3568C34.3251 28.3568 34.3251 28.3568 34.3251 28.3568C34.3251 28.3568 34.3251 28.3568 34.3251 28.3568C34.3251 28.3568 34.3251 28.3568 34.3251 28.3568C34.3251 28.3568 34.3251 28.3568 34.3251 28.3568C34.3251 28.3568 34.3251 28.3568 34.3251 28.3568C34.3251 28.3568 34.3251 28.3568 34.3251 28.3568C34.3251 28.3568 34.3251 28.3568 34.3251 28.3568C34.3251 28.3568 34.3251 28.3568 34.3251 28.3568C34.3251 28.3568 34.3251 28.3568 34.3251 28.3568C34.3251 28.3568 34.3251 28.3568 34.3251 28.3568C34.3251 28.3568 34.3251 28.3568 34.3251 28.3568C34.3251 28.3568 34.3251 28.3568 34.3251 28.3568C34.3251 28.3568 34.3251 28.3568 34.3251 28.3568C34.3251 28.3568 34.3251 28.3568 34.3251 28.3568C34.3251 28.3568 34.3251 28.3568 34.3251 28.3568C34.3251 28.3568 34.3251 28.3568 34.3251 28.3568C34.3251 28.3568 34.3251 28.3568 34.3251 28.3568C34.3251 28.3568 34.3251 28.3568 34.3251 28.3568C34.3251 28.3568 34.3251 28.3568 34.3251 28.3568C34.3251 28.3568 34.3251 28.3568 34.3251 28.3568C34.3251 28.3568 34.3251 28.3568 34.3251 28.3568C34.3251 28.3568 34.3251 28.3568 34.3251 28.3568C34.3251 28.3568 34.3251 28.3568 34.3251 28.3568C34.3251 28.3568 34.3251 28.3568 34.3251 28.3568C34.3251 28.3568 34.3251 28.3568 34.3251 28.3568C34.3251 28.3568 34.3251 28.3568 34.3251 28.3568C34.3251 28.3568 34.3251 28.3568 34.3251 28.3568C34.3251 28.3568 34.3251 28.3568 34.3251 28.3568C34.3251 28.3568 34.3251 28.3568 34.3251 28.3568C34.3251 28.3568 34.3251 28.3568 34.3251 28.3568C34.3251 28.3568 34.3251 28.3568 34.3251 28.3568C34.3251 28.3568 34.3251 28.3568 34.3251 28.3568C34.3251 28.3568 34.3251 28.3568 34.3251 28.3568C34.3251 28.3568 34.3251 28.3568 34.3251 28.3568C34.3251 28.3568 34.3251 28.3568 34.3251 28.3568C34.3251 28.3567 34.3251 28.3567 34.3251 28.3567C34.3251 28.3567 34.3251 28.3567 34.3251 28.3567C34.3251 28.3567 34.3251 28.3567 34.3251 28.3567C34.3251 28.3567 34.3251 28.3567 34.3251 28.3567C34.3251 28.3567 34.3251 28.3567 34.3251 28.3567C34.3251 28.3567 34.3251 28.3567 34.3251 28.3567C34.3251 28.3567 34.3251 28.3567 34.3251 28.3567C34.3251 28.3567 34.3251 28.3567 34.3251 28.3567C34.3251 28.3567 34.3251 28.3567 34.3251 28.3567C34.3251 28.3567 34.3251 28.3567 34.3251 28.3567C34.3251 28.3567 34.3251 28.3567 34.3251 28.3567C34.3251 28.3567 34.3251 28.3567 34.3251 28.3567C34.3251 28.3567 34.3251 28.3567 34.3251 28.3567C34.3251 28.3567 34.3251 28.3567 34.3251 28.3567C34.3251 28.3567 34.3251 28.3567 34.3251 28.3567C34.3251 28.3567 34.3251 28.3567 34.3251 28.3567C34.3251 28.3567 34.3251 28.3567 34.3251 28.3567C34.3251 28.3567 34.3251 28.3567 34.3251 28.3567C34.3251 28.3567 34.3251 28.3567 34.3251 28.3567C34.3251 28.3567 34.3251 28.3567 34.3251 28.3567C34.3251 28.3567 34.3251 28.3567 34.3251 28.3567C34.3251 28.3567 34.3251 28.3567 34.3251 28.3567C34.3251 28.3567 34.3251 28.3567 34.3251 28.3567C34.3251 28.3567 34.3251 28.3567 34.3251 28.3567C34.3251 28.3567 34.3251 28.3567 34.3251 28.3567C34.3251 28.3567 34.3251 28.3567 34.3251 28.3567C34.3251 28.3567 34.3251 28.3567 34.3251 28.3567C34.3251 28.3567 34.3251 28.3567 34.3251 28.3567C34.3251 28.3567 34.3251 28.3567 34.3251 28.3567C34.3251 28.3567 34.3251 28.3567 34.3251 28.3567C34.3251 28.3567 34.3251 28.3567 34.3251 28.3567C34.3251 28.3567 34.3251 28.3567 34.3251 28.3567C34.3251 28.3567 34.3251 28.3567 34.3251 28.3567C34.3251 28.3567 34.3251 28.3567 34.3251 28.3567C34.3251 28.3567 34.3251 28.3567 34.3251 28.3567C34.3251 28.3567 34.3251 28.3567 34.3251 28.3567C34.3251 28.3567 34.3251 28.3567 34.3251 28.3567C34.3251 28.3567 34.3251 28.3567 34.3251 28.3567C34.3251 28.3567 34.3251 28.3567 34.3251 28.3567C34.3251 28.3567 34.3251 28.3567 34.3251 28.3567C34.3251 28.3567 34.3251 28.3567 34.3251 28.3567C34.3251 28.3567 34.3251 28.3567 34.3251 28.3567C34.3251 28.3567 34.3251 28.3567 34.3251 28.3567C34.3251 28.3567 34.3251 28.3567 34.3251 28.3567C34.3251 28.3567 34.3251 28.3567 34.3251 28.3567C34.3251 28.3567 34.3251 28.3567 34.3251 28.3567C34.3251 28.3567 34.3251 28.3567 34.3251 28.3567C34.3251 28.3567 34.3251 28.3567 34.3251 28.3567C34.3251 28.3567 34.3251 28.3567 34.3251 28.3567C34.3251 28.3567 34.3251 28.3567 34.3251 28.3567C34.3251 28.3567 34.3251 28.3567 34.3251 28.3567C34.3251 28.3567 34.3251 28.3567 34.3251 28.3567C34.3251 28.3567 34.3251 28.3567 34.3251 28.3567C34.3251 28.3566 34.3251 28.3566 34.3251 28.3566C34.3251 28.3566 34.3251 28.3566 34.3251 28.3566C34.3251 28.3566 34.3251 28.3566 34.3251 28.3566C34.3251 28.3566 34.3251 28.3566 34.3251 28.3566C34.3251 28.3566 34.3251 28.3566 34.3251 28.3566C34.3251 28.3566 34.3251 28.3566 34.3251 28.3566C34.3251 28.3566 34.3251 28.3566 34.3251 28.3566C34.3251 28.3566 34.3251 28.3566 34.3251 28.3566C34.3251 28.3566 34.3251 28.3566 34.3251 28.3566C34.3251 28.3566 34.3251 28.3566 34.3251 28.3566C34.3251 28.3566 34.3251 28.3566 34.3251 28.3566C34.3251 28.3566 34.3251 28.3566 34.3251 28.3566C34.3251 28.3566 34.3251 28.3566 34.3251 28.3566C34.3251 28.3566 34.3251 28.3566 34.3251 28.3566C34.3251 28.3566 34.3251 28.3566 34.3251 28.3566C34.3251 28.3566 34.3251 28.3566 34.3251 28.3566C34.3251 28.3566 34.3251 28.3566 34.3251 28.3566C34.3251 28.3566 34.3251 28.3566 34.3251 28.3566C34.3251 28.3566 34.3251 28.3566 34.3251 28.3566C34.3251 28.3566 34.3251 28.3566 34.3251 28.3566C34.3251 28.3566 34.3251 28.3566 34.3251 28.3566C34.3251 28.3566 34.3251 28.3566 34.3251 28.3566C34.3251 28.3566 34.3251 28.3566 34.3251 28.3566C34.3251 28.3566 34.3251 28.3566 34.3251 28.3566C34.3251 28.3566 34.3251 28.3566 34.3251 28.3566C34.3251 28.3566 34.3251 28.3566 34.3251 28.3566C34.3251 28.3566 34.3251 28.3566 34.3251 28.3566C34.3251 28.3566 34.3251 28.3566 34.3251 28.3566C34.3251 28.3566 34.3251 28.3566 34.3251 28.3566C34.3251 28.3566 34.3251 28.3566 34.3251 28.3566C34.3251 28.3566 34.3251 28.3566 34.3251 28.3566C34.3251 28.3566 34.3251 28.3566 34.3251 28.3566C34.3251 28.3566 34.3251 28.3566 34.3251 28.3566C34.3251 28.3566 34.3251 28.3566 34.3251 28.3566C34.3251 28.3566 34.3251 28.3566 34.3251 28.3566C34.3251 28.3566 34.3251 28.3566 34.3251 28.3566C34.3251 28.3566 34.3251 28.3566 34.3251 28.3566C34.3251 28.3566 34.3251 28.3566 34.3251 28.3566C34.3251 28.3566 34.3251 28.3566 34.3251 28.3566C34.3251 28.3566 34.3251 28.3566 34.3251 28.3566C34.3251 28.3566 34.3251 28.3566 34.3251 28.3566C34.3251 28.3566 34.3251 28.3566 34.3251 28.3566C34.3251 28.3566 34.3251 28.3566 34.3251 28.3566C34.3251 28.3566 34.3251 28.3566 34.3251 28.3566C34.3251 28.3566 34.3251 28.3566 34.3251 28.3566C34.3251 28.3566 34.3251 28.3566 34.3251 28.3566C34.3251 28.3566 34.3251 28.3566 34.3251 28.3566C34.3251 28.3566 34.3251 28.3566 34.3251 28.3566C34.3251 28.3566 34.3251 28.3566 34.3251 28.3566C34.3251 28.3566 34.3251 28.3566 34.3251 28.3566C34.3251 28.3566 34.3251 28.3566 34.3251 28.3566C34.3251 28.3566 34.3251 28.3566 34.3251 28.3566C34.3251 28.3566 34.3251 28.3566 34.3251 28.3566C34.3251 28.3566 34.3251 28.3565 34.3251 28.3565C34.3251 28.3565 34.3251 28.3565 34.3251 28.3565C34.3251 28.3565 34.3251 28.3565 34.3251 28.3565C34.3251 28.3565 34.3251 28.3565 34.3251 28.3565C34.3251 28.3565 34.3251 28.3565 34.3251 28.3565C34.3251 28.3565 34.3251 28.3565 34.3251 28.3565C34.3251 28.3565 34.3251 28.3565 34.3251 28.3565C34.3251 28.3565 34.3251 28.3565 34.3251 28.3565C34.3251 28.3565 34.3251 28.3565 34.3251 28.3565C34.3251 28.3565 34.3251 28.3565 34.3251 28.3565C34.3251 28.3565 34.3251 28.3565 34.3251 28.3565C34.3251 28.3565 34.3251 28.3565 34.3251 28.3565C34.3251 28.3565 34.3251 28.3565 34.3251 28.3565C34.3251 28.3565 34.3251 28.3565 34.3251 28.3565C34.3251 28.3565 34.3251 28.3565 34.3251 28.3565C34.3251 28.3565 34.3251 28.3565 34.3251 28.3565C34.3251 28.3565 34.3251 28.3565 34.3251 28.3565C34.3251 28.3565 34.3251 28.3565 34.3251 28.3565C34.3251 28.3565 34.3251 28.3565 34.3251 28.3565C34.3251 28.3565 34.3251 28.3565 34.3251 28.3565C34.3251 28.3565 34.3251 28.3565 34.3251 28.3565C34.3251 28.3565 34.3251 28.3565 34.3251 28.3565C34.3251 28.3565 34.3251 28.3565 34.3251 28.3565C34.3251 28.3565 34.3251 28.3565 34.3251 28.3565C34.3251 28.3565 34.3251 28.3565 34.3251 28.3565C34.3251 28.3565 34.3251 28.3565 34.3251 28.3565C34.3251 28.3565 34.3251 28.3565 34.3251 28.3565C34.3251 28.3565 34.3251 28.3565 34.3251 28.3565C34.3251 28.3565 34.3251 28.3565 34.3251 28.3565C34.3251 28.3565 34.3251 28.3565 34.3251 28.3565C34.3251 28.3565 34.3251 28.3565 34.3251 28.3565C34.3251 28.3565 34.3251 28.3565 34.3251 28.3565C34.3251 28.3565 34.3251 28.3565 34.3251 28.3565C34.3251 28.3565 34.3251 28.3565 34.3251 28.3565C34.3251 28.3565 34.3251 28.3565 34.3251 28.3565C34.3251 28.3565 34.3251 28.3565 34.3251 28.3565C34.3251 28.3565 34.3251 28.3565 34.3251 28.3565C34.3251 28.3565 34.3251 28.3565 34.3251 28.3565C34.3251 28.3565 34.3251 28.3565 34.3251 28.3565C34.3251 28.3565 34.3251 28.3565 34.3251 28.3565C34.3251 28.3565 34.3251 28.3565 34.3251 28.3565C34.3251 28.3565 34.3251 28.3565 34.3251 28.3565C34.3251 28.3565 34.3251 28.3565 34.3251 28.3565C34.3251 28.3565 34.3251 28.3565 34.3251 28.3565C34.3251 28.3565 34.3251 28.3565 34.3251 28.3565C34.3251 28.3565 34.3251 28.3565 34.3251 28.3565C34.3251 28.3565 34.3251 28.3565 34.3251 28.3565C34.3251 28.3565 34.3251 28.3565 34.3251 28.3565C34.3251 28.3565 34.3251 28.3565 34.3251 28.3565C34.3251 28.3565 34.3251 28.3565 34.3251 28.3565C34.3251 28.3565 34.3251 28.3565 34.3251 28.3565C34.3251 28.3565 34.3251 28.3565 34.3251 28.3565C34.3251 28.3565 34.3251 28.3565 34.3251 28.3565C34.3251 28.3565 34.3251 28.3565 34.3251 28.3564C34.3251 28.3564 34.3251 28.3564 34.3251 28.3564C34.3251 28.3564 34.3251 28.3564 34.3251 28.3564C34.3251 28.3564 34.3251 28.3564 34.3251 28.3564C34.3251 28.3564 34.3251 28.3564 34.3251 28.3564C34.3251 28.3564 34.3251 28.3564 34.3251 28.3564C34.3251 28.3564 34.3251 28.3564 34.3251 28.3564C34.3251 28.3564 34.3251 28.3564 34.3251 28.3564C34.3251 28.3564 34.3251 28.3564 34.3251 28.3564C34.3251 28.3564 34.3251 28.3564 34.3251 28.3564H33.3251C33.3251 28.3564 33.3251 28.3564 33.3251 28.3564C33.3251 28.3564 33.3251 28.3564 33.3251 28.3564C33.3251 28.3564 33.3251 28.3564 33.3251 28.3564C33.3251 28.3564 33.3251 28.3564 33.3251 28.3564C33.3251 28.3564 33.3251 28.3564 33.3251 28.3564C33.3251 28.3564 33.3251 28.3564 33.3251 28.3564C33.3251 28.3564 33.3251 28.3564 33.3251 28.3564C33.3251 28.3564 33.3251 28.3564 33.3251 28.3564C33.3251 28.3564 33.3251 28.3564 33.3251 28.3564C33.3251 28.3565 33.3251 28.3565 33.3251 28.3565C33.3251 28.3565 33.3251 28.3565 33.3251 28.3565C33.3251 28.3565 33.3251 28.3565 33.3251 28.3565C33.3251 28.3565 33.3251 28.3565 33.3251 28.3565C33.3251 28.3565 33.3251 28.3565 33.3251 28.3565C33.3251 28.3565 33.3251 28.3565 33.3251 28.3565C33.3251 28.3565 33.3251 28.3565 33.3251 28.3565C33.3251 28.3565 33.3251 28.3565 33.3251 28.3565C33.3251 28.3565 33.3251 28.3565 33.3251 28.3565C33.3251 28.3565 33.3251 28.3565 33.3251 28.3565C33.3251 28.3565 33.3251 28.3565 33.3251 28.3565C33.3251 28.3565 33.3251 28.3565 33.3251 28.3565C33.3251 28.3565 33.3251 28.3565 33.3251 28.3565C33.3251 28.3565 33.3251 28.3565 33.3251 28.3565C33.3251 28.3565 33.3251 28.3565 33.3251 28.3565C33.3251 28.3565 33.3251 28.3565 33.3251 28.3565C33.3251 28.3565 33.3251 28.3565 33.3251 28.3565C33.3251 28.3565 33.3251 28.3565 33.3251 28.3565C33.3251 28.3565 33.3251 28.3565 33.3251 28.3565C33.3251 28.3565 33.3251 28.3565 33.3251 28.3565C33.3251 28.3565 33.3251 28.3565 33.3251 28.3565C33.3251 28.3565 33.3251 28.3565 33.3251 28.3565C33.3251 28.3565 33.3251 28.3565 33.3251 28.3565C33.3251 28.3565 33.3251 28.3565 33.3251 28.3565C33.3251 28.3565 33.3251 28.3565 33.3251 28.3565C33.3251 28.3565 33.3251 28.3565 33.3251 28.3565C33.3251 28.3565 33.3251 28.3565 33.3251 28.3565C33.3251 28.3565 33.3251 28.3565 33.3251 28.3565C33.3251 28.3565 33.3251 28.3565 33.3251 28.3565C33.3251 28.3565 33.3251 28.3565 33.3251 28.3565C33.3251 28.3565 33.3251 28.3565 33.3251 28.3565C33.3251 28.3565 33.3251 28.3565 33.3251 28.3565C33.3251 28.3565 33.3251 28.3565 33.3251 28.3565C33.3251 28.3565 33.3251 28.3565 33.3251 28.3565C33.3251 28.3565 33.3251 28.3565 33.3251 28.3565C33.3251 28.3565 33.3251 28.3565 33.3251 28.3565C33.3251 28.3565 33.3251 28.3565 33.3251 28.3565C33.3251 28.3565 33.3251 28.3565 33.3251 28.3565C33.3251 28.3565 33.3251 28.3565 33.3251 28.3565C33.3251 28.3565 33.3251 28.3565 33.3251 28.3565C33.3251 28.3565 33.3251 28.3565 33.3251 28.3565C33.3251 28.3565 33.3251 28.3565 33.3251 28.3565C33.3251 28.3565 33.3251 28.3565 33.3251 28.3565C33.3251 28.3565 33.3251 28.3565 33.3251 28.3565C33.3251 28.3565 33.3251 28.3565 33.3251 28.3565C33.3251 28.3565 33.3251 28.3565 33.3251 28.3565C33.3251 28.3565 33.3251 28.3565 33.3251 28.3565C33.3251 28.3565 33.3251 28.3565 33.3251 28.3565C33.3251 28.3565 33.3251 28.3565 33.3251 28.3565C33.3251 28.3565 33.3251 28.3565 33.3251 28.3565C33.3251 28.3565 33.3251 28.3565 33.3251 28.3565C33.3251 28.3565 33.3251 28.3565 33.3251 28.3565C33.3251 28.3565 33.3251 28.3565 33.3251 28.3565C33.3251 28.3565 33.3251 28.3566 33.3251 28.3566C33.3251 28.3566 33.3251 28.3566 33.3251 28.3566C33.3251 28.3566 33.3251 28.3566 33.3251 28.3566C33.3251 28.3566 33.3251 28.3566 33.3251 28.3566C33.3251 28.3566 33.3251 28.3566 33.3251 28.3566C33.3251 28.3566 33.3251 28.3566 33.3251 28.3566C33.3251 28.3566 33.3251 28.3566 33.3251 28.3566C33.3251 28.3566 33.3251 28.3566 33.3251 28.3566C33.3251 28.3566 33.3251 28.3566 33.3251 28.3566C33.3251 28.3566 33.3251 28.3566 33.3251 28.3566C33.3251 28.3566 33.3251 28.3566 33.3251 28.3566C33.3251 28.3566 33.3251 28.3566 33.3251 28.3566C33.3251 28.3566 33.3251 28.3566 33.3251 28.3566C33.3251 28.3566 33.3251 28.3566 33.3251 28.3566C33.3251 28.3566 33.3251 28.3566 33.3251 28.3566C33.3251 28.3566 33.3251 28.3566 33.3251 28.3566C33.3251 28.3566 33.3251 28.3566 33.3251 28.3566C33.3251 28.3566 33.3251 28.3566 33.3251 28.3566C33.3251 28.3566 33.3251 28.3566 33.3251 28.3566C33.3251 28.3566 33.3251 28.3566 33.3251 28.3566C33.3251 28.3566 33.3251 28.3566 33.3251 28.3566C33.3251 28.3566 33.3251 28.3566 33.3251 28.3566C33.3251 28.3566 33.3251 28.3566 33.3251 28.3566C33.3251 28.3566 33.3251 28.3566 33.3251 28.3566C33.3251 28.3566 33.3251 28.3566 33.3251 28.3566C33.3251 28.3566 33.3251 28.3566 33.3251 28.3566C33.3251 28.3566 33.3251 28.3566 33.3251 28.3566C33.3251 28.3566 33.3251 28.3566 33.3251 28.3566C33.3251 28.3566 33.3251 28.3566 33.3251 28.3566C33.3251 28.3566 33.3251 28.3566 33.3251 28.3566C33.3251 28.3566 33.3251 28.3566 33.3251 28.3566C33.3251 28.3566 33.3251 28.3566 33.3251 28.3566C33.3251 28.3566 33.3251 28.3566 33.3251 28.3566C33.3251 28.3566 33.3251 28.3566 33.3251 28.3566C33.3251 28.3566 33.3251 28.3566 33.3251 28.3566C33.3251 28.3566 33.3251 28.3566 33.3251 28.3566C33.3251 28.3566 33.3251 28.3566 33.3251 28.3566C33.3251 28.3566 33.3251 28.3566 33.3251 28.3566C33.3251 28.3566 33.3251 28.3566 33.3251 28.3566C33.3251 28.3566 33.3251 28.3566 33.3251 28.3566C33.3251 28.3566 33.3251 28.3566 33.3251 28.3566C33.3251 28.3566 33.3251 28.3566 33.3251 28.3566C33.3251 28.3566 33.3251 28.3566 33.3251 28.3566C33.3251 28.3566 33.3251 28.3566 33.3251 28.3566C33.3251 28.3566 33.3251 28.3566 33.3251 28.3566C33.3251 28.3566 33.3251 28.3566 33.3251 28.3566C33.3251 28.3566 33.3251 28.3566 33.3251 28.3566C33.3251 28.3566 33.3251 28.3566 33.3251 28.3566C33.3251 28.3566 33.3251 28.3566 33.3251 28.3566C33.3251 28.3566 33.3251 28.3566 33.3251 28.3566C33.3251 28.3566 33.3251 28.3566 33.3251 28.3566C33.3251 28.3566 33.3251 28.3566 33.3251 28.3566C33.3251 28.3566 33.3251 28.3566 33.3251 28.3566C33.3251 28.3566 33.3251 28.3566 33.3251 28.3567C33.3251 28.3567 33.3251 28.3567 33.3251 28.3567C33.3251 28.3567 33.3251 28.3567 33.3251 28.3567C33.3251 28.3567 33.3251 28.3567 33.3251 28.3567C33.3251 28.3567 33.3251 28.3567 33.3251 28.3567C33.3251 28.3567 33.3251 28.3567 33.3251 28.3567C33.3251 28.3567 33.3251 28.3567 33.3251 28.3567C33.3251 28.3567 33.3251 28.3567 33.3251 28.3567C33.3251 28.3567 33.3251 28.3567 33.3251 28.3567C33.3251 28.3567 33.3251 28.3567 33.3251 28.3567C33.3251 28.3567 33.3251 28.3567 33.3251 28.3567C33.3251 28.3567 33.3251 28.3567 33.3251 28.3567C33.3251 28.3567 33.3251 28.3567 33.3251 28.3567C33.3251 28.3567 33.3251 28.3567 33.3251 28.3567C33.3251 28.3567 33.3251 28.3567 33.3251 28.3567C33.3251 28.3567 33.3251 28.3567 33.3251 28.3567C33.3251 28.3567 33.3251 28.3567 33.3251 28.3567C33.3251 28.3567 33.3251 28.3567 33.3251 28.3567C33.3251 28.3567 33.3251 28.3567 33.3251 28.3567C33.3251 28.3567 33.3251 28.3567 33.3251 28.3567C33.3251 28.3567 33.3251 28.3567 33.3251 28.3567C33.3251 28.3567 33.3251 28.3567 33.3251 28.3567C33.3251 28.3567 33.3251 28.3567 33.3251 28.3567C33.3251 28.3567 33.3251 28.3567 33.3251 28.3567C33.3251 28.3567 33.3251 28.3567 33.3251 28.3567C33.3251 28.3567 33.3251 28.3567 33.3251 28.3567C33.3251 28.3567 33.3251 28.3567 33.3251 28.3567C33.3251 28.3567 33.3251 28.3567 33.3251 28.3567C33.3251 28.3567 33.3251 28.3567 33.3251 28.3567C33.3251 28.3567 33.3251 28.3567 33.3251 28.3567C33.3251 28.3567 33.3251 28.3567 33.3251 28.3567C33.3251 28.3567 33.3251 28.3567 33.3251 28.3567C33.3251 28.3567 33.3251 28.3567 33.3251 28.3567C33.3251 28.3567 33.3251 28.3567 33.3251 28.3567C33.3251 28.3567 33.3251 28.3567 33.3251 28.3567C33.3251 28.3567 33.3251 28.3567 33.3251 28.3567C33.3251 28.3567 33.3251 28.3567 33.3251 28.3567C33.3251 28.3567 33.3251 28.3567 33.3251 28.3567C33.3251 28.3567 33.3251 28.3567 33.3251 28.3567C33.3251 28.3567 33.3251 28.3567 33.3251 28.3567C33.3251 28.3567 33.3251 28.3567 33.3251 28.3567C33.3251 28.3567 33.3251 28.3567 33.3251 28.3567C33.3251 28.3567 33.3251 28.3567 33.3251 28.3567C33.3251 28.3567 33.3251 28.3567 33.3251 28.3567C33.3251 28.3567 33.3251 28.3567 33.3251 28.3567C33.3251 28.3567 33.3251 28.3567 33.3251 28.3567C33.3251 28.3567 33.3251 28.3567 33.3251 28.3567C33.3251 28.3567 33.3251 28.3567 33.3251 28.3567C33.3251 28.3567 33.3251 28.3567 33.3251 28.3567C33.3251 28.3567 33.3251 28.3567 33.3251 28.3567C33.3251 28.3567 33.3251 28.3567 33.3251 28.3567C33.3251 28.3567 33.3251 28.3567 33.3251 28.3567C33.3251 28.3567 33.3251 28.3567 33.3251 28.3567C33.3251 28.3567 33.3251 28.3567 33.3251 28.3568C33.3251 28.3568 33.3251 28.3568 33.3251 28.3568C33.3251 28.3568 33.3251 28.3568 33.3251 28.3568C33.3251 28.3568 33.3251 28.3568 33.3251 28.3568C33.3251 28.3568 33.3251 28.3568 33.3251 28.3568C33.3251 28.3568 33.3251 28.3568 33.3251 28.3568C33.3251 28.3568 33.3251 28.3568 33.3251 28.3568C33.3251 28.3568 33.3251 28.3568 33.3251 28.3568C33.3251 28.3568 33.3251 28.3568 33.3251 28.3568C33.3251 28.3568 33.3251 28.3568 33.3251 28.3568C33.3251 28.3568 33.3251 28.3568 33.3251 28.3568C33.3251 28.3568 33.3251 28.3568 33.3251 28.3568C33.3251 28.3568 33.3251 28.3568 33.3251 28.3568C33.3251 28.3568 33.3251 28.3568 33.3251 28.3568C33.3251 28.3568 33.3251 28.3568 33.3251 28.3568C33.3251 28.3568 33.3251 28.3568 33.3251 28.3568C33.3251 28.3568 33.3251 28.3568 33.3251 28.3568C33.3251 28.3568 33.3251 28.3568 33.3251 28.3568C33.3251 28.3568 33.3251 28.3568 33.3251 28.3568C33.3251 28.3568 33.3251 28.3568 33.3251 28.3568C33.3251 28.3568 33.3251 28.3568 33.3251 28.3568C33.3251 28.3568 33.3251 28.3568 33.3251 28.3568C33.3251 28.3568 33.3251 28.3568 33.3251 28.3568C33.3251 28.3568 33.3251 28.3568 33.3251 28.3568C33.3251 28.3568 33.3251 28.3568 33.3251 28.3568C33.3251 28.3568 33.3251 28.3568 33.3251 28.3568C33.3251 28.3568 33.3251 28.3568 33.3251 28.3568C33.3251 28.3568 33.3251 28.3568 33.3251 28.3568C33.3251 28.3568 33.3251 28.3568 33.3251 28.3568C33.3251 28.3568 33.3251 28.3568 33.3251 28.3568C33.3251 28.3568 33.3251 28.3568 33.3251 28.3568C33.3251 28.3568 33.3251 28.3568 33.3251 28.3568C33.3251 28.3568 33.3251 28.3568 33.3251 28.3568C33.3251 28.3568 33.3251 28.3568 33.3251 28.3568C33.3251 28.3568 33.3251 28.3568 33.3251 28.3568C33.3251 28.3568 33.3251 28.3568 33.3251 28.3568C33.3251 28.3568 33.3251 28.3568 33.3251 28.3568C33.3251 28.3568 33.3251 28.3568 33.3251 28.3568C33.3251 28.3568 33.3251 28.3568 33.3251 28.3568C33.3251 28.3568 33.3251 28.3568 33.3251 28.3568C33.3251 28.3568 33.3251 28.3568 33.3251 28.3568C33.3251 28.3568 33.3251 28.3568 33.3251 28.3568C33.3251 28.3568 33.3251 28.3568 33.3251 28.3568C33.3251 28.3568 33.3251 28.3568 33.3251 28.3568C33.3251 28.3568 33.3251 28.3568 33.3251 28.3568C33.3251 28.3568 33.3251 28.3568 33.3251 28.3568C33.3251 28.3568 33.3251 28.3568 33.3251 28.3568C33.3251 28.3568 33.3251 28.3568 33.3251 28.3568C33.3251 28.3568 33.3251 28.3568 33.3251 28.3568C33.3251 28.3568 33.3251 28.3568 33.3251 28.3568C33.3251 28.3568 33.3251 28.3568 33.3251 28.3568C33.3251 28.3568 33.3251 28.3568 33.3251 28.3568C33.3251 28.3568 33.3251 28.3568 33.3251 28.3568C33.3251 28.3568 33.3251 28.3568 33.3251 28.3568C33.3251 28.3569 33.3251 28.3569 33.3251 28.3569C33.3251 28.3569 33.3251 28.3569 33.3251 28.3569C33.3251 28.3569 33.3251 28.3569 33.3251 28.3569C33.3251 28.3569 33.3251 28.3569 33.3251 28.3569C33.3251 28.3569 33.3251 28.3569 33.3251 28.3569C33.3251 28.3569 33.3251 28.3569 33.3251 28.3569C33.3251 28.3569 33.3251 28.3569 33.3251 28.3569C33.3251 28.3569 33.3251 28.3569 33.3251 28.3569C33.3251 28.3569 33.3251 28.3569 33.3251 28.3569C33.3251 28.3569 33.3251 28.3569 33.3251 28.3569C33.3251 28.3569 33.3251 28.3569 33.3251 28.3569C33.3251 28.3569 33.3251 28.3569 33.3251 28.3569C33.3251 28.3569 33.3251 28.3569 33.3251 28.3569C33.3251 28.3569 33.3251 28.3569 33.3251 28.3569C33.3251 28.3569 33.3251 28.3569 33.3251 28.3569C33.3251 28.3569 33.3251 28.3569 33.3251 28.3569C33.3251 28.3569 33.3251 28.3569 33.3251 28.3569C33.3251 28.3569 33.3251 28.3569 33.3251 28.3569C33.3251 28.3569 33.3251 28.3569 33.3251 28.3569C33.3251 28.3569 33.3251 28.3569 33.3251 28.3569C33.3251 28.3569 33.3251 28.3569 33.3251 28.3569C33.3251 28.3569 33.3251 28.3569 33.3251 28.3569C33.3251 28.3569 33.3251 28.3569 33.3251 28.3569C33.3251 28.3569 33.3251 28.3569 33.3251 28.3569C33.3251 28.3569 33.3251 28.3569 33.3251 28.3569C33.3251 28.3569 33.3251 28.3569 33.3251 28.3569C33.3251 28.3569 33.3251 28.3569 33.3251 28.3569C33.3251 28.3569 33.3251 28.3569 33.3251 28.3569C33.3251 28.3569 33.3251 28.3569 33.3251 28.3569C33.3251 28.3569 33.3251 28.3569 33.3251 28.3569C33.3251 28.3569 33.3251 28.3569 33.3251 28.3569C33.3251 28.3569 33.3251 28.3569 33.3251 28.3569C33.3251 28.3569 33.3251 28.3569 33.3251 28.3569C33.3251 28.3569 33.3251 28.3569 33.3251 28.3569C33.3251 28.3569 33.3251 28.3569 33.3251 28.3569C33.3251 28.3569 33.3251 28.3569 33.3251 28.3569C33.3251 28.3569 33.3251 28.3569 33.3251 28.3569C33.3251 28.3569 33.3251 28.3569 33.3251 28.3569C33.3251 28.3569 33.3251 28.3569 33.3251 28.3569C33.3251 28.3569 33.3251 28.3569 33.3251 28.3569C33.3251 28.3569 33.3251 28.3569 33.3251 28.3569C33.3251 28.3569 33.3251 28.3569 33.3251 28.3569C33.3251 28.3569 33.3251 28.3569 33.3251 28.3569C33.3251 28.3569 33.3251 28.3569 33.3251 28.3569C33.3251 28.3569 33.3251 28.3569 33.3251 28.3569C33.3251 28.3569 33.3251 28.3569 33.3251 28.3569C33.3251 28.3569 33.3251 28.3569 33.3251 28.3569C33.3251 28.3569 33.3251 28.3569 33.3251 28.3569C33.3251 28.3569 33.3251 28.3569 33.3251 28.3569C33.3251 28.3569 33.3251 28.3569 33.3251 28.3569C33.3251 28.3569 33.3251 28.3569 33.3251 28.3569C33.3251 28.3569 33.3251 28.3569 33.3251 28.3569C33.3251 28.3569 33.3251 28.3569 33.3251 28.3569C33.3251 28.3569 33.3251 28.357 33.3251 28.357C33.3251 28.357 33.3251 28.357 33.3251 28.357C33.3251 28.357 33.3251 28.357 33.3251 28.357C33.3251 28.357 33.3251 28.357 33.3251 28.357C33.3251 28.357 33.3251 28.357 33.3251 28.357C33.3251 28.357 33.3251 28.357 33.3251 28.357C33.3251 28.357 33.3251 28.357 33.3251 28.357C33.3251 28.357 33.3251 28.357 33.3251 28.357C33.3251 28.357 33.3251 28.357 33.3251 28.357C33.3251 28.357 33.3251 28.357 33.3251 28.357C33.3251 28.357 33.3251 28.357 33.3251 28.357C33.3251 28.357 33.3251 28.357 33.3251 28.357C33.3251 28.357 33.3251 28.357 33.3251 28.357C33.3251 28.357 33.3251 28.357 33.3251 28.357C33.3251 28.357 33.3251 28.357 33.3251 28.357C33.3251 28.357 33.3251 28.357 33.3251 28.357C33.3251 28.357 33.3251 28.357 33.3251 28.357C33.3251 28.357 33.3251 28.357 33.3251 28.357C33.3251 28.357 33.3251 28.357 33.3251 28.357C33.3251 28.357 33.3251 28.357 33.3251 28.357C33.3251 28.357 33.3251 28.357 33.3251 28.357C33.3251 28.357 33.3251 28.357 33.3251 28.357C33.3251 28.357 33.3251 28.357 33.3251 28.357C33.3251 28.357 33.3251 28.357 33.3251 28.357C33.3251 28.357 33.3251 28.357 33.3251 28.357C33.3251 28.357 33.3251 28.357 33.3251 28.357C33.3251 28.357 33.3251 28.357 33.3251 28.357C33.3251 28.357 33.3251 28.357 33.3251 28.357C33.3251 28.357 33.3251 28.357 33.3251 28.357C33.3251 28.357 33.3251 28.357 33.3251 28.357C33.3251 28.357 33.3251 28.357 33.3251 28.357C33.3251 28.357 33.3251 28.357 33.3251 28.357C33.3251 28.357 33.3251 28.357 33.3251 28.357C33.3251 28.357 33.3251 28.357 33.3251 28.357C33.3251 28.357 33.3251 28.357 33.3251 28.357C33.3251 28.357 33.3251 28.357 33.3251 28.357C33.3251 28.357 33.3251 28.357 33.3251 28.357C33.3251 28.357 33.3251 28.357 33.3251 28.357C33.3251 28.357 33.3251 28.357 33.3251 28.357C33.3251 28.357 33.3251 28.357 33.3251 28.357C33.3251 28.357 33.3251 28.357 33.3251 28.357C33.3251 28.357 33.3251 28.357 33.3251 28.357C33.3251 28.357 33.3251 28.357 33.3251 28.357C33.3251 28.357 33.3251 28.357 33.3251 28.357C33.3251 28.357 33.3251 28.357 33.3251 28.357C33.3251 28.357 33.3251 28.357 33.3251 28.357C33.3251 28.357 33.3251 28.357 33.3251 28.357C33.3251 28.357 33.3251 28.357 33.3251 28.357C33.3251 28.357 33.3251 28.357 33.3251 28.357C33.3251 28.357 33.3251 28.357 33.3251 28.357C33.3251 28.357 33.3251 28.357 33.3251 28.357C33.3251 28.357 33.3251 28.357 33.3251 28.357C33.3251 28.357 33.3251 28.357 33.3251 28.357C33.3251 28.357 33.3251 28.357 33.3251 28.3571C33.3251 28.3571 33.3251 28.3571 33.3251 28.3571C33.3251 28.3571 33.3251 28.3571 33.3251 28.3571C33.3251 28.3571 33.3251 28.3571 33.3251 28.3571C33.3251 28.3571 33.3251 28.3571 33.3251 28.3571C33.3251 28.3571 33.3251 28.3571 33.3251 28.3571C33.3251 28.3571 33.3251 28.3571 33.3251 28.3571C33.3251 28.3571 33.3251 28.3571 33.3251 28.3571C33.3251 28.3571 33.3251 28.3571 33.3251 28.3571C33.3251 28.3571 33.3251 28.3571 33.3251 28.3571C33.3251 28.3571 33.3251 28.3571 33.3251 28.3571C33.3251 28.3571 33.3251 28.3571 33.3251 28.3571C33.3251 28.3571 33.3251 28.3571 33.3251 28.3571C33.3251 28.3571 33.3251 28.3571 33.3251 28.3571C33.3251 28.3571 33.3251 28.3571 33.3251 28.3571C33.3251 28.3571 33.3251 28.3571 33.3251 28.3571C33.3251 28.3571 33.3251 28.3571 33.3251 28.3571C33.3251 28.3571 33.3251 28.3571 33.3251 28.3571C33.3251 28.3571 33.3251 28.3571 33.3251 28.3571C33.3251 28.3571 33.3251 28.3571 33.3251 28.3571C33.3251 28.3571 33.3251 28.3571 33.3251 28.3571C33.3251 28.3571 33.3251 28.3571 33.3251 28.3571C33.3251 28.3571 33.3251 28.3571 33.3251 28.3571C33.3251 28.3571 33.3251 28.3571 33.3251 28.3571C33.3251 28.3571 33.3251 28.3571 33.3251 28.3571C33.3251 28.3571 33.3251 28.3571 33.3251 28.3571C33.3251 28.3571 33.3251 28.3571 33.3251 28.3571C33.3251 28.3571 33.3251 28.3571 33.3251 28.3571C33.3251 28.3571 33.3251 28.3571 33.3251 28.3571C33.3251 28.3571 33.3251 28.3571 33.3251 28.3571C33.3251 28.3571 33.3251 28.3571 33.3251 28.3571C33.3251 28.3571 33.3251 28.3571 33.3251 28.3571C33.3251 28.3571 33.3251 28.3571 33.3251 28.3571C33.3251 28.3571 33.3251 28.3571 33.3251 28.3571C33.3251 28.3571 33.3251 28.3571 33.3251 28.3571C33.3251 28.3571 33.3251 28.3571 33.3251 28.3571C33.3251 28.3571 33.3251 28.3571 33.3251 28.3571C33.3251 28.3571 33.3251 28.3571 33.3251 28.3571C33.3251 28.3571 33.3251 28.3571 33.3251 28.3571C33.3251 28.3571 33.3251 28.3571 33.3251 28.3571C33.3251 28.3571 33.3251 28.3571 33.3251 28.3571C33.3251 28.3571 33.3251 28.3571 33.3251 28.3571C33.3251 28.3571 33.3251 28.3571 33.3251 28.3571C33.3251 28.3571 33.3251 28.3571 33.3251 28.3571C33.3251 28.3571 33.3251 28.3571 33.3251 28.3571C33.3251 28.3571 33.3251 28.3571 33.3251 28.3571C33.3251 28.3571 33.3251 28.3571 33.3251 28.3571C33.3251 28.3571 33.3251 28.3571 33.3251 28.3571C33.3251 28.3571 33.3251 28.3571 33.3251 28.3571C33.3251 28.3571 33.3251 28.3571 33.3251 28.3571C33.3251 28.3571 33.3251 28.3571 33.3251 28.3571C33.3251 28.3571 33.3251 28.3571 33.3251 28.3571C33.3251 28.3571 33.3251 28.3571 33.3251 28.3571C33.3251 28.3571 33.3251 28.3571 33.3251 28.3571C33.3251 28.3572 33.3251 28.3572 33.3251 28.3572C33.3251 28.3572 33.3251 28.3572 33.3251 28.3572C33.3251 28.3572 33.3251 28.3572 33.3251 28.3572C33.3251 28.3572 33.3251 28.3572 33.3251 28.3572C33.3251 28.3572 33.3251 28.3572 33.3251 28.3572C33.3251 28.3572 33.3251 28.3572 33.3251 28.3572C33.3251 28.3572 33.3251 28.3572 33.3251 28.3572C33.3251 28.3572 33.3251 28.3572 33.3251 28.3572C33.3251 28.3572 33.3251 28.3572 33.3251 28.3572C33.3251 28.3572 33.3251 28.3572 33.3251 28.3572C33.3251 28.3572 33.3251 28.3572 33.3251 28.3572C33.3251 28.3572 33.3251 28.3572 33.3251 28.3572C33.3251 28.3572 33.3251 28.3572 33.3251 28.3572C33.3251 28.3572 33.3251 28.3572 33.3251 28.3572C33.3251 28.3572 33.3251 28.3572 33.3251 28.3572C33.3251 28.3572 33.3251 28.3572 33.3251 28.3572C33.3251 28.3572 33.3251 28.3572 33.3251 28.3572C33.3251 28.3572 33.3251 28.3572 33.3251 28.3572C33.3251 28.3572 33.3251 28.3572 33.3251 28.3572C33.3251 28.3572 33.3251 28.3572 33.3251 28.3572C33.3251 28.3572 33.3251 28.3572 33.3251 28.3572C33.3251 28.3572 33.3251 28.3572 33.3251 28.3572C33.3251 28.3572 33.3251 28.3572 33.3251 28.3572C33.3251 28.3572 33.3251 28.3572 33.3251 28.3572C33.3251 28.3572 33.3251 28.3572 33.3251 28.3572C33.3251 28.3572 33.3251 28.3572 33.3251 28.3572C33.3251 28.3572 33.3251 28.3572 33.3251 28.3572C33.3251 28.3572 33.3251 28.3572 33.3251 28.3572C33.3251 28.3572 33.3251 28.3572 33.3251 28.3572C33.3251 28.3572 33.3251 28.3572 33.3251 28.3572C33.3251 28.3572 33.3251 28.3572 33.3251 28.3572C33.3251 28.3572 33.3251 28.3572 33.3251 28.3572C33.3251 28.3572 33.3251 28.3572 33.3251 28.3572C33.3251 28.3572 33.3251 28.3572 33.3251 28.3572C33.3251 28.3572 33.3251 28.3572 33.3251 28.3572C33.3251 28.3572 33.3251 28.3572 33.3251 28.3572C33.3251 28.3572 33.3251 28.3572 33.3251 28.3572C33.3251 28.3572 33.3251 28.3572 33.3251 28.3572C33.3251 28.3572 33.3251 28.3572 33.3251 28.3572C33.3251 28.3572 33.3251 28.3572 33.3251 28.3572C33.3251 28.3572 33.3251 28.3572 33.3251 28.3572C33.3251 28.3572 33.3251 28.3572 33.3251 28.3572C33.3251 28.3572 33.3251 28.3572 33.3251 28.3572C33.3251 28.3572 33.3251 28.3572 33.3251 28.3572C33.3251 28.3572 33.3251 28.3572 33.3251 28.3572C33.3251 28.3572 33.3251 28.3572 33.3251 28.3572C33.3251 28.3572 33.3251 28.3572 33.3251 28.3572C33.3251 28.3572 33.3251 28.3572 33.3251 28.3572C33.3251 28.3572 33.3251 28.3572 33.3251 28.3572C33.3251 28.3572 33.3251 28.3572 33.3251 28.3572C33.3251 28.3572 33.3251 28.3572 33.3251 28.3572C33.3251 28.3572 33.3251 28.3572 33.3251 28.3572C33.3251 28.3572 33.3251 28.3572 33.3251 28.3572C33.3251 28.3572 33.3251 28.3573 33.3251 28.3573C33.3251 28.3573 33.3251 28.3573 33.3251 28.3573C33.3251 28.3573 33.3251 28.3573 33.3251 28.3573C33.3251 28.3573 33.3251 28.3573 33.3251 28.3573C33.3251 28.3573 33.3251 28.3573 33.3251 28.3573C33.3251 28.3573 33.3251 28.3573 33.3251 28.3573C33.3251 28.3573 33.3251 28.3573 33.3251 28.3573C33.3251 28.3573 33.3251 28.3573 33.3251 28.3573C33.3251 28.3573 33.3251 28.3573 33.3251 28.3573C33.3251 28.3573 33.3251 28.3573 33.3251 28.3573C33.3251 28.3573 33.3251 28.3573 33.3251 28.3573C33.3251 28.3573 33.3251 28.3573 33.3251 28.3573C33.3251 28.3573 33.3251 28.3573 33.3251 28.3573C33.3251 28.3573 33.3251 28.3573 33.3251 28.3573C33.3251 28.3573 33.3251 28.3573 33.3251 28.3573C33.3251 28.3573 33.3251 28.3573 33.3251 28.3573C33.3251 28.3573 33.3251 28.3573 33.3251 28.3573C33.3251 28.3573 33.3251 28.3573 33.3251 28.3573C33.3251 28.3573 33.3251 28.3573 33.3251 28.3573C33.3251 28.3573 33.3251 28.3573 33.3251 28.3573C33.3251 28.3573 33.3251 28.3573 33.3251 28.3573C33.3251 28.3573 33.3251 28.3573 33.3251 28.3573C33.3251 28.3573 33.3251 28.3573 33.3251 28.3573C33.3251 28.3573 33.3251 28.3573 33.3251 28.3573C33.3251 28.3573 33.3251 28.3573 33.3251 28.3573C33.3251 28.3573 33.3251 28.3573 33.3251 28.3573C33.3251 28.3573 33.3251 28.3573 33.3251 28.3573C33.3251 28.3573 33.3251 28.3573 33.3251 28.3573C33.3251 28.3573 33.3251 28.3573 33.3251 28.3573C33.3251 28.3573 33.3251 28.3573 33.3251 28.3573C33.3251 28.3573 33.3251 28.3573 33.3251 28.3573C33.3251 28.3573 33.3251 28.3573 33.3251 28.3573C33.3251 28.3573 33.3251 28.3573 33.3251 28.3573C33.3251 28.3573 33.3251 28.3573 33.3251 28.3573C33.3251 28.3573 33.3251 28.3573 33.3251 28.3573C33.3251 28.3573 33.3251 28.3573 33.3251 28.3573C33.3251 28.3573 33.3251 28.3573 33.3251 28.3573C33.3251 28.3573 33.3251 28.3573 33.3251 28.3573C33.3251 28.3573 33.3251 28.3573 33.3251 28.3573C33.3251 28.3573 33.3251 28.3573 33.3251 28.3573C33.3251 28.3573 33.3251 28.3573 33.3251 28.3573C33.3251 28.3573 33.3251 28.3573 33.3251 28.3573C33.3251 28.3573 33.3251 28.3573 33.3251 28.3573C33.3251 28.3573 33.3251 28.3573 33.3251 28.3573C33.3251 28.3573 33.3251 28.3573 33.3251 28.3573C33.3251 28.3573 33.3251 28.3573 33.3251 28.3573C33.3251 28.3573 33.3251 28.3573 33.3251 28.3573C33.3251 28.3573 33.3251 28.3573 33.3251 28.3573C33.3251 28.3573 33.3251 28.3573 33.3251 28.3573C33.3251 28.3573 33.3251 28.3573 33.3251 28.3573C33.3251 28.3573 33.3251 28.3573 33.3251 28.3573C33.3251 28.3573 33.3251 28.3573 33.3251 28.3573C33.3251 28.3573 33.3251 28.3573 33.3251 28.3573C33.3251 28.3573 33.3251 28.3573 33.3251 28.3574C33.3251 28.3574 33.3251 28.3574 33.3251 28.3574C33.3251 28.3574 33.3251 28.3574 33.3251 28.3574C33.3251 28.3574 33.3251 28.3574 33.3251 28.3574C33.3251 28.3574 33.3251 28.3574 33.3251 28.3574C33.3251 28.3574 33.3251 28.3574 33.3251 28.3574C33.3251 28.3574 33.3251 28.3574 33.3251 28.3574C33.3251 28.3574 33.3251 28.3574 33.3251 28.3574C33.3251 28.3574 33.3251 28.3574 33.3251 28.3574C33.3251 28.3574 33.3251 28.3574 33.3251 28.3574C33.3251 28.3574 33.3251 28.3574 33.3251 28.3574C33.3251 28.3574 33.3251 28.3574 33.3251 28.3574C33.3251 28.3574 33.3251 28.3574 33.3251 28.3574C33.3251 28.3574 33.3251 28.3574 33.3251 28.3574C33.3251 28.3574 33.3251 28.3574 33.3251 28.3574C33.3251 28.3574 33.3251 28.3574 33.3251 28.3574C33.3251 28.3574 33.3251 28.3574 33.3251 28.3574C33.3251 28.3574 33.3251 28.3574 33.3251 28.3574C33.3251 28.3574 33.3251 28.3574 33.3251 28.3574C33.3251 28.3574 33.3251 28.3574 33.3251 28.3574C33.3251 28.3574 33.3251 28.3574 33.3251 28.3574C33.3251 28.3574 33.3251 28.3574 33.3251 28.3574C33.3251 28.3574 33.3251 28.3574 33.3251 28.3574C33.3251 28.3574 33.3251 28.3574 33.3251 28.3574H34.3251ZM33.8251 27.8564H32.8251V28.8564H33.8251V27.8564ZM33.3251 28.3574C33.3251 28.3571 33.3251 28.3569 33.3251 28.3567C33.3251 28.3566 33.3251 28.3565 33.3251 28.3564H32.3251C32.3251 28.3567 32.3251 28.357 32.3251 28.3571C32.3251 28.3573 32.3251 28.3573 32.3251 28.3574H33.3251ZM31.5317 30.3593C32.4737 30.3593 33.3251 29.514 33.3251 28.3574H32.3251C32.3251 29.0271 31.8582 29.3593 31.5317 29.3593V30.3593ZM29.7383 28.3574C29.7383 29.514 30.5897 30.3593 31.5317 30.3593V29.3593C31.2053 29.3593 30.7383 29.0271 30.7383 28.3574H29.7383ZM29.7383 28.3564C29.7383 28.3565 29.7383 28.3566 29.7383 28.3567C29.7383 28.3569 29.7383 28.3571 29.7383 28.3574H30.7383C30.7383 28.3573 30.7383 28.3573 30.7383 28.3571C30.7383 28.357 30.7383 28.3567 30.7383 28.3564H29.7383ZM30.2383 27.8564H29.2383V28.8564H30.2383V27.8564Z" fill="#2F2F2F"/>
</g>
<defs>
<filter id="filter0_d_1500_1550" x="0" y="0" width="62" height="62" filterUnits="userSpaceOnUse" color-interpolation-filters="sRGB">
<feFlood flood-opacity="0" result="BackgroundImageFix"/>
<feColorMatrix in="SourceAlpha" type="matrix" values="0 0 0 0 0 0 0 0 0 0 0 0 0 0 0 0 0 0 127 0" result="hardAlpha"/>
<feOffset dy="4"/>
<feGaussianBlur stdDeviation="2"/>
<feComposite in2="hardAlpha" operator="out"/>
<feColorMatrix type="matrix" values="0 0 0 0 0 0 0 0 0 0 0 0 0 0 0 0 0 0 0.25 0"/>
<feBlend mode="normal" in2="BackgroundImageFix" result="effect1_dropShadow_1500_1550"/>
<feBlend mode="normal" in="SourceGraphic" in2="effect1_dropShadow_1500_1550" result="shape"/>
</filter>
</defs>
</svg>
