<svg width="115" height="121" viewBox="0 0 115 121" fill="none" xmlns="http://www.w3.org/2000/svg">
<path d="M41.1736 97.2682L51.9337 87.1392C51.9337 87.1392 46.7101 80.5646 42.555 74.5993C40.0782 71.045 33.6297 67.1509 33.8293 66.6008C34.4499 64.8911 54.3242 56.7631 60.8968 47.8368C66.4603 40.2751 60.1252 32.3413 60.1252 32.3413L42.7331 35.7392L43.1486 40.8415C42.4417 41.9741 27.9097 48.2252 19.6966 56.7685C17.3924 59.1632 16.2053 63.1543 17.1388 66.9136C19.6427 77.0102 41.1736 97.2736 41.1736 97.2736V97.2682Z" fill="#D3766A"/>
<path d="M47.1741 115.897C47.8756 115.422 61.7439 97.1331 61.8248 96.103C61.841 95.9412 59.1969 93.9348 56.0994 91.6533L47.7461 82.5977L38.1516 94.3339L47.1255 103.017C47.1255 103.017 45.0102 112.132 45.0318 113.276C45.0587 114.414 46.4726 116.372 47.1687 115.892L47.1741 115.897Z" fill="#D3766A"/>
<path d="M47.131 103.018C47.131 103.018 45.0157 112.133 45.0373 113.276C45.0696 114.414 46.4781 116.372 47.1742 115.892C47.8757 115.417 61.744 97.1335 61.8303 96.0979C61.8303 95.9253 59.1916 93.9297 56.0995 91.6537L52.8726 88.1587L43.6127 99.6199L47.1256 103.018H47.131Z" fill="#37474F"/>
<path d="M44.5462 100.52L44.7836 100.752L54.0058 89.3829L53.7738 89.1348L44.5462 100.52Z" fill="#FFC727"/>
<path d="M45.2801 101.232L45.5175 101.464L54.7019 90.1377L54.4753 89.895L45.2801 101.232Z" fill="#FFC727"/>
<path d="M47.104 115.968C47.8002 115.493 61.9167 97.1712 62.003 96.1465C62.0408 95.7582 59.2618 93.6655 55.9647 91.562L46.9476 103.12C46.9476 103.12 44.951 112.23 44.9725 113.368C44.9995 114.501 46.4025 116.453 47.0987 115.978L47.104 115.968Z" fill="#01D38C"/>
<path d="M46.5752 115.154C48.8147 112.047 58.1501 99.7227 60.6 96.821C60.6216 96.7995 60.6378 96.8103 60.6216 96.8372C58.4685 99.9655 49.0359 112.214 46.6292 115.191C46.5806 115.256 46.532 115.218 46.5806 115.154H46.5752Z" fill="#263238"/>
<path d="M45.21 111.69C45.728 110.946 46.6076 110.498 47.3415 110.428C48.043 110.364 48.874 110.482 49.4892 110.984C49.5053 111 49.4838 111.032 49.4622 111.022C48.1347 110.288 46.2622 110.579 45.2477 111.717C45.2261 111.739 45.1938 111.717 45.21 111.69Z" fill="#263238"/>
<path d="M46.532 104.301C47.444 103.066 48.9495 101.977 50.5252 101.977C50.5846 101.977 50.5846 102.063 50.5414 102.084C49.133 102.759 47.9135 103.487 46.6723 104.436C46.586 104.501 46.4727 104.387 46.5374 104.301H46.532Z" fill="#263238"/>
<path d="M46.1813 105.526C47.0932 104.291 48.5988 103.201 50.1745 103.201C50.2338 103.201 50.2338 103.287 50.1907 103.309C48.7822 103.983 47.5627 104.711 46.3216 105.661C46.2352 105.725 46.1219 105.612 46.1867 105.526H46.1813Z" fill="#263238"/>
<path d="M45.8359 106.745C46.7479 105.509 48.2534 104.42 49.8291 104.42C49.8885 104.42 49.8885 104.506 49.8453 104.528C48.4369 105.202 47.2174 105.93 45.9762 106.879C45.8899 106.944 45.7766 106.831 45.8413 106.745H45.8359Z" fill="#263238"/>
<path d="M45.4852 107.964C46.3972 106.729 47.9027 105.639 49.4784 105.639C49.5378 105.639 49.5378 105.725 49.4946 105.747C48.0862 106.421 46.8666 107.149 45.6255 108.099C45.5392 108.163 45.4258 108.05 45.4906 107.964H45.4852Z" fill="#263238"/>
<path d="M57.1086 95.3965C58.1501 94.032 60.2816 95.65 59.2348 97.0199C58.1933 98.3845 56.0618 96.7665 57.1086 95.3965Z" fill="#263238"/>
<path d="M42.269 103.153C42.2258 102.144 43.3212 101.745 44.1361 101.766C45.1829 101.799 46.3593 102.106 47.3468 102.597C47.4925 102.662 47.6274 102.737 47.7569 102.813C47.8109 102.851 47.8703 102.883 47.9242 102.91L47.9674 102.942C48.016 102.975 48.0591 103.002 48.1023 103.029C48.1293 103.045 48.1239 103.077 48.1023 103.093C48.1509 103.147 48.1671 103.239 48.1239 103.304C48.1077 103.336 48.0807 103.368 48.0375 103.385C47.6922 103.498 47.336 103.627 46.9799 103.751C46.9205 103.778 46.8612 103.794 46.7964 103.816C45.9276 104.123 45.0372 104.404 44.1253 104.409C43.3374 104.415 42.3067 104.102 42.2636 103.153H42.269ZM46.0032 103.622C46.3054 103.53 46.6075 103.433 46.9043 103.341C47.158 103.26 47.4116 103.185 47.6706 103.109C47.703 103.099 47.7461 103.088 47.7785 103.082C47.8109 103.077 47.8433 103.061 47.8757 103.055C47.8433 103.045 47.8163 103.034 47.7839 103.023C47.7839 103.023 47.7803 103.023 47.7731 103.023C47.5735 102.958 47.3738 102.894 47.1741 102.829C46.6345 102.656 46.1003 102.489 45.5391 102.371C45.1614 102.29 44.7674 102.214 44.3789 102.187C43.7745 102.149 41.8427 102.575 43.0838 103.703C43.7637 104.323 45.2639 103.848 46.0032 103.622Z" fill="#263238"/>
<path d="M47.8325 103.233C47.8325 103.233 47.784 103.233 47.7786 103.196C47.7732 103.152 47.7732 103.115 47.7786 103.077C47.7678 103.055 47.7678 103.039 47.7732 103.028C47.7732 103.023 47.7732 103.018 47.7732 103.018C47.7624 102.942 47.757 102.877 47.7624 102.807C47.7462 102.548 47.7516 102.29 47.7732 102.036C47.8379 101.022 48.1024 99.9649 48.5233 99.1074C48.8848 98.3684 49.7482 97.5918 50.617 98.1042C50.6494 98.1203 50.6764 98.1419 50.7033 98.1635C51.421 98.6651 51.2214 99.6737 50.8598 100.342C50.4767 101.038 49.9263 101.626 49.3435 102.182C48.9388 102.565 48.5179 102.931 48.1293 103.309C48.1293 103.309 48.1275 103.312 48.1239 103.32C48.0214 103.417 47.8811 103.347 47.8325 103.244V103.233ZM49.2841 101.615C49.8345 101.06 50.9516 99.9595 50.7249 99.0642C50.6548 98.7891 50.5576 98.6058 50.4443 98.4925C49.8993 97.9262 48.9873 99.0426 48.7769 99.5065C48.615 99.8624 48.5017 100.245 48.3884 100.618C48.3074 100.903 48.2373 101.189 48.1833 101.48C48.0862 101.955 48.0106 102.424 47.9243 102.904C47.9243 102.942 47.9081 102.969 47.9081 103.001C47.9243 102.974 47.9459 102.958 47.9674 102.937C48.016 102.877 48.0646 102.823 48.1185 102.77C48.4963 102.376 48.8956 102.004 49.2787 101.615H49.2841Z" fill="#263238"/>
<path d="M42.7331 35.7338C42.7331 35.7338 47.0717 45.5284 49.2841 47.9717C49.2841 47.9717 63.2226 77.8732 68.662 83.7629C73.864 89.3937 92.7076 102.834 92.7076 102.834L101.957 92.0959C101.957 92.0959 90.398 79.4427 80.0966 73.8443C78.5047 72.9813 67.5827 45.8736 67.5666 45.2426C67.3939 38.6787 60.1198 32.3359 60.1198 32.3359L42.7277 35.7338H42.7331Z" fill="#D3766A"/>
<path d="M95.2546 120.536C95.5946 120.536 101.617 120.827 102.135 120.369C107.358 115.693 114.368 104.075 114.519 103.46C114.622 103.072 108.524 97.9264 108.492 97.894C107.92 97.263 98.9079 89.437 98.9079 89.437L89.0598 99.6523L98.4492 108.163L98.6327 108.341C98.6327 108.341 98.1902 111.82 97.1055 115.002C96.9544 115.444 95.0172 117.348 94.8877 117.715C94.456 118.929 94.7906 120.536 95.26 120.536H95.2546Z" fill="#D3766A"/>
<path d="M95.2546 120.536C95.5945 120.536 101.617 120.827 102.135 120.369C107.358 115.692 114.368 104.08 114.519 103.46C114.616 103.072 108.519 97.9263 108.492 97.8939C108.259 97.6404 106.678 96.2273 104.86 94.6309L94.9524 104.992L98.4545 108.163L98.638 108.341C98.638 108.341 98.1955 111.82 97.1109 115.002C96.9598 115.444 95.0172 117.343 94.8876 117.715C94.4613 118.929 94.7905 120.536 95.2654 120.536H95.2546Z" fill="#37474F"/>
<path d="M95.9021 105.849L96.1504 106.076L106.204 95.8173C106.123 95.7418 106.042 95.6771 105.955 95.5962L95.9021 105.849ZM106.722 96.2758C106.803 96.3513 106.889 96.4214 106.97 96.4969L96.9058 106.761L96.6576 106.54L106.722 96.2812V96.2758Z" fill="#FFC727"/>
<path d="M95.0172 120.627C95.2114 120.757 101.838 120.811 102.275 120.417C106.457 116.641 114.908 104.058 114.999 103.303C115.048 102.91 112.085 100.229 108.815 97.9746L98.5409 108.357C98.5409 108.357 97.8934 112.688 97.0516 115.013C96.8627 115.541 94.9578 117.283 94.7797 117.666C94.2509 118.847 94.7366 120.439 95.0172 120.627Z" fill="#01D38C"/>
<path d="M95.519 117.159C96.4688 116.534 97.6829 116.388 98.5409 116.609C99.3665 116.82 100.252 117.289 100.71 118.103C100.721 118.125 100.678 118.157 100.662 118.136C99.5122 116.771 97.2458 116.34 95.5514 117.208C95.519 117.224 95.492 117.181 95.5244 117.159H95.519Z" fill="#263238"/>
<path d="M109.495 101.529C110.607 100.175 112.711 101.896 111.6 103.255C110.488 104.609 108.384 102.888 109.495 101.529Z" fill="#263238"/>
<path d="M93.8624 108.6C93.8192 107.576 94.9308 107.171 95.7673 107.193C96.8357 107.225 98.0283 107.538 99.032 108.039C99.1777 108.104 99.318 108.18 99.4475 108.255C99.5068 108.293 99.5662 108.325 99.6201 108.358L99.6633 108.39C99.7119 108.422 99.7551 108.449 99.7982 108.476C99.8252 108.498 99.8198 108.525 99.7982 108.541C99.8468 108.6 99.863 108.687 99.8198 108.757C99.8036 108.795 99.7766 108.822 99.7281 108.838C99.3773 108.956 99.0104 109.08 98.6488 109.21C98.5895 109.237 98.5301 109.253 98.4654 109.28C97.5804 109.593 96.6792 109.873 95.7457 109.879C94.9416 109.884 93.8947 109.566 93.8516 108.595L93.8624 108.6ZM97.6559 109.08C97.9635 108.989 98.2711 108.892 98.5733 108.795C98.8323 108.714 99.0913 108.633 99.3503 108.563C99.3881 108.552 99.4259 108.541 99.4583 108.536C99.4906 108.53 99.5284 108.514 99.5608 108.509C99.5284 108.498 99.496 108.487 99.4691 108.476C99.4691 108.476 99.4655 108.476 99.4583 108.476C99.2532 108.412 99.0535 108.347 98.8485 108.277C98.3035 108.099 97.7584 107.926 97.1864 107.813C96.8033 107.732 96.3986 107.657 96.0047 107.63C95.3895 107.592 93.4253 108.023 94.6826 109.172C95.3733 109.803 96.8951 109.323 97.6505 109.091L97.6559 109.08Z" fill="#263238"/>
<path d="M99.523 108.686C99.523 108.686 99.4744 108.686 99.4636 108.649C99.4582 108.605 99.4582 108.562 99.4636 108.525C99.4528 108.503 99.4528 108.487 99.4582 108.476C99.4582 108.471 99.4582 108.465 99.4582 108.465C99.442 108.39 99.442 108.325 99.4474 108.249C99.4312 107.985 99.4366 107.721 99.4636 107.462C99.5284 106.426 99.7982 105.353 100.23 104.479C100.597 103.73 101.476 102.942 102.361 103.46C102.394 103.476 102.421 103.498 102.453 103.525C103.182 104.037 102.977 105.062 102.615 105.741C102.226 106.448 101.665 107.047 101.072 107.613C100.662 108.001 100.235 108.374 99.8359 108.756C99.8359 108.756 99.8342 108.76 99.8306 108.767C99.728 108.864 99.5877 108.794 99.5338 108.692L99.523 108.686ZM101.002 107.041C101.563 106.48 102.701 105.359 102.469 104.452C102.394 104.172 102.302 103.989 102.189 103.87C101.633 103.293 100.705 104.431 100.494 104.9C100.327 105.261 100.214 105.65 100.095 106.027C100.009 106.319 99.9439 106.61 99.8845 106.906C99.782 107.386 99.7064 107.867 99.6201 108.352C99.6201 108.39 99.6039 108.422 99.6039 108.449C99.6255 108.422 99.6417 108.406 99.6687 108.384C99.7226 108.325 99.7712 108.271 99.8252 108.217C100.214 107.818 100.618 107.44 101.007 107.041H101.002Z" fill="#263238"/>
<path d="M97.9258 110.132C98.8539 108.875 100.386 107.77 101.989 107.77C102.054 107.77 102.048 107.856 102.005 107.877C100.575 108.562 99.3288 109.301 98.066 110.261C97.9743 110.331 97.861 110.213 97.9311 110.126L97.9258 110.132Z" fill="#263238"/>
<path d="M97.5695 111.378C98.4977 110.121 100.03 109.016 101.633 109.016C101.692 109.016 101.692 109.102 101.649 109.129C100.219 109.814 98.9726 110.553 97.7098 111.518C97.6181 111.588 97.5048 111.47 97.5749 111.383L97.5695 111.378Z" fill="#263238"/>
<path d="M97.2134 112.618C98.1416 111.362 99.6741 110.256 101.277 110.256C101.336 110.256 101.336 110.342 101.293 110.369C99.863 111.049 98.6164 111.788 97.3537 112.758C97.2674 112.829 97.1487 112.71 97.2188 112.618H97.2134Z" fill="#263238"/>
<path d="M96.8573 113.858C97.7855 112.602 99.318 111.496 100.921 111.496C100.98 111.496 100.98 111.582 100.937 111.609C99.5069 112.289 98.2604 113.028 96.9976 113.993C96.9059 114.063 96.7926 113.945 96.8627 113.858H96.8573Z" fill="#263238"/>
<path d="M94.9632 119.727C96.7493 119.495 98.5787 119.528 100.376 119.355C100.586 119.334 100.797 119.317 101.007 119.296C101.239 119.274 101.466 119.28 101.638 119.107C101.941 118.81 102.183 118.427 102.442 118.098C102.982 117.408 103.516 116.718 104.05 116.022C106.198 113.239 108.303 110.424 110.386 107.597C110.974 106.799 111.567 106.001 112.156 105.203C112.744 104.404 113.391 103.644 113.985 102.846C114.006 102.819 114.055 102.846 114.033 102.873C113.532 103.622 113.084 104.404 112.571 105.149C112.058 105.888 111.546 106.632 111.017 107.365C109.97 108.822 108.912 110.267 107.833 111.702C106.759 113.136 105.675 114.566 104.574 115.984C104.023 116.702 103.462 117.413 102.906 118.12C102.637 118.465 102.367 118.81 102.092 119.15C101.86 119.436 101.644 119.592 101.266 119.625C99.1885 119.824 97.0731 119.77 94.9902 119.873C94.9038 119.873 94.8877 119.733 94.974 119.722L94.9632 119.727Z" fill="#263238"/>
<path d="M42.7331 35.7338L60.1251 32.3359L64.0914 35.6314C64.0914 35.6314 71.5328 36.6885 72.9412 37.7456C75.9253 39.9947 76.2599 44.2825 75.2184 45.6956C73.8639 47.5348 69.3635 48.4247 65.6995 50.9489C61.0479 54.1526 56.9468 58.8288 53.6227 58.6562C47.9135 58.3596 43.5965 52.8636 40.9578 51.3534C38.319 49.8432 35.1676 47.6427 31.3902 47.729C30.651 47.7451 32.0648 45.3828 33.9696 44.4821C35.0381 43.9751 42.9543 40.6581 42.9543 40.6581L42.7331 35.7284V35.7338Z" fill="#01D38C"/>
<path d="M43.1486 40.5446C43.4238 40.5823 43.6883 40.6524 43.9635 40.701C44.2549 40.7495 44.5462 40.7981 44.8376 40.8466C45.4204 40.9491 46.0086 41.0354 46.6022 41.1055C47.7408 41.2403 48.8902 41.2943 50.0396 41.2835C52.36 41.2619 54.6911 40.9437 56.936 40.3504C58.2203 40.0106 59.5208 39.6115 60.7295 39.0614C60.7619 39.0452 60.7835 39.0937 60.7565 39.1099C59.6935 39.6385 58.6358 40.1401 57.5134 40.5284C56.4072 40.9113 55.2632 41.1972 54.1084 41.4075C51.7772 41.8282 49.3867 41.8714 47.0339 41.5747C46.3864 41.4938 45.7442 41.386 45.1075 41.2457C44.7729 41.1702 44.4437 41.0893 44.1146 40.9868C43.7908 40.8898 43.4508 40.7981 43.1432 40.6632C43.0839 40.6363 43.0839 40.5284 43.1648 40.5392L43.1486 40.5446Z" fill="#263238"/>
<path d="M43.1594 38.862C45.8791 38.5653 48.5988 38.3226 51.3239 38.1446C52.1009 38.0961 52.878 38.0529 53.6551 38.0044C53.6874 38.0044 53.682 38.0583 53.6551 38.0637C50.9408 38.4251 48.2211 38.7217 45.496 38.8512C44.7189 38.8889 43.9364 38.9051 43.1594 38.9213C43.127 38.9213 43.127 38.862 43.1594 38.862Z" fill="#263238"/>
<path d="M43.5695 37.7509C44.6434 37.5783 45.7388 37.492 46.8235 37.4057C47.9297 37.3195 49.0413 37.2601 50.1475 37.1738C50.1799 37.1738 50.1799 37.2224 50.1475 37.2278C49.0521 37.3356 47.9567 37.4813 46.8612 37.5891C45.7712 37.697 44.6704 37.8103 43.5803 37.8264C43.5371 37.8264 43.5318 37.7617 43.5749 37.7563L43.5695 37.7509Z" fill="#263238"/>
<path d="M46.8828 45.1617C48.2534 46.2727 49.392 47.6157 50.3957 49.0612C51.4804 50.6199 52.5003 52.2218 53.4986 53.8344C54.0922 54.7891 54.6857 55.7437 55.247 56.7145C55.2631 56.7469 55.22 56.7846 55.193 56.7523C54.0112 55.1936 52.8942 53.5863 51.7988 51.9683C50.7843 50.4635 49.8129 48.9263 48.7283 47.4755C48.1347 46.6826 47.5249 45.9168 46.818 45.2264C46.7749 45.1832 46.8396 45.1293 46.8828 45.1671V45.1617Z" fill="#263238"/>
<path d="M43.753 45.7168C44.8592 46.2993 45.9277 46.9627 46.9368 47.7016C47.4278 48.0576 47.9027 48.4405 48.3668 48.8288C48.6042 49.0284 48.8362 49.2279 49.0629 49.4383C49.2949 49.6594 49.5054 49.9021 49.7428 50.1179C49.7644 50.1394 49.732 50.1772 49.7104 50.161C49.2302 49.7835 48.7014 49.4491 48.2103 49.0877C47.7138 48.721 47.2066 48.365 46.7047 48.0036C45.6956 47.2809 44.6758 46.5797 43.6505 45.884C43.5425 45.8085 43.6397 45.6521 43.7584 45.7114L43.753 45.7168Z" fill="#263238"/>
<path d="M63.3035 34.957C64.3882 35.7553 65.4512 36.5859 66.5143 37.4218C67.0485 37.8371 67.5774 38.2632 68.1062 38.6893C68.3598 38.8943 68.6134 39.0938 68.8671 39.2988C69.1153 39.4983 69.4121 39.6979 69.6171 39.9514C69.6333 39.973 69.6171 40.0107 69.5847 39.9999C69.288 39.8813 69.0181 39.6601 68.7591 39.4822C68.4947 39.2988 68.2303 39.11 67.9659 38.9212C67.4101 38.5167 66.8543 38.1068 66.3092 37.6807C65.2462 36.8447 64.2101 35.9872 63.2226 35.0649C63.1686 35.011 63.2442 34.9139 63.3089 34.9624L63.3035 34.957Z" fill="#263238"/>
<path opacity="0.1" d="M32.9012 45.1722C37.7038 45.4905 42.1557 48.9962 45.7712 51.8602C48.4801 54.0014 50.617 55.6896 52.387 55.6896C55.2739 55.6896 58.4092 53.1762 61.4418 50.7491C62.8179 49.6488 64.113 48.6133 65.2732 47.9067C66.7463 47.0168 67.9659 46.5745 69.0397 46.1862C70.6154 45.6199 71.862 45.1669 72.6768 43.6297C73.7344 41.6233 71.6353 38.6623 69.6819 36.6559C68.8563 36.4671 67.9821 36.2946 67.1726 36.1489C68.063 36.8609 69.3149 38.0852 70.2755 39.4066C71.4302 40.9869 71.8727 42.3029 71.5004 43.0148C70.9284 44.0989 70.0488 44.4171 68.5864 44.9457C67.5072 45.334 66.1689 45.8195 64.5824 46.7795C63.3467 47.5292 62.0138 48.5917 60.6054 49.719C57.8857 51.8979 54.8045 54.3628 52.3816 54.3628C51.0703 54.3628 48.8956 52.6422 46.5914 50.8192C43.2727 48.198 39.2957 45.0536 34.833 44.1043C34.4283 44.2823 34.1207 44.4118 33.9642 44.4873C33.5865 44.6653 33.225 44.908 32.8958 45.1722H32.9012Z" fill="black"/>
<path d="M59.2132 8.27536L57.6861 8.63134L59.2078 8.60437C59.2078 8.80393 59.197 9.02506 59.1862 9.25159L57.0871 9.59677L59.143 9.96892C59.0783 10.8804 58.9434 11.9376 58.6898 13.0324L56.7255 13.0486L58.5603 13.5394C58.2958 14.5372 57.9289 15.5566 57.4217 16.5328L55.7866 15.9179L57.1518 17.0236C57.0871 17.1369 57.0169 17.2501 56.9468 17.358L54.5131 15.9018L56.6068 17.838C56.6068 17.838 56.5852 17.892 56.569 17.9135C55.5653 19.3051 54.1893 20.5024 52.2952 21.2629L51.3185 19.5855L51.9984 21.3762C50.6926 21.8616 49.4352 22.0935 48.2535 22.1528L47.4009 18.4097L47.5574 22.169C46.4188 22.1582 45.3611 21.991 44.4006 21.7321L44.4329 19.7581L43.985 21.6189C43.753 21.5488 43.5264 21.4732 43.3051 21.3977L43.8339 18.4367C43.6667 19.0839 43.127 20.3999 42.7871 21.1982C41.9291 20.853 41.1898 20.4593 40.5962 20.0979L41.751 17.7517L40.1321 19.8067C39.4792 19.3752 39.1986 19.1217 39.1986 19.1217C39.1986 19.1217 40.7257 16.9913 41.3733 15.055C42.0208 13.1187 39.4144 7.70366 40.2185 4.95837C41.6269 0.147368 45.6687 1.22607 45.6687 1.22607C49.9479 -0.0575857 52.5381 5.86987 54.2433 6.79215C55.9485 7.71444 59.1754 7.18588 59.1754 7.18588C59.1862 7.41241 59.2024 7.78995 59.2024 8.28615L59.2132 8.27536Z" fill="#263238"/>
<path d="M44.2602 19.192C39.5115 26.2467 33.4516 33.4524 30.9531 33.021C27.3646 32.4007 20.6787 27.7623 17.1981 24.9307C16.1782 24.1001 23.5063 16.7973 24.6017 17.6873C25.9238 18.7606 31.5305 23.5931 31.687 23.6579C32.027 23.7927 39.5979 17.4176 41.6106 16.1393C45.3071 13.7932 46.8396 15.3573 44.2602 19.1974V19.192Z" fill="#D3766A"/>
<path opacity="0.1" d="M29.9333 32.7619C30.2948 32.8752 30.6402 32.9615 30.9586 33.0154C33.457 33.4469 39.5224 26.2412 44.2657 19.1865C46.1436 16.3927 45.8468 14.8016 44.1092 15.0497L29.9333 32.7566V32.7619Z" fill="black"/>
<path d="M18.9573 26.004C17.9375 25.4485 11.6832 22.4443 10.631 21.3495C9.57869 20.2492 6.77266 16.8729 7.53353 15.9829C8.29439 15.093 9.19556 16.0153 9.19556 16.0153C9.19556 16.0153 8.12171 14.2624 9.08224 13.572C9.84851 13.0219 11.1868 14.2516 11.1868 14.2516C11.1868 14.2516 10.1129 12.2722 11.1544 11.7059C12.1041 11.1935 13.2104 12.8871 13.2104 12.8871C13.2104 12.8871 12.4765 11.1396 13.4856 10.8214C14.6997 10.4384 15.9678 13.4642 17.2251 14.5914C17.5111 14.8449 23.3715 19.3593 23.3715 19.3593L18.9681 26.0148L18.9573 26.004Z" fill="#D3766A"/>
<path d="M13.2481 12.7897C14.4299 14.9633 14.9803 15.8262 16.9338 17.18C16.9715 17.207 16.9392 17.2717 16.896 17.2447C14.867 16.0905 14.1385 15.1089 13.1348 12.8275C13.0863 12.7196 13.1888 12.6872 13.2427 12.7897H13.2481Z" fill="#263238"/>
<path d="M11.2084 14.246C12.3847 16.4681 13.2643 17.2987 15.2016 18.8736C15.2285 18.8952 15.1962 18.9437 15.1638 18.9222C13.1348 17.536 12.0124 16.6407 11.1274 14.2622C11.0896 14.1543 11.1544 14.1381 11.2084 14.2406V14.246Z" fill="#263238"/>
<path d="M9.28731 16.0906C10.5824 18.1617 11.4782 19.1757 13.5557 20.4594C13.6043 20.4917 13.5665 20.5619 13.5125 20.5403C11.2677 19.4346 10.1399 18.1779 9.22794 16.1392C9.16319 15.999 9.20636 15.9612 9.28731 16.0906Z" fill="#263238"/>
<path d="M25.8375 18.895C25.8375 18.895 23.7762 16.6675 22.848 15.6697C21.9199 14.6719 19.6912 11.5005 18.5256 11.603C17.2197 11.7217 18.2504 15.1034 19.8909 16.8886C19.8909 16.8886 17.8565 20.3189 19.3512 22.1095C20.846 23.9056 25.8375 18.8896 25.8375 18.8896V18.895Z" fill="#D3766A"/>
<path d="M19.9934 17.1371C19.157 18.4423 18.5958 20.411 19.2595 21.8133C19.2811 21.8564 19.2218 21.8888 19.2002 21.851C18.2882 20.4433 18.9088 18.1619 19.729 17.04C19.8855 16.8243 20.2093 16.8027 19.9934 17.1425V17.1371Z" fill="#263238"/>
<path d="M27.7208 20.0493C27.6776 19.8174 25.6918 18.0214 25.4382 18.1023C25.1846 18.1832 18.3098 25.5021 18.2396 26.0037C18.2126 26.1979 20.3333 28.0694 20.7003 28.064C21.1698 28.0533 27.8611 20.8098 27.7208 20.0493Z" fill="#FFC727"/>
<path d="M18.9357 26.7697C19.0166 26.8398 19.0976 26.9153 19.1839 26.9908L26.5228 18.8412C26.4418 18.7657 26.3555 18.6956 26.2691 18.6255L18.9357 26.7697Z" fill="#EBEBEB"/>
<path d="M19.6804 27.4059C19.7721 27.4814 19.8584 27.5461 19.9448 27.6162L27.2513 19.5044C27.1757 19.4289 27.0948 19.3534 27.0084 19.2725L19.6858 27.4059H19.6804Z" fill="#EBEBEB"/>
<path d="M41.2221 28.9865L42.7331 35.7338L60.1251 32.3359C60.1251 32.3359 55.4628 19.7798 49.0629 15.7886C45.8629 13.793 43.9958 14.5859 42.6683 16.9644C42.3338 17.5685 39.409 22.9781 39.3928 25.9554C39.382 27.2714 41.2275 28.9811 41.2275 28.9811L41.2221 28.9865Z" fill="#01D38C"/>
<path d="M48.1887 27.9994C47.2659 28.199 46.3378 28.4363 45.4474 28.8031C45.0049 28.9864 44.5732 29.1914 44.1469 29.4071C43.9311 29.515 43.7152 29.6121 43.4994 29.7092C43.2781 29.8117 43.0353 29.9087 42.7978 29.9357C42.7763 29.9357 42.7817 29.9788 42.7978 29.9735C43.0299 29.9627 43.2565 29.9465 43.4886 29.8979C43.7098 29.8494 43.9257 29.7739 44.1361 29.6876C44.584 29.5096 45.0265 29.3047 45.4744 29.1213C46.3755 28.7491 47.2821 28.377 48.2049 28.0857C48.248 28.0749 48.2264 27.9833 48.1833 27.994L48.1887 27.9994Z" fill="#263238"/>
<path d="M50.5954 28.7923C49.8183 28.7653 49.0305 28.7869 48.2534 28.8678C47.8649 28.9109 47.4818 28.9756 47.0986 29.0565C46.9152 29.0943 46.7317 29.1374 46.5536 29.1806C46.354 29.2291 46.1597 29.31 45.96 29.3586C45.9384 29.3586 45.9438 29.4017 45.96 29.3963C46.1489 29.3586 46.3486 29.364 46.5374 29.337C46.7317 29.3154 46.926 29.2885 47.1148 29.2669C47.5034 29.2184 47.8865 29.1806 48.275 29.1267C49.0467 29.0242 49.8183 28.9325 50.5954 28.8624C50.6386 28.8624 50.6278 28.7869 50.59 28.7869L50.5954 28.7923Z" fill="#263238"/>
<path d="M47.3631 15.4755C47.2768 15.8531 45.496 18.3071 43.7746 18.2316C43.2134 18.21 43.208 15.1465 43.208 15.1465L43.154 14.92L42.4256 11.754L46.1382 9.34312L46.6724 9.0249C46.6724 9.0249 46.8127 9.90404 46.98 10.9989C46.9854 11.0475 46.9961 11.1014 47.0015 11.1553C47.0123 11.2147 47.0231 11.274 47.0285 11.3333C47.0555 11.4951 47.0825 11.6623 47.1041 11.8295C47.1203 11.959 47.1419 12.0776 47.1527 12.2125C47.1688 12.3473 47.185 12.4767 47.2012 12.6116C47.3469 13.9384 47.3847 15.3083 47.3523 15.4701L47.3631 15.4755Z" fill="#D3766A"/>
<path d="M42.4255 11.754L42.8518 13.6147C44.9024 14.2997 46.6993 13.755 47.2929 13.5338C47.2713 13.2372 47.2443 12.9244 47.212 12.6169C47.1958 12.4821 47.1796 12.3527 47.1634 12.2232C47.1472 12.0884 47.131 11.9643 47.1148 11.8349C47.0933 11.6677 47.0663 11.5005 47.0393 11.3387C47.0285 11.2794 47.0177 11.22 47.0069 11.1607C46.9961 11.1068 46.9907 11.0528 46.9853 11.0043C46.818 9.90942 46.6777 9.03027 46.6777 9.03027L46.1381 9.34849L42.4255 11.7594V11.754Z" fill="#263238"/>
<path d="M50.9893 7.56317C50.644 13.2533 47.1958 13.6848 45.9709 13.6093C44.8592 13.5392 41.0711 13.1616 40.8283 7.47148C40.5854 1.77595 43.3375 0.141722 45.8953 0.163296C48.4531 0.18487 51.3347 1.87303 50.9893 7.56317Z" fill="#D3766A"/>
<path d="M50.0936 7.13756C49.9587 7.14835 49.8292 7.13756 49.6943 7.12678C49.5432 7.12678 49.4191 7.13217 49.2896 7.04048C49.2194 6.99194 49.2032 6.86789 49.241 6.79238C49.3381 6.62518 49.527 6.58203 49.7159 6.58203C49.9155 6.58203 50.072 6.63057 50.2285 6.75462C50.3796 6.87867 50.2771 7.12138 50.0936 7.13217V7.13756Z" fill="#263238"/>
<path d="M46.3108 6.04236C46.4296 6.10708 46.5537 6.15023 46.6778 6.19877C46.8181 6.2581 46.926 6.31742 47.0825 6.29046C47.1688 6.27428 47.2336 6.16641 47.2282 6.0855C47.2066 5.89134 47.0501 5.77807 46.8829 5.69717C46.6994 5.61088 46.5375 5.5947 46.3432 5.64324C46.1544 5.69178 46.149 5.95606 46.3055 6.04236H46.3108Z" fill="#263238"/>
<path d="M47.0016 7.49902C47.0016 7.49902 46.9692 7.50981 46.9638 7.52599C46.9098 7.91972 46.7857 8.35659 46.4134 8.4321C46.4026 8.4321 46.3972 8.45367 46.4134 8.45367C46.8559 8.46446 47.0123 7.87657 47.0016 7.49902Z" fill="#263238"/>
<path d="M46.721 7.03508C46.1004 6.88406 45.8468 8.13536 46.4188 8.27559C46.9854 8.41042 47.239 7.16453 46.721 7.03508Z" fill="#263238"/>
<path d="M46.4619 7.05124C46.3378 7.09979 46.2083 7.20226 46.0734 7.18608C45.9169 7.1699 45.8306 7.01349 45.755 6.86787C45.7496 6.85169 45.7335 6.86247 45.7281 6.87865C45.6741 7.11597 45.7173 7.38025 45.9655 7.47194C46.1921 7.55284 46.4026 7.37485 46.5159 7.14833C46.5375 7.10518 46.5159 7.02967 46.4619 7.05124Z" fill="#263238"/>
<path d="M49.1816 7.80569C49.1816 7.80569 49.2086 7.82726 49.2032 7.84344C49.1169 8.22638 49.0845 8.68482 49.4083 8.87899C49.4191 8.88438 49.4083 8.90596 49.4029 8.90056C48.9874 8.76033 49.0359 8.15087 49.1816 7.80029V7.80569Z" fill="#263238"/>
<path d="M49.6025 7.46638C50.2339 7.5365 50.045 8.79858 49.4568 8.73386C48.8794 8.66913 49.0683 7.40705 49.6025 7.46638Z" fill="#263238"/>
<path d="M49.8562 7.58494C49.9479 7.66584 50.0234 7.80068 50.1422 7.82765C50.2771 7.86001 50.4012 7.73596 50.5091 7.6173C50.5199 7.60651 50.5307 7.6173 50.5253 7.63348C50.4929 7.87619 50.3796 8.1135 50.1368 8.12429C49.9209 8.13508 49.7968 7.90316 49.7752 7.65506C49.7752 7.60651 49.813 7.54719 49.8508 7.57955L49.8562 7.58494Z" fill="#263238"/>
<path d="M46.3162 10.5949C46.3863 10.7081 46.4457 10.8538 46.5806 10.9023C46.7101 10.9455 46.8828 10.9239 47.0177 10.9077C47.0285 10.9077 47.0393 10.9239 47.0285 10.9293C46.8936 11.0533 46.6615 11.0911 46.4889 11.0156C46.3216 10.9401 46.273 10.7675 46.273 10.6003C46.273 10.5787 46.3054 10.5733 46.3162 10.5895V10.5949Z" fill="#263238"/>
<path d="M46.7965 9.62344C46.9746 9.97941 47.266 10.2005 47.6005 10.303C47.7516 10.3516 47.9081 10.3731 48.07 10.3785C48.1024 10.3785 48.1348 10.3785 48.1617 10.3785C48.1887 10.3785 48.2157 10.3785 48.2481 10.3785C48.2913 10.3785 48.3236 10.3408 48.3344 10.303C48.3344 10.303 48.3344 10.2761 48.3344 10.2599V10.2221C48.3776 9.92548 48.3992 9.47243 48.3992 9.47243C48.5017 9.53715 49.0251 9.84997 49.0305 9.69356C49.1007 8.40451 49.1816 6.97524 48.982 5.6808C48.982 5.63765 48.9118 5.63765 48.9118 5.6808C48.7931 6.91591 48.8956 8.1618 48.7985 9.40231C48.6312 9.31601 48.356 9.1596 48.2049 9.14342C48.1617 9.14882 48.1779 10.0172 48.1456 10.152C48.1456 10.152 48.1456 10.1574 48.1456 10.1682C47.6437 10.1736 47.2822 9.97941 46.8397 9.59108C46.8127 9.56411 46.7803 9.59108 46.8019 9.62344H46.7965Z" fill="#263238"/>
<path d="M47.784 10.2334C47.784 10.2334 47.5034 10.4815 47.185 10.5246C47.0663 10.5408 46.9476 10.53 46.8289 10.4707C46.5914 10.3521 46.6346 10.1147 46.7209 9.92597C46.7911 9.76956 46.899 9.64551 46.899 9.64551C46.899 9.64551 47.1958 10.0716 47.784 10.2334Z" fill="#263238"/>
<path d="M47.185 10.5245C47.0663 10.5406 46.9476 10.5299 46.8289 10.4705C46.5914 10.3519 46.6346 10.1146 46.7209 9.92578C46.9854 10.0121 47.2174 10.2548 47.185 10.5191V10.5245Z" fill="#FF9CBD"/>
<path d="M40.893 7.18585C41.5244 7.26136 43.4562 5.84826 44.0552 2.85487C44.0552 2.85487 43.3321 5.50308 43.0569 5.86444C42.7817 6.22041 44.1415 5.06621 44.6596 2.66071C44.6596 2.66071 45.8252 3.87424 46.9098 4.4028C47.9945 4.93137 48.696 5.05002 48.7931 4.9853C48.8902 4.91519 47.3037 4.0792 46.9476 3.46973C46.9476 3.46973 49.732 5.44375 51.1135 5.80511C51.2754 5.84826 51.5128 3.20545 49.6025 1.38784C47.6923 -0.424373 44.5463 -0.181666 43.4562 0.541062C43.4562 0.541062 42.6198 0.713654 41.5945 1.92719C40.294 3.47512 40.2185 7.09955 40.893 7.18585Z" fill="#263238"/>
<path d="M44.7783 2.36418C44.7783 2.29406 44.6758 2.27788 44.6704 2.35339C44.5679 3.51299 44.1793 4.47303 43.6343 5.49241C43.6289 5.50859 43.6505 5.51937 43.6613 5.50859C44.3089 4.53236 44.7729 3.55614 44.7783 2.36418Z" fill="#263238"/>
<path d="M48.3236 5.08791C46.7317 4.5971 45.4204 3.82583 44.5624 2.35341C44.5462 2.32105 44.4923 2.34262 44.5085 2.37498C45.1506 3.92831 46.7263 4.80745 48.3074 5.14724C48.3398 5.15263 48.356 5.0987 48.3236 5.08791Z" fill="#263238"/>
<path d="M42.091 5.04972C41.3895 5.51895 40.6556 6.12842 40.1861 6.57608C40.1861 6.57608 39.9379 5.41648 40.2185 4.72611C40.2185 4.72611 42.2529 2.95704 44.7459 2.13184L42.091 5.04972Z" fill="#01D38C"/>
<path d="M40.9416 5.91256C40.9416 5.91256 44.692 1.66788 46.5213 0.934366C48.356 0.20085 52.1496 0.314113 54.2271 1.92137C55.846 3.17267 51.2052 5.13051 51.2052 5.13051C51.2052 5.13051 51.0379 4.26215 50.5091 3.89C49.4892 3.16188 47.3091 3.16188 46.0194 3.40459C44.4006 3.71201 40.9362 5.91256 40.9362 5.91256H40.9416Z" fill="#FFC727"/>
<path opacity="0.2" d="M40.9416 5.91256C40.9416 5.91256 44.692 1.66788 46.5213 0.934366C48.356 0.20085 52.1496 0.314113 54.2271 1.92137C55.846 3.17267 51.2052 5.13051 51.2052 5.13051C51.2052 5.13051 51.0379 4.26215 50.5091 3.89C49.4892 3.16188 47.3091 3.16188 46.0194 3.40459C44.4006 3.71201 40.9362 5.91256 40.9362 5.91256H40.9416Z" fill="#01D38C"/>
<path d="M41.8967 7.91412C41.8967 7.91412 41.0225 5.92931 40.1429 6.20438C39.2634 6.48484 39.6843 9.19238 40.5423 9.72633C41.4057 10.2549 41.9129 9.46745 41.9129 9.46745L41.8967 7.91412Z" fill="#D3766A"/>
<path d="M40.2833 6.98096C40.2833 6.98096 40.2617 6.99714 40.2725 7.00253C40.8715 7.39626 41.0981 8.06505 41.2114 8.74463C41.0657 8.46417 40.8283 8.28079 40.4559 8.44799C40.4344 8.45878 40.4451 8.48574 40.4667 8.48574C40.7473 8.48574 40.9308 8.56665 41.0657 8.81475C41.1628 8.99273 41.2114 9.19768 41.2708 9.39185C41.2923 9.45657 41.4003 9.44579 41.3949 9.37567C41.3949 9.37567 41.3949 9.36488 41.3949 9.35949C41.5783 8.53428 41.1574 7.23984 40.2833 6.98096Z" fill="#263238"/>
<path d="M4.55481 2.95191C8.48327 0.0394256 16.1351 -0.791173 21.159 5.96688C24.7475 10.7941 24.9094 14.1866 24.8878 17.8865C24.8716 20.2542 23.9003 22.622 24.0514 23.3339C24.6719 26.2572 27.2783 31.2678 27.2783 31.2678L25.109 32.8804C25.109 32.8804 21.0565 28.9378 18.4393 27.4977C17.8025 27.1471 15.2501 27.3952 12.9783 26.7264C9.4276 25.6801 6.22763 24.5421 2.63914 19.7149C-2.38475 12.9568 0.620956 5.8698 4.54941 2.95731L4.55481 2.95191ZM20.8946 27.9292C22.2598 28.9486 25.1414 31.6885 25.1414 31.6885L26.1397 30.9496C26.1397 30.9496 24.3482 27.4006 23.7654 25.7988C23.5064 25.0976 22.9613 23.6521 22.9613 23.6521C22.4757 24.569 21.2939 25.4752 21.2939 25.4752C21.2939 25.4752 20.0905 26.3435 19.0707 26.5431C19.0707 26.5431 20.2956 27.4815 20.8946 27.9346V27.9292ZM20.4629 24.3587C24.2402 21.5541 25.4328 13.7227 20.4413 7.00243C15.4498 0.287527 8.25121 1.79771 5.31567 3.97668C2.36933 6.16644 -1.1436 12.6009 3.84791 19.3212C8.83942 26.0361 16.6855 27.1579 20.4629 24.3587Z" fill="#263238"/>
<path d="M15.6332 2.99512L15.6764 3.04905C15.6764 3.04905 15.6278 3.02208 15.6062 3.01669L15.6386 2.99512H15.6332ZM1.41416 13.5502C1.41416 13.5502 1.41416 13.5933 1.42495 13.6149L1.39257 13.5718L1.41957 13.5556L1.41416 13.5502Z" fill="#263238"/>
<path d="M25.0588 32.9022L27.3115 31.23L27.9743 32.122L25.7216 33.7941L25.0588 32.9022Z" fill="#FFC727"/>
<path opacity="0.5" d="M25.0588 32.9022L27.3115 31.23L27.9743 32.122L25.7216 33.7941L25.0588 32.9022Z" fill="white"/>
<path d="M25.4715 33.976L28.2137 31.9404L36.1092 42.5662L33.3669 44.6018L25.4715 33.976Z" fill="#FFC727"/>
<path opacity="0.3" d="M25.4867 33.9802L25.6162 34.1528L29.2911 33.3761L29.086 33.1011L25.7296 33.8022L25.4867 33.9802Z" fill="white"/>
<path opacity="0.3" d="M26.9977 36.0136L30.6779 35.237L30.4675 34.9619L26.7926 35.7332L26.9977 36.0136Z" fill="white"/>
<path opacity="0.3" d="M28.3792 37.8745L32.0594 37.0978L31.8543 36.8228L28.1741 37.594L28.3792 37.8745Z" fill="white"/>
<path opacity="0.3" d="M29.7606 39.7353L33.4408 38.9587L33.2357 38.6836L29.5555 39.4549L29.7606 39.7353Z" fill="white"/>
<path opacity="0.3" d="M31.1474 41.5962L34.8276 40.8195L34.6172 40.5444L30.937 41.3157L31.1474 41.5962Z" fill="white"/>
<path opacity="0.3" d="M32.3238 43.1765L32.5288 43.457L35.8853 42.7505L36.1281 42.5725L35.9986 42.4053L32.3238 43.1765Z" fill="white"/>
<path d="M15.2015 2.84912L23.5387 14.0676C23.5009 13.868 23.4631 13.6685 23.42 13.4689L15.6332 2.99475L15.6008 3.01632C15.4659 2.95699 15.331 2.90306 15.1961 2.84912H15.2015Z" fill="#263238"/>
<path d="M11.5591 2.13723L23.6196 18.3663C23.6412 18.2422 23.652 18.1128 23.6682 17.9887L11.899 2.14802C11.7857 2.14262 11.6724 2.13723 11.5591 2.13184V2.13723Z" fill="#263238"/>
<path d="M8.69368 2.46655L22.7617 21.3977C22.8048 21.306 22.8426 21.2143 22.8804 21.1227L8.96889 2.40723C8.87176 2.42341 8.78002 2.44498 8.68828 2.47195L8.69368 2.46655Z" fill="#263238"/>
<path d="M6.26539 3.38333L21.2993 23.6143C21.3586 23.5496 21.4234 23.4849 21.4774 23.4148L6.50282 3.25928C6.42188 3.29703 6.34094 3.34018 6.26539 3.38333Z" fill="#263238"/>
<path d="M4.28497 4.90459L19.2649 25.0655C19.3458 25.0277 19.4268 24.99 19.5023 24.9468L4.46844 4.71582C4.40908 4.78054 4.34433 4.84526 4.28497 4.90459Z" fill="#263238"/>
<path d="M2.74706 7.01326L16.6639 25.7395C16.7665 25.7287 16.8636 25.7179 16.9661 25.7017L2.89275 6.75977C2.84419 6.84067 2.79562 6.92157 2.75245 7.00787L2.74706 7.01326Z" fill="#263238"/>
<path d="M1.657 9.74209L13.437 25.5936C13.5611 25.6205 13.6852 25.6421 13.8147 25.6583L1.74334 9.41309C1.71636 9.52096 1.68398 9.62883 1.6624 9.74209H1.657Z" fill="#263238"/>
<path d="M1.39262 13.5659L9.18477 24.0509C9.36285 24.148 9.54092 24.245 9.71899 24.3313L1.37103 13.0967C1.38182 13.2477 1.39802 13.3933 1.41961 13.5443L1.39262 13.5605V13.5659Z" fill="#263238"/>
<path d="M3.12477 6.39277L8.25659 2.58496C7.98138 2.66586 7.71157 2.75216 7.45794 2.85464L3.61045 5.70779C3.44316 5.92353 3.28126 6.15006 3.12477 6.39277Z" fill="#263238"/>
<path d="M1.45194 10.7347L12.8919 2.23993C12.7624 2.22375 12.6383 2.20756 12.5142 2.19678L1.5167 10.3571C1.48971 10.4812 1.46813 10.6052 1.45194 10.7347Z" fill="#263238"/>
<path d="M1.45735 13.8463L15.8815 3.14025C15.8167 3.10789 15.7466 3.08092 15.6818 3.04856L15.6386 2.99463L1.39259 13.5713L1.42497 13.6144C1.43576 13.6899 1.44655 13.7708 1.45735 13.8463Z" fill="#263238"/>
<path d="M2.18044 16.419L18.1371 4.57491C18.0669 4.51559 17.9968 4.46165 17.9266 4.40771L2.08331 16.1709C2.11568 16.2572 2.14806 16.3381 2.18584 16.4244L2.18044 16.419Z" fill="#263238"/>
<path d="M3.3676 18.6471L19.9232 6.35534C19.8693 6.28523 19.8153 6.22051 19.7559 6.15039L3.22729 18.4206C3.27585 18.4961 3.32442 18.5662 3.3676 18.6417V18.6471Z" fill="#263238"/>
<path d="M4.72745 20.421C4.78681 20.4858 4.84078 20.5505 4.90553 20.6152L21.3748 8.38815C21.3316 8.31264 21.2831 8.23713 21.2399 8.16162L4.73285 20.4156L4.72745 20.421Z" fill="#263238"/>
<path d="M6.51902 22.2014C6.58917 22.2607 6.65392 22.32 6.72407 22.374L22.5242 10.6431C22.4919 10.5568 22.4541 10.4759 22.4163 10.395L6.51902 22.2014Z" fill="#263238"/>
<path d="M8.63437 23.7326C8.71532 23.7812 8.79625 23.8297 8.8772 23.8783L23.3445 13.1398C23.3229 13.0481 23.3013 12.9564 23.2743 12.8647L8.63437 23.7326Z" fill="#263238"/>
<path d="M11.1652 24.9679C11.2677 25.0003 11.3648 25.038 11.4674 25.0704L23.7438 15.9608C23.7438 15.8529 23.733 15.7504 23.733 15.6426L11.1706 24.9679H11.1652Z" fill="#263238"/>
<path d="M14.3327 25.7227C14.4622 25.7389 14.5918 25.7497 14.7213 25.7605L23.4578 19.2775C23.4847 19.1534 23.5117 19.024 23.5387 18.8892L14.3327 25.7227Z" fill="#263238"/>
<path d="M19.7074 24.8438C19.9718 24.6981 20.2254 24.5363 20.4628 24.3637C20.7003 24.1912 20.9269 23.9916 21.1428 23.7812L19.7074 24.8438Z" fill="#263238"/>
<path d="M48.5556 21.0148C49.3489 22.1798 51.0163 23.005 52.074 22.8108C52.9374 22.6544 53.2773 21.6782 52.8402 20.497C52.0955 18.4852 49.3381 15.6428 48.1887 15.7939C46.8666 15.9718 47.2443 19.0731 48.5556 21.0094V21.0148Z" fill="#D3766A"/>
<path d="M50.3688 19.2403C52.02 27.5841 52.8457 36.958 50.7735 38.425C47.8002 40.5285 39.7922 41.9901 35.3295 42.4485C34.0182 42.5834 34.0236 32.2387 35.4212 32.093C37.1157 31.9151 44.4977 31.3541 44.6542 31.2894C44.9888 31.1438 45.8144 21.2845 46.327 18.9545C47.2714 14.6774 49.4622 14.7044 50.3634 19.2403H50.3688Z" fill="#D3766A"/>
<path d="M22.2598 32.4598C21.8605 33.4738 22.7347 34.1858 22.7347 34.1858C22.7347 34.1858 22.017 34.682 21.8605 35.5072C21.677 36.451 23.0746 37.1468 23.0746 37.1468C23.0746 37.1468 22.4541 37.7994 22.3731 38.6839C22.2868 39.6008 23.5981 40.5123 23.5981 40.5123C23.5981 40.5123 23.3553 41.44 23.8301 42.2544C24.6504 43.6513 27.1164 43.7215 28.6867 43.7808C30.257 43.8401 34.7629 42.5403 35.6479 42.3839L36.1227 32.3196C36.1227 32.3196 29.1616 30.0489 27.3053 30.2377C25.7404 30.3995 22.7131 31.3218 22.2598 32.4598Z" fill="#D3766A"/>
<path d="M22.8103 34.0296C24.4291 33.4579 26.1343 33.3986 27.8287 33.2422C27.8665 33.2422 27.8719 33.2961 27.8287 33.3015C26.1397 33.4363 24.5047 33.9056 22.8264 34.1051C22.7779 34.1105 22.7671 34.0404 22.8103 34.0242V34.0296Z" fill="#263238"/>
<path d="M23.1124 37.0176C23.4848 36.8989 23.8895 36.9043 24.278 36.8881C24.6935 36.872 25.109 36.8612 25.5245 36.8558C26.3556 36.8504 27.1866 36.8558 28.0176 36.8935C28.0554 36.8935 28.0608 36.9529 28.0176 36.9529C27.192 36.9636 26.3609 36.9852 25.5353 37.0284C25.1198 37.0499 24.7097 37.0769 24.2942 37.1039C23.9111 37.1308 23.5063 37.1902 23.1232 37.1308C23.0638 37.1201 23.0585 37.0338 23.1124 37.0176Z" fill="#263238"/>
<path d="M23.6305 40.5072C23.9488 40.3939 24.3482 40.4424 24.6827 40.4478C25.0605 40.4478 25.4382 40.4532 25.8213 40.4532C26.5768 40.4532 27.3377 40.4532 28.0931 40.4263C28.1309 40.4263 28.1363 40.4856 28.0931 40.4856C27.3269 40.518 26.5552 40.5557 25.7889 40.5773C25.4112 40.5881 25.0335 40.5989 24.6558 40.6043C24.332 40.6096 23.9327 40.6528 23.6251 40.5395C23.6089 40.5341 23.6089 40.5072 23.6251 40.5018L23.6305 40.5072Z" fill="#263238"/>
<path d="M50.8922 20.7453C50.8868 20.8801 50.8814 21.015 50.876 21.1498C50.7627 20.508 50.698 20.3893 50.5307 19.7529C50.5307 19.7367 50.5037 19.7421 50.5037 19.7529C50.59 20.4918 50.6062 20.7021 50.7303 21.4357C50.7897 21.7808 50.8652 22.0667 50.9354 22.4119C51.0163 22.8002 51.0649 22.7355 51.0217 22.3579C50.984 22.0343 51.0002 21.8617 50.9462 21.5381C50.957 21.4411 50.9732 21.344 50.9732 21.2415C50.9786 21.0797 50.984 20.9179 50.9732 20.7507C50.9624 20.4217 50.903 20.4163 50.8868 20.7399L50.8922 20.7453Z" fill="#263238"/>
<path d="M33.9319 31.6403C32.5612 31.1225 31.1582 30.7288 29.7336 30.3998C28.3306 30.0114 26.7333 29.9144 25.4004 30.6371C26.8358 30.238 28.2173 30.3998 29.6419 30.7935C31.0665 31.1063 32.4857 31.4245 33.9265 31.6403H33.9319Z" fill="#263238"/>
</svg>
