<svg width="261" height="228" viewBox="0 0 261 228" fill="none" xmlns="http://www.w3.org/2000/svg">
<path d="M223.86 195.171L199.593 201.964C199.593 201.964 179.192 183.437 171.595 166.206C168.911 160.119 129.727 123.027 120.455 112.919C108.254 99.6115 121.936 83.0859 121.936 83.0859L155.346 89.6262L154.544 99.4431C155.895 101.625 174.401 125.034 192.247 150.412C209.253 174.592 223.853 195.164 223.853 195.164L223.86 195.171Z" fill="#D3766A"/>
<path d="M257.677 227.432C256.138 227.956 212.033 228.002 210.352 226.933C210.08 226.771 210.08 220.38 210.171 212.979L192.247 194.31L222.89 193.986L237.994 212.409C237.994 212.409 254.424 219.745 256.144 221.112C257.851 222.478 259.222 226.914 257.677 227.425V227.432Z" fill="#D3766A"/>
<path d="M257.683 227.438C256.144 227.956 212.04 228.002 210.358 226.94C210.093 226.771 210.087 220.386 210.177 212.985L206.233 208.873L205.619 208.238L204.811 207.396L204.196 206.755L202.722 205.221L230.229 202.948L231.548 204.554L232.078 205.201L232.776 206.05L233.3 206.691L237.994 212.415C237.994 212.415 254.424 219.752 256.144 221.125C257.858 222.484 259.222 226.92 257.683 227.438Z" fill="#EBEBEB"/>
<path d="M233.3 206.691L206.233 208.873L205.619 208.239L232.776 206.05L233.3 206.691Z" fill="#FFC727"/>
<path d="M232.078 205.201L204.811 207.396L204.196 206.755L231.548 204.554L232.078 205.201Z" fill="#FFC727"/>
<path d="M257.871 227.412C256.338 227.93 211.891 228.312 210.216 227.257C209.576 226.862 209.589 220.166 210.184 212.667L238.35 212.253C238.35 212.253 254.625 219.765 256.338 221.124C258.045 222.484 259.41 226.901 257.871 227.412Z" fill="#01D38C"/>
<path d="M257.237 225.651C249.879 225.483 220.174 225.489 212.88 225.878C212.822 225.878 212.822 225.923 212.88 225.923C220.174 226.254 249.879 226.001 257.237 225.768C257.392 225.768 257.392 225.651 257.237 225.645V225.651Z" fill="#263238"/>
<path d="M253.506 219.545C251.76 219.474 250.053 220.309 249.103 221.351C248.191 222.355 247.409 223.76 247.46 225.289C247.46 225.334 247.544 225.334 247.551 225.289C247.965 222.4 250.583 219.869 253.5 219.635C253.558 219.635 253.558 219.545 253.5 219.545H253.506Z" fill="#263238"/>
<path d="M240.652 212.985C237.703 212.946 234.289 213.995 232.466 216.41C232.395 216.501 232.53 216.605 232.614 216.559C235.278 215.18 237.807 214.151 240.703 213.348C240.91 213.289 240.865 212.985 240.652 212.985Z" fill="#263238"/>
<path d="M242.928 213.872C239.979 213.833 236.565 214.882 234.742 217.298C234.671 217.388 234.806 217.492 234.89 217.447C237.554 216.067 240.083 215.038 242.979 214.235C243.186 214.176 243.141 213.872 242.928 213.872Z" fill="#263238"/>
<path d="M245.204 214.753C242.255 214.714 238.841 215.763 237.018 218.178C236.947 218.269 237.082 218.372 237.167 218.327C239.831 216.948 242.359 215.918 245.255 215.115C245.462 215.057 245.417 214.753 245.204 214.753Z" fill="#263238"/>
<path d="M247.48 215.64C244.531 215.601 241.117 216.65 239.294 219.065C239.223 219.156 239.358 219.26 239.443 219.214C242.107 217.835 244.635 216.805 247.532 216.002C247.738 215.944 247.693 215.64 247.48 215.64Z" fill="#263238"/>
<path d="M214.749 218.877C211.445 218.89 211.458 224.038 214.768 224.019C218.072 224.006 218.06 218.858 214.749 218.877Z" fill="#263238"/>
<path d="M243.833 205.111C242.339 203.874 240.458 205.091 239.54 206.367C238.376 208.012 237.483 210.168 237.089 212.253C237.024 212.551 236.979 212.842 236.94 213.134C236.934 213.263 236.914 213.393 236.895 213.509C236.908 213.516 236.895 213.522 236.895 213.522V213.619C236.888 213.73 236.876 213.827 236.869 213.924C236.869 213.982 236.921 214.014 236.966 214.001C236.998 214.137 237.115 214.267 237.263 214.286C237.335 214.306 237.412 214.293 237.49 214.248C238.065 213.846 238.673 213.451 239.281 213.05C239.391 212.991 239.488 212.92 239.591 212.849C241.072 211.871 242.527 210.835 243.6 209.436C244.525 208.238 245.236 206.289 243.826 205.117L243.833 205.111ZM240.225 211.379C239.734 211.735 239.236 212.085 238.751 212.434C238.33 212.732 237.917 213.03 237.509 213.341C237.451 213.38 237.393 213.432 237.341 213.47C237.289 213.509 237.231 213.548 237.186 213.587C237.205 213.529 237.225 213.47 237.244 213.412C237.244 213.412 237.246 213.406 237.251 213.393C237.386 213.004 237.522 212.629 237.645 212.247C238.001 211.217 238.363 210.2 238.841 209.21C239.158 208.536 239.501 207.843 239.908 207.222C240.548 206.25 243.439 203.783 243.736 206.995C243.898 208.756 241.434 210.505 240.231 211.379H240.225Z" fill="#263238"/>
<path d="M237.509 213.749C237.548 213.717 237.554 213.671 237.516 213.619C237.458 213.561 237.399 213.509 237.335 213.471C237.315 213.432 237.283 213.412 237.264 213.399C237.251 213.393 237.251 213.38 237.244 213.393C237.147 213.283 237.044 213.205 236.934 213.127C236.559 212.804 236.151 212.512 235.738 212.253C234.102 211.172 232.181 210.349 230.371 210C228.825 209.695 226.633 210.123 226.401 212.046C226.394 212.117 226.394 212.182 226.394 212.253C226.33 213.937 228.108 214.804 229.55 215.025C231.056 215.251 232.602 215.089 234.128 214.837C235.181 214.662 236.229 214.442 237.264 214.28C237.264 214.28 237.27 214.28 237.283 214.28C237.548 214.241 237.606 213.943 237.503 213.749H237.509ZM233.352 214.099C231.864 214.299 228.877 214.74 227.771 213.347C227.435 212.914 227.261 212.564 227.222 212.26C226.983 210.764 229.757 210.66 230.707 210.88C231.438 211.042 232.155 211.314 232.86 211.573C233.39 211.774 233.908 212.007 234.418 212.26C235.259 212.655 236.067 213.095 236.901 213.509H236.914C236.966 213.548 237.024 213.568 237.07 213.594C237.011 213.594 236.96 213.607 236.901 213.613C236.753 213.626 236.617 213.632 236.468 213.658C235.427 213.788 234.393 213.963 233.352 214.099Z" fill="#263238"/>
<path d="M155.346 89.6262C155.346 89.6262 147.011 108.483 142.756 113.184C142.756 113.184 109.049 166.53 95.5869 174.035C82.1959 181.501 49.9693 198.357 49.9693 198.357L37.3994 180.251C37.3994 180.251 58.5562 158.137 76.2601 153.592C79.6353 152.724 107.601 109.143 107.627 107.926C107.956 95.2988 121.929 83.0859 121.929 83.0859L155.339 89.6262H155.346Z" fill="#D3766A"/>
<path d="M0.0453186 225.917C0.0582506 224.291 14.4192 182.53 15.9775 181.287C16.2362 181.073 25.1981 184.726 29.5044 185.781L42.0355 177.007L49.9758 198.357L20.6589 212.188C20.6589 212.188 8.36706 225.34 6.51132 226.525C4.66851 227.697 0.0323867 227.542 0.0517848 225.917H0.0453186Z" fill="#D3766A"/>
<path d="M37.8132 204.094L20.6524 212.189C20.6524 212.189 8.36057 225.347 6.50482 226.525C4.66201 227.704 0.0258897 227.548 0.0452877 225.917C0.0582197 224.291 14.4192 182.531 15.9775 181.287C16.2297 181.08 25.198 184.732 29.5044 185.781L33.1189 183.249L37.8132 204.094Z" fill="#EBEBEB"/>
<path d="M36.5847 204.677L35.9769 204.962L31.5024 184.383L32.0779 183.975L36.5847 204.677Z" fill="#FFC727"/>
<path d="M35.188 205.331L34.5867 205.616L30.1769 185.309L30.7459 184.914L35.188 205.331Z" fill="#FFC727"/>
<path d="M0.00649326 226.104C0.0194253 224.485 14.18 182.291 15.7253 181.047C16.3073 180.575 22.6246 182.776 29.5044 185.781L20.6912 212.577C20.6912 212.577 8.28298 225.528 6.44017 226.706C4.60382 227.878 -0.0129049 227.723 2.71124e-05 226.104H0.00649326Z" fill="#01D38C"/>
<path d="M1.8687 226.078C4.43571 219.169 14.1282 191.045 16.1392 184.019C16.1586 183.961 16.1198 183.948 16.0939 184.007C13.4041 190.799 3.93136 219 1.75232 226.039C1.70705 226.188 1.81051 226.227 1.8687 226.078Z" fill="#263238"/>
<path d="M8.85846 224.543C9.49213 222.912 9.26581 221.027 8.59335 219.79C7.94675 218.599 6.87339 217.401 5.41208 216.954C5.37328 216.941 5.34095 217.019 5.38621 217.038C7.97261 218.372 9.51152 221.681 8.7744 224.518C8.76147 224.576 8.83906 224.602 8.85846 224.55V224.543Z" fill="#263238"/>
<path d="M19.2428 214.519C20.2386 211.741 20.3679 208.167 18.6868 205.648C18.6221 205.551 18.4863 205.648 18.4993 205.745C18.9325 208.717 19.0747 211.443 18.8872 214.448C18.8743 214.662 19.1782 214.72 19.2493 214.519H19.2428Z" fill="#263238"/>
<path d="M17.6652 216.384C18.6609 213.606 18.7902 210.032 17.1091 207.513C17.0444 207.416 16.9086 207.513 16.9216 207.61C17.3548 210.582 17.497 213.308 17.3095 216.313C17.2966 216.527 17.6005 216.585 17.6716 216.384H17.6652Z" fill="#263238"/>
<path d="M16.0874 218.249C17.0832 215.471 17.2125 211.897 15.5314 209.378C15.4667 209.281 15.3309 209.378 15.3438 209.475C15.7771 212.447 15.9193 215.173 15.7318 218.178C15.7189 218.392 16.0228 218.45 16.0939 218.249H16.0874Z" fill="#263238"/>
<path d="M14.5097 220.114C15.5055 217.336 15.6348 213.761 13.9537 211.242C13.889 211.145 13.7532 211.242 13.7662 211.34C14.1994 214.312 14.3416 217.038 14.1541 220.043C14.1412 220.256 14.4451 220.315 14.5162 220.114H14.5097Z" fill="#263238"/>
<path d="M22.1461 188.073C23.213 184.939 18.3505 183.275 17.2837 186.415C16.2168 189.55 21.0792 191.214 22.1461 188.073Z" fill="#263238"/>
<path d="M25.6377 220.101C27.293 219.091 26.7628 216.915 25.8511 215.627C24.6808 213.982 22.9349 212.441 21.0986 211.385C20.84 211.223 20.5748 211.087 20.3162 210.958C20.1998 210.906 20.0834 210.848 19.98 210.789C19.967 210.789 19.9735 210.789 19.9735 210.789L19.883 210.757C19.786 210.712 19.6955 210.673 19.605 210.634C19.5468 210.615 19.508 210.653 19.5015 210.705C19.3592 210.692 19.2041 210.764 19.1394 210.893C19.1006 210.951 19.0812 211.029 19.1071 211.12C19.2946 211.8 19.4756 212.499 19.6502 213.205C19.6696 213.328 19.7084 213.444 19.7343 213.567C20.174 215.283 20.6783 217.006 21.6482 218.476C22.4823 219.745 24.0859 221.053 25.6507 220.101H25.6377ZM20.8982 214.636C20.7171 214.053 20.5555 213.47 20.3809 212.894C20.2386 212.395 20.0899 211.91 19.9283 211.424C19.9089 211.353 19.883 211.282 19.8636 211.223C19.8442 211.165 19.8248 211.094 19.7989 211.035C19.8507 211.074 19.8959 211.113 19.9476 211.146C19.9476 211.146 19.952 211.15 19.9606 211.159C20.2774 211.411 20.5942 211.664 20.9111 211.903C21.7646 212.577 22.6052 213.257 23.3876 214.027C23.9178 214.552 24.4609 215.096 24.92 215.685C25.6248 216.611 27.015 220.153 23.8854 219.382C22.1655 218.962 21.3249 216.054 20.8917 214.629L20.8982 214.636Z" fill="#263238"/>
<path d="M19.5532 211.295C19.5661 211.34 19.6114 211.366 19.6696 211.346C19.7472 211.307 19.8119 211.269 19.8636 211.223C19.9088 211.223 19.9347 211.197 19.9476 211.178C19.9606 211.178 19.967 211.178 19.9606 211.165C20.0964 211.107 20.1998 211.036 20.3097 210.958C20.7365 210.705 21.1439 210.42 21.5318 210.11C23.0837 208.918 24.4868 207.364 25.4049 205.771C26.1938 204.405 26.5106 202.19 24.7713 201.348C24.7066 201.316 24.642 201.296 24.5773 201.27C23.0061 200.662 21.6094 202.06 20.9305 203.349C20.2257 204.702 19.8765 206.218 19.6114 207.739C19.4368 208.795 19.2946 209.857 19.1135 210.887C19.1135 210.887 19.1135 210.893 19.1135 210.906C19.0683 211.171 19.3269 211.32 19.5468 211.288L19.5532 211.295ZM20.5813 207.241C20.8787 205.771 21.4413 202.799 23.1095 202.209C23.6268 202.028 24.0148 201.983 24.3187 202.041C25.8058 202.306 24.9976 204.961 24.4868 205.79C24.0988 206.431 23.6074 207.021 23.1289 207.603C22.7668 208.044 22.3789 208.452 21.9715 208.86C21.3249 209.527 20.646 210.148 19.98 210.802H19.967C19.9218 210.848 19.883 210.893 19.8442 210.932C19.8636 210.874 19.87 210.828 19.8765 210.764C19.9153 210.621 19.9476 210.485 19.98 210.343C20.1998 209.313 20.3679 208.283 20.5813 207.247V207.241Z" fill="#263238"/>
<path d="M155.346 89.6262L121.936 83.0859L114.319 89.432C114.319 89.432 103.928 91.4264 99.0398 94.9556C91.8561 100.142 93.3432 106.521 95.3412 109.241C101.251 117.277 123.009 134.359 134.422 133.763C145.388 133.187 153.678 122.613 158.753 119.705C163.823 116.798 172.306 120.761 172.397 120.268C172.668 118.87 171.86 116.312 170.095 113.1C168.995 111.106 155.74 98.7438 155.74 98.7438L155.346 89.6262Z" fill="#01D38C"/>
<path d="M155.572 98.6144C155.048 98.6856 154.531 98.8216 154.014 98.9122C153.458 99.0094 152.895 99.0936 152.339 99.1972C151.214 99.3979 150.082 99.5663 148.951 99.6958C146.759 99.9548 144.554 100.058 142.349 100.033C137.888 99.9872 133.413 99.3785 129.1 98.2388C126.637 97.5847 124.141 96.8206 121.813 95.7651C121.755 95.7392 121.703 95.8234 121.761 95.8558C123.805 96.8789 125.835 97.8373 127.995 98.5885C130.122 99.3267 132.314 99.8771 134.532 100.279C139.013 101.082 143.603 101.172 148.123 100.602C149.365 100.447 150.606 100.24 151.828 99.9742C152.468 99.8318 153.102 99.6764 153.729 99.4821C154.356 99.2878 155.003 99.1195 155.598 98.8604C155.708 98.8086 155.708 98.6014 155.559 98.6208L155.572 98.6144Z" fill="#263238"/>
<path d="M155.643 95.6419C150.419 95.0655 145.194 94.6058 139.957 94.2626C138.463 94.1654 136.969 94.0877 135.476 93.9971C135.418 93.9971 135.418 94.1007 135.476 94.1072C140.694 94.8065 145.912 95.3699 151.156 95.6289C152.649 95.7001 154.15 95.7325 155.643 95.7649C155.708 95.7649 155.701 95.6548 155.643 95.6483V95.6419Z" fill="#263238"/>
<path d="M153.742 93.5049C151.68 93.1682 149.572 93.0063 147.49 92.8379C145.362 92.6696 143.228 92.5595 141.101 92.3911C141.036 92.3911 141.043 92.4882 141.101 92.4947C143.209 92.7084 145.304 92.9804 147.412 93.1876C149.5 93.3948 151.615 93.6085 153.716 93.6474C153.794 93.6474 153.813 93.5179 153.729 93.5049H153.742Z" fill="#263238"/>
<path d="M147.38 107.771C144.748 109.914 142.556 112.498 140.629 115.276C138.547 118.274 136.588 121.356 134.667 124.458C133.529 126.297 132.385 128.13 131.312 130.008C131.279 130.066 131.37 130.137 131.415 130.079C133.685 127.081 135.831 123.985 137.933 120.871C139.886 117.976 141.748 115.017 143.83 112.219C144.968 110.691 146.138 109.221 147.502 107.887C147.587 107.809 147.464 107.699 147.38 107.771Z" fill="#263238"/>
<path d="M153.393 108.839C151.266 109.966 149.222 111.241 147.276 112.66C146.332 113.346 145.42 114.078 144.528 114.835C144.076 115.217 143.623 115.599 143.196 116.007C142.75 116.435 142.343 116.901 141.89 117.322C141.851 117.361 141.909 117.439 141.955 117.4C142.873 116.674 143.888 116.033 144.838 115.334C145.795 114.628 146.765 113.942 147.729 113.249C149.669 111.863 151.621 110.503 153.6 109.169C153.807 109.027 153.619 108.722 153.393 108.839Z" fill="#263238"/>
<path d="M115.832 88.1302C113.743 89.6713 111.707 91.2708 109.663 92.8703C108.642 93.6732 107.627 94.4891 106.611 95.3051C106.12 95.6936 105.635 96.0886 105.15 96.4836C104.672 96.8721 104.103 97.2477 103.715 97.7334C103.682 97.7722 103.715 97.8499 103.773 97.8305C104.342 97.6039 104.866 97.1765 105.364 96.8268C105.874 96.4707 106.379 96.108 106.883 95.7454C107.956 94.9683 109.023 94.1783 110.064 93.3624C112.101 91.7565 114.099 90.0987 115.994 88.3244C116.097 88.2273 115.948 88.0395 115.832 88.1237V88.1302Z" fill="#263238"/>
<path d="M159.225 54.5738C165.09 59.2298 192.228 84.698 197.659 89.6C200.912 92.5334 189.648 105.744 186.861 104.61C185.141 103.911 155.113 65.6664 152.274 57.8699C149.216 49.4711 155.63 51.7246 159.225 54.5803V54.5738Z" fill="#D3766A"/>
<path d="M183.382 99.6952C182.813 97.4999 194.62 88.4083 196.87 89.0041C197.291 89.1141 198.028 89.5027 198.933 90.079C198.933 90.079 204.002 91.1475 208.535 90.5388C212.344 90.0337 217.943 88.8486 218.292 90.8884C218.81 93.8607 211.91 96.2178 207.869 97.3251C209.473 98.944 210.701 100.492 211.083 101.657C212.363 105.523 195.868 113.436 192.396 111.189C189.053 109.02 183.951 101.897 183.382 99.7016V99.6952Z" fill="#D3766A"/>
<path d="M257.373 65.2585C252.937 57.9476 241.091 51.5627 228.522 59.2168C219.54 64.6821 217.044 70.0827 214.645 76.092C213.119 79.9385 213.132 84.4261 212.421 85.4751C209.492 89.8007 201.979 96.218 201.979 96.218L204.429 100.259C204.429 100.259 213.572 96.5353 218.758 95.9201C220.019 95.7712 223.982 97.8498 228.101 98.2578C234.535 98.8924 240.464 99.1579 249.445 93.6925C262.015 86.0385 261.815 72.5693 257.373 65.2585ZM214.51 95.0071C211.632 95.7647 205.166 98.3096 205.166 98.3096L204.041 96.4511C204.041 96.4511 209.279 91.8729 211.27 89.6648C212.15 88.6934 213.979 86.7184 213.979 86.7184C214.161 88.5251 215.48 90.7656 215.48 90.7656C215.48 90.7656 216.857 92.9608 218.376 93.958C218.376 93.958 215.777 94.6768 214.516 95.0135L214.51 95.0071ZM217.555 89.5029C213.288 82.4704 216.508 68.9819 229 61.3796C241.492 53.7709 252.148 60.9717 255.465 66.4305C258.795 71.9218 260.244 84.6721 247.751 92.2744C235.259 99.8767 221.823 96.5353 217.555 89.5093V89.5029Z" fill="#263238"/>
<path d="M239.417 58.0317L239.313 58.0965C239.365 58.0965 239.41 58.09 239.456 58.0965L239.423 58.0382L239.417 58.0317ZM255.485 84.5102C255.485 84.5102 255.452 84.575 255.427 84.6073L255.511 84.5555L255.485 84.5102Z" fill="#263238"/>
<path d="M204.465 100.333L201.919 96.1387L200.262 97.1476L202.807 101.342L204.465 100.333Z" fill="#FFC727"/>
<path opacity="0.5" d="M204.465 100.333L201.919 96.1387L200.262 97.1476L202.807 101.342L204.465 100.333Z" fill="white"/>
<path d="M203.085 101.801L199.985 96.6934L180.221 108.724L183.32 113.831L203.085 101.801Z" fill="#FFC727"/>
<path opacity="0.3" d="M203.097 101.793L202.774 101.987L197.336 98.3094L197.853 97.9985L202.826 101.346L203.097 101.793Z" fill="white"/>
<path opacity="0.3" d="M199.315 104.092L193.87 100.42L194.387 100.103L199.832 103.781L199.315 104.092Z" fill="white"/>
<path opacity="0.3" d="M195.855 106.203L190.411 102.525L190.928 102.208L196.373 105.886L195.855 106.203Z" fill="white"/>
<path opacity="0.3" d="M192.396 108.308L186.952 104.63L187.469 104.319L192.913 107.99L192.396 108.308Z" fill="white"/>
<path opacity="0.3" d="M188.93 110.419L183.486 106.741L184.003 106.423L189.447 110.101L188.93 110.419Z" fill="white"/>
<path opacity="0.3" d="M185.988 112.206L185.471 112.523L180.499 109.169L180.227 108.722L180.544 108.528L185.988 112.206Z" fill="white"/>
<path d="M240.212 58.0837L219.346 70.7822C219.534 70.4778 219.728 70.1864 219.928 69.8886L239.417 58.0254L239.449 58.0837C239.708 58.0772 239.96 58.0772 240.212 58.0837Z" fill="#263238"/>
<path d="M246.575 59.3207L216.378 77.6983C216.424 77.4846 216.488 77.2644 216.553 77.0572L246.012 59.1265C246.2 59.1912 246.387 59.256 246.568 59.3272L246.575 59.3207Z" fill="#263238"/>
<path d="M250.997 61.7489L215.783 83.1829C215.783 83.0081 215.771 82.8333 215.771 82.6519L250.59 61.4575C250.732 61.5482 250.868 61.6453 251.004 61.7424L250.997 61.7489Z" fill="#263238"/>
<path d="M254.321 64.8376L216.689 87.7416C216.631 87.5991 216.579 87.4502 216.527 87.3012L254.017 64.4814C254.12 64.598 254.224 64.7146 254.321 64.8376Z" fill="#263238"/>
<path d="M256.526 68.5999L219.029 91.4261C218.926 91.3096 218.816 91.1995 218.719 91.0764L256.351 68.166C256.409 68.3085 256.468 68.4509 256.526 68.5999Z" fill="#263238"/>
<path d="M257.631 73.0357L222.799 94.2366C222.644 94.1524 222.489 94.0683 222.334 93.9841L257.567 72.5371C257.593 72.699 257.619 72.8674 257.631 73.0357Z" fill="#263238"/>
<path d="M257.599 78.1772L228.114 96.1209C227.894 96.082 227.674 96.0367 227.461 95.9784L257.677 77.5879C257.651 77.7822 257.625 77.9764 257.599 78.1772Z" fill="#263238"/>
<path d="M255.511 84.5557L236.009 96.4254C235.654 96.4707 235.304 96.5031 234.955 96.529L255.853 83.811C255.737 84.0442 255.614 84.2773 255.485 84.5104L255.511 84.5557Z" fill="#263238"/>
<path d="M257.431 71.7794L251.638 62.228C252.032 62.5389 252.407 62.8626 252.756 63.1864L257.101 70.3483C257.231 70.8081 257.341 71.2873 257.431 71.7794Z" fill="#263238"/>
<path d="M257.276 79.9191L244.35 58.6211C244.57 58.6729 244.784 58.7312 244.99 58.7959L257.418 79.2716C257.379 79.4917 257.328 79.7054 257.276 79.9256V79.9191Z" fill="#263238"/>
<path d="M255.226 84.97L238.925 58.1094C239.048 58.1094 239.184 58.103 239.313 58.0965L239.417 58.0317L255.511 84.5555L255.427 84.6073C255.362 84.7239 255.291 84.8469 255.226 84.97Z" fill="#263238"/>
<path d="M252.362 88.6612L234.328 58.9514C234.477 58.9061 234.632 58.8608 234.781 58.8154L252.685 88.318C252.575 88.4345 252.465 88.5511 252.355 88.6612H252.362Z" fill="#263238"/>
<path d="M248.98 91.4841L230.274 60.6606C230.41 60.5894 230.539 60.5117 230.681 60.4404L249.361 91.2186C249.239 91.3093 249.109 91.3935 248.986 91.4841H248.98Z" fill="#263238"/>
<path d="M245.611 93.4723C245.475 93.5435 245.34 93.6083 245.197 93.673L226.588 63.0114C226.711 62.9142 226.834 62.8236 226.957 62.7329L245.611 93.4658V93.4723Z" fill="#263238"/>
<path d="M241.538 95.1755C241.389 95.2208 241.24 95.2791 241.091 95.3179L223.239 65.8996C223.349 65.783 223.465 65.6794 223.575 65.5693L241.544 95.1755H241.538Z" fill="#263238"/>
<path d="M237.102 96.2698C236.94 96.2957 236.779 96.3216 236.611 96.3475L220.264 69.4093C220.361 69.2733 220.458 69.1373 220.555 69.0078L237.102 96.2698Z" fill="#263238"/>
<path d="M232.201 96.5999C232.013 96.5935 231.832 96.587 231.645 96.574L217.775 73.7219C217.846 73.547 217.93 73.3852 218.008 73.2168L232.201 96.6064V96.5999Z" fill="#263238"/>
<path d="M226.575 95.7516C226.362 95.6868 226.142 95.6221 225.922 95.5573L216.049 79.2908C216.087 79.0706 216.126 78.844 216.171 78.6108L226.575 95.7516Z" fill="#263238"/>
<path d="M218.46 90.7851C218.124 90.3707 217.82 89.9498 217.555 89.5094C217.29 89.0691 217.051 88.6029 216.837 88.1172L218.46 90.7851Z" fill="#263238"/>
<path d="M207.927 96.1017C205.813 96.037 206.944 98.5624 206.944 98.5624C206.944 98.5624 204.442 95.3117 202.237 96.0888C200.116 96.8399 201.584 99.851 201.688 100.065C201.552 99.8964 199.179 96.9694 197.045 97.9731C194.827 99.0222 196.825 101.787 196.954 101.962C196.78 101.839 194.413 100.272 192.965 101.405C190.476 103.354 196.418 107.531 196.754 110.069C196.754 110.069 192.525 111.131 192.409 111.19C192.409 111.19 197.983 115.276 201.377 114.635C203.168 114.298 203.201 112.556 203.201 112.556C203.201 112.556 204.849 114.071 206.557 113.333C207.429 112.951 207.598 111.209 207.598 111.209C207.598 111.209 208.968 112.368 210.449 111.617C211.632 111.021 211.613 109.37 211.613 109.37C211.613 109.37 213.449 109.869 214.451 108.871C216.488 106.858 212.447 96.2507 207.927 96.1017Z" fill="#D3766A"/>
<path d="M211.93 108.768C211.943 108.807 211.994 108.794 211.988 108.755C211.509 104.941 209.815 100.9 207.184 98.0766C207.1 97.9859 206.912 98.0831 206.983 98.2061C209.143 101.638 210.792 104.85 211.93 108.761V108.768Z" fill="#263238"/>
<path d="M207.921 110.911C207.934 110.957 208.005 110.931 207.998 110.885C207.481 106.961 205.451 102.461 202.03 99.5661C201.914 99.4689 201.707 99.4948 201.836 99.6179C203.964 101.716 206.912 107.382 207.921 110.911Z" fill="#263238"/>
<path d="M196.929 101.502C200.103 104.403 202.024 108.036 203.466 112.051C203.485 112.103 203.556 112.07 203.55 112.025C203.382 109.869 202.192 107.408 201.112 105.569C200.071 103.808 198.784 102.428 197.026 101.392C196.954 101.353 196.857 101.444 196.922 101.502H196.929Z" fill="#263238"/>
<path d="M207.242 98.1543C207.138 98.0442 207.093 98.3162 206.983 98.2126C206.531 97.7593 203.582 95.2662 202.418 96.0109C201.487 96.6067 201.649 98.2709 201.959 98.886L202.742 100.434L201.468 99.2551C200.912 98.7371 200.252 98.2709 199.567 97.9665C198.881 97.6622 198.112 97.5391 197.498 97.8305C196.845 98.1219 196.476 98.7177 196.586 99.4106C196.67 100.103 197.058 100.822 197.498 101.411L198.739 103.05L197.039 101.917C196.579 101.606 196.049 101.34 195.519 101.159C194.989 100.984 194.426 100.893 193.941 101.029C193.469 101.165 193.062 101.56 192.991 102.027C192.913 102.519 193.114 103.082 193.353 103.6C193.857 104.649 194.601 105.608 195.28 106.592C195.629 107.084 195.978 107.576 196.301 108.088C196.612 108.599 196.948 109.13 197.026 109.739C196.89 109.15 196.508 108.664 196.166 108.185C195.804 107.706 195.422 107.246 195.041 106.78C194.271 105.854 193.515 104.915 192.907 103.827C192.629 103.276 192.344 102.674 192.415 101.949C192.493 101.204 193.088 100.621 193.754 100.421C194.439 100.22 195.112 100.343 195.713 100.524C196.321 100.725 196.877 100.991 197.42 101.347L196.961 101.845C196.431 101.159 195.998 100.414 195.855 99.4947C195.791 99.0414 195.868 98.5234 196.127 98.096C196.392 97.6686 196.773 97.3837 197.2 97.1894C198.086 96.8009 199.056 97.0081 199.819 97.3643C200.601 97.7269 201.274 98.219 201.888 98.8148L201.397 99.1839C201.028 98.3874 200.647 96.5484 201.972 95.4411C203.912 94.256 206.75 97.5262 207.223 98.1608L207.242 98.1543Z" fill="#263238"/>
<path d="M207.229 98.2189C207.138 97.7656 207.087 97.3188 207.132 96.9238C207.177 96.5288 207.384 96.2245 207.682 96.0949C207.979 95.9525 208.399 95.9913 208.813 96.069C209.227 96.1597 209.66 96.2763 210.106 96.4123C209.783 96.0755 209.395 95.81 208.949 95.6287C208.509 95.4539 207.985 95.3373 207.436 95.5575C207.177 95.687 206.957 95.8813 206.822 96.1338C206.692 96.3863 206.647 96.6648 206.666 96.9173C206.699 97.4289 206.925 97.8692 207.223 98.2254L207.229 98.2189Z" fill="#263238"/>
<path d="M155.643 22.8441C155.313 22.4814 154.919 22.1771 154.466 21.9634C152.436 21.005 150.121 21.672 148.24 22.6368C146.229 23.6729 144.321 25.2465 142.026 25.5767C141.127 25.7062 140.177 25.6221 139.407 25.117C138.541 24.5471 138.204 23.5628 138.062 22.5786C137.907 21.5489 137.959 20.2862 137.163 19.4897C136.51 18.8292 135.476 18.7127 134.596 18.8616C132.314 19.2501 130.853 21.4648 128.99 22.6563C127.005 23.9319 124.658 24.573 122.298 24.5018C120.093 24.437 117.933 23.6729 116.136 22.4037C115.257 21.7885 114.448 21.0374 113.789 20.202C113.045 19.2566 112.521 18.1687 111.823 17.1909C111.17 16.2843 110.258 15.3972 109.094 15.2677C108.196 15.1706 105.189 16.6081 103.327 20.2409C103.191 20.4999 102.732 20.2409 102.771 19.9301C102.842 19.3278 102.945 18.7321 103.088 18.1493C104.251 13.2667 107.737 9.1483 112.392 7.26393C114.882 6.26022 117.565 5.91054 120.229 6.18899C121.703 6.3444 123.184 6.62932 124.671 6.53219C125.997 6.44801 127.219 5.98177 128.35 5.30831C130.503 4.01968 132.32 2.22596 134.7 1.31291C136.821 0.503469 139.142 0.296253 141.386 0.587652C146.08 1.22225 150.212 3.98083 152.785 7.9309C155.32 11.8356 155.818 23.0254 155.63 22.8246L155.643 22.8441Z" fill="#263238"/>
<path d="M155.54 22.7273C154.809 22.0927 153.994 21.5164 153.037 21.2703C152.184 21.0437 151.279 21.089 150.425 21.3092C148.505 21.7948 146.959 23.0057 145.395 24.1584C143.927 25.2398 142.31 26.3083 140.422 26.3536C139.627 26.373 138.78 26.2176 138.094 25.7967C137.312 25.3175 136.872 24.5469 136.646 23.6727C136.232 22.0862 136.219 19.9558 134.506 19.1334C132.851 18.3434 131.001 19.5672 129.65 20.435C126.365 22.5654 122.414 25.8096 118.231 24.2361C116.11 23.4396 114.254 21.7301 112.787 20.0464C111.726 18.829 110.401 17.2878 108.642 17.3397C108.577 17.3397 108.59 17.4433 108.655 17.4368C110.517 17.4044 111.577 19.1917 112.612 20.4738C113.821 21.9826 115.302 23.3813 116.996 24.3268C118.742 25.2981 120.694 25.4535 122.615 24.9549C124.568 24.4498 126.288 23.3943 127.943 22.2675C128.79 21.6912 129.624 21.0955 130.49 20.545C131.266 20.0464 132.113 19.5608 133.051 19.4442C134.047 19.3212 134.868 19.8133 135.321 20.694C135.767 21.5552 135.844 22.5266 136.064 23.459C136.258 24.2944 136.562 25.0973 137.189 25.6996C137.687 26.1852 138.321 26.509 138.993 26.6838C140.532 27.0853 142.136 26.7421 143.519 26.0104C145.479 24.9678 147.03 23.3101 149.009 22.3064C150.018 21.7948 151.156 21.4192 152.3 21.5099C153.503 21.6006 154.434 22.2546 155.404 22.9086C155.533 22.9993 155.663 22.8179 155.546 22.7143L155.54 22.7273Z" fill="#263238"/>
<path d="M153.083 5.89099C150.561 1.86321 145.783 -0.215442 141.133 0.0176776C138.528 0.147188 136.025 0.982533 133.775 2.28412C131.674 3.49504 129.689 5.02326 127.354 5.76795C124.768 6.58387 122.188 5.83918 119.595 5.4895C117.494 5.20458 115.373 5.37942 113.343 6.00107C109.45 7.19257 106.062 9.97705 104.174 13.5969C103.935 14.0566 103.715 14.5293 103.521 15.0085C103.495 15.0668 103.592 15.1057 103.618 15.0474C105.183 11.2527 108.506 8.35169 112.315 6.94002C114.19 6.24714 116.194 5.91689 118.192 6.02697C120.662 6.16296 123.061 7.03068 125.55 6.83641C127.885 6.6551 129.954 5.42475 131.887 4.20087C133.995 2.86044 136.09 1.5459 138.554 0.969582C143.131 -0.0988812 148.169 1.1509 151.402 4.66063C155.01 8.57833 155.507 14.1084 155.359 19.1853C155.339 19.8652 155.313 20.5451 155.288 21.225C155.288 21.3028 155.404 21.3157 155.41 21.238C155.818 16.077 155.934 10.4498 153.089 5.89746L153.083 5.89099Z" fill="#263238"/>
<path d="M158.385 22.1898C158.314 21.3868 157.622 20.4285 157.092 20.3443C156.561 20.2601 152.921 22.3452 152.708 23.3683C152.494 24.3915 154.292 25.0585 154.292 25.0585L158.385 22.1898Z" fill="#FFC727"/>
<path d="M157.693 79.4984L155.352 89.6261L121.942 83.0858C121.942 83.0858 131.273 57.0347 144.282 50.6434C150.794 47.4445 156.025 49.9052 158.1 54.723C158.624 55.9404 161.909 68.872 160.971 74.5251C160.131 79.5113 157.693 79.4984 157.693 79.4984Z" fill="#D3766A"/>
<path d="M161.262 74.0134C160.422 78.993 157.57 80.0097 157.57 80.0097L155.346 89.6259L119.692 80.7932C121.128 75.1207 134.325 55.4415 144.276 50.6432C145.453 50.0798 146.571 49.6783 147.638 49.4517C147.212 54.1982 150.309 59.1455 152.882 59.6571C155.055 60.091 158.23 56.6654 157.641 53.8032C157.809 54.0946 157.964 54.399 158.094 54.7163C158.618 55.9401 162.2 68.3537 161.262 74.0134Z" fill="#455A64"/>
<path d="M145.395 74.7644C147.127 75.3278 148.847 75.9689 150.47 76.8366C151.279 77.2705 152.061 77.7432 152.843 78.2418C153.231 78.4879 153.626 78.721 154.02 78.9541C154.428 79.1872 154.867 79.4203 155.32 79.5304C155.359 79.5369 155.346 79.6146 155.307 79.6081C154.861 79.5369 154.434 79.4657 154.001 79.3232C153.593 79.1872 153.193 78.9994 152.805 78.7987C151.977 78.3713 151.175 77.8921 150.354 77.4518C148.699 76.5646 147.043 75.6775 145.33 74.9393C145.252 74.9069 145.304 74.7385 145.388 74.7644H145.395Z" fill="#263238"/>
<path d="M140.642 75.8137C142.136 75.9173 143.636 76.1051 145.097 76.4159C145.834 76.5713 146.552 76.7721 147.27 76.9987C147.612 77.1088 147.955 77.2254 148.291 77.3484C148.666 77.4844 149.022 77.6786 149.391 77.8017C149.429 77.8146 149.416 77.8923 149.378 77.8794C149.022 77.7758 148.641 77.7369 148.278 77.6527C147.916 77.5686 147.548 77.4844 147.186 77.4067C146.455 77.2448 145.724 77.0894 144.994 76.9145C143.532 76.5713 142.078 76.2411 140.61 75.9562C140.532 75.9432 140.564 75.8072 140.642 75.8137Z" fill="#263238"/>
<path d="M150.037 50.1705C150.063 50.9152 152.546 56.1927 155.824 56.6784C156.891 56.8338 158.003 51.0447 158.003 51.0447L158.184 50.6367L160.693 44.9124L154.557 39.0196L153.658 38.2231C153.658 38.2231 153.076 39.8356 152.371 41.8494C152.339 41.9401 152.307 42.0372 152.268 42.1344C152.223 42.2445 152.184 42.3545 152.145 42.4581C152.035 42.756 151.925 43.0668 151.822 43.3712C151.744 43.6043 151.66 43.831 151.589 44.077C151.505 44.3231 151.434 44.5627 151.35 44.8152C150.6 47.2695 150.031 49.8532 150.044 50.1705H150.037Z" fill="#D3766A"/>
<path d="M152.365 41.8494C153.147 46.9522 156.561 49.6395 158.184 50.6367L160.693 44.9124L154.557 39.0196L153.658 38.2231C153.658 38.2231 153.076 39.8356 152.371 41.8494H152.365Z" fill="#263238"/>
<path d="M170.909 37.1353C169.112 47.9559 162.432 48.0984 160.105 47.7098C157.99 47.3537 150.832 45.8773 151.511 34.9271C152.184 23.977 157.777 21.3933 162.659 21.9502C167.541 22.5071 172.713 26.3147 170.916 37.1353H170.909Z" fill="#D3766A"/>
<path d="M169.286 36.1511C169.021 36.1446 168.782 36.0928 168.523 36.0539C168.232 36.0151 167.993 36.0086 167.76 35.8079C167.638 35.6978 167.625 35.4517 167.722 35.3222C167.942 35.0179 168.317 34.979 168.672 35.0114C169.06 35.0502 169.345 35.1733 169.616 35.4452C169.881 35.7107 169.636 36.1576 169.286 36.1446V36.1511Z" fill="#263238"/>
<path d="M162.374 33.3666C162.633 33.4119 162.879 33.4119 163.144 33.4314C163.441 33.4508 163.674 33.5026 163.939 33.3472C164.081 33.263 164.146 33.0299 164.075 32.8809C163.92 32.5377 163.564 32.4212 163.208 32.3823C162.827 32.337 162.517 32.4018 162.193 32.6154C161.876 32.8162 162.032 33.3083 162.374 33.3666Z" fill="#263238"/>
<path d="M163.305 36.2222C163.305 36.2222 163.241 36.2416 163.234 36.274C163.06 37.0122 162.73 37.8346 161.999 37.8929C161.98 37.8929 161.967 37.9317 161.999 37.9382C162.84 38.0483 163.26 36.9539 163.312 36.2286L163.305 36.2222Z" fill="#263238"/>
<path d="M162.859 35.2769C161.708 34.8625 160.965 37.2067 162.038 37.5887C163.092 37.9643 163.829 35.6202 162.859 35.2769Z" fill="#263238"/>
<path d="M162.361 35.2577C162.116 35.3225 161.844 35.4973 161.585 35.4455C161.294 35.3807 161.152 35.0699 161.042 34.7785C161.029 34.7461 161.003 34.7591 160.991 34.7915C160.842 35.2383 160.868 35.7498 161.327 35.97C161.747 36.1708 162.187 35.8729 162.439 35.4584C162.484 35.3807 162.452 35.2383 162.355 35.2642L162.361 35.2577Z" fill="#263238"/>
<path d="M167.405 37.2388C167.405 37.2388 167.45 37.2906 167.444 37.323C167.198 38.0417 167.043 38.9095 167.631 39.3498C167.651 39.3627 167.631 39.4016 167.612 39.3886C166.842 39.0325 167.062 37.8863 167.411 37.2388H167.405Z" fill="#263238"/>
<path d="M168.284 36.6755C169.48 36.941 168.86 39.3175 167.754 39.0715C166.661 38.8319 167.282 36.4553 168.284 36.6755Z" fill="#263238"/>
<path d="M168.737 36.9603C168.892 37.1352 169.015 37.4136 169.235 37.4849C169.487 37.569 169.746 37.3618 169.978 37.1611C170.004 37.1416 170.017 37.1611 170.011 37.1934C169.907 37.6532 169.636 38.0871 169.177 38.0612C168.756 38.0353 168.569 37.569 168.575 37.0898C168.575 36.9992 168.672 36.8891 168.737 36.9603Z" fill="#263238"/>
<path d="M161.379 42.0048C161.488 42.2314 161.573 42.5293 161.825 42.6459C162.064 42.7559 162.4 42.7495 162.659 42.7495C162.685 42.7495 162.698 42.7818 162.678 42.7948C162.394 43.002 161.941 43.0279 161.631 42.8531C161.327 42.6782 161.269 42.3415 161.301 42.0177C161.301 41.9724 161.366 41.9789 161.379 42.0113V42.0048Z" fill="#263238"/>
<path d="M162.484 40.2438C162.749 40.9626 163.267 41.4418 163.887 41.7138C164.165 41.8368 164.463 41.9145 164.767 41.9534C164.825 41.9663 164.883 41.9728 164.941 41.9728C164.993 41.9728 165.045 41.9857 165.103 41.9857C165.193 41.9922 165.252 41.9339 165.284 41.8562C165.284 41.8562 165.297 41.8044 165.297 41.772L165.31 41.7008C165.452 41.1439 165.581 40.2827 165.581 40.2827C165.762 40.4316 166.7 41.131 166.745 40.8331C167.14 38.3853 167.579 35.6591 167.45 33.1402C167.45 33.056 167.327 33.0495 167.314 33.1272C166.842 35.4649 166.784 37.8738 166.351 40.2309C166.047 40.0301 165.556 39.674 165.265 39.6157C165.181 39.6157 165.032 41.2864 164.948 41.5324C164.948 41.5324 164.948 41.5454 164.935 41.5583C163.971 41.4677 163.325 41.0274 162.555 40.192C162.51 40.1402 162.445 40.1726 162.471 40.2438H162.484Z" fill="#263238"/>
<path d="M164.256 41.61C164.256 41.61 163.674 42.0245 163.053 42.0439C162.827 42.0504 162.594 42.0115 162.387 41.8755C161.954 41.5971 162.083 41.1568 162.29 40.8136C162.458 40.5286 162.685 40.3149 162.685 40.3149C162.685 40.3149 163.17 41.1891 164.256 41.6165V41.61Z" fill="#263238"/>
<path d="M163.053 42.0438C162.827 42.0503 162.594 42.0114 162.387 41.8755C161.954 41.597 162.083 41.1567 162.29 40.8135C162.782 41.0272 163.17 41.5387 163.053 42.0438Z" fill="#FF9CBD"/>
<path d="M152.481 35.3027C154.686 35.7948 155.973 30.718 155.973 30.718C155.973 30.718 159.859 30.8928 161.993 28.6976C161.993 28.6976 160.447 30.6727 158.779 31.2425C158.501 31.3397 166.235 32.3498 168.31 26.6514C168.31 26.6514 168.077 32.6995 171.246 34.7005C171.394 34.7976 171.963 29.3128 171.142 27.8105C170.321 26.3082 169.416 25.4145 169.416 25.4145C169.416 25.4145 166.771 21.8724 161.973 21.4645C157.176 21.05 152.986 25.2721 152.164 27.2212C150.548 31.0418 151.434 35.076 152.481 35.3092V35.3027Z" fill="#263238"/>
<path d="M158.986 31.4173C163.15 32.2073 167.049 30.3165 168.381 26.1333C168.414 26.0297 168.575 26.0685 168.562 26.1786C168.116 30.6338 162.762 32.7189 158.928 31.4821C158.837 31.4497 158.883 31.3979 158.98 31.4173H158.986Z" fill="#263238"/>
<path d="M152.546 35.0697C155.048 34.4351 155.928 32.2463 156.632 29.9799C156.652 29.9151 156.768 29.941 156.755 30.0058C156.264 32.2787 155.21 34.9531 152.585 35.2769C152.449 35.2963 152.417 35.102 152.546 35.0697Z" fill="#263238"/>
<path d="M168.549 25.7772C168.549 25.7772 168.595 25.7642 168.595 25.7901C168.543 28.2961 167.709 32.3563 170.586 33.6773C170.664 33.7097 170.618 33.8263 170.541 33.8003C167.663 32.7837 167.657 28.1796 168.549 25.7836V25.7772Z" fill="#263238"/>
<path d="M154.841 30.4721C153.471 31.1974 152.003 32.1687 151.065 32.9134C151.065 32.9134 150.832 30.7376 151.473 29.5267C151.473 29.5267 155.533 26.6645 160.26 25.6284L154.841 30.4721Z" fill="#01D38C"/>
<path d="M152.572 31.8318C152.572 31.8318 160.247 24.7605 163.745 23.7698C167.243 22.779 174.175 23.7115 177.666 27.0594C180.389 29.669 171.524 32.3693 171.524 32.3693C171.524 32.3693 171.381 30.7504 170.489 29.9604C168.756 28.4322 164.767 28.0048 162.361 28.212C159.335 28.4646 152.572 31.8383 152.572 31.8383V31.8318Z" fill="#FFC727"/>
<path opacity="0.2" d="M152.572 31.8318C152.572 31.8318 160.247 24.7605 163.745 23.7698C167.243 22.779 174.175 23.7115 177.666 27.0594C180.389 29.669 171.524 32.3693 171.524 32.3693C171.524 32.3693 171.381 30.7504 170.489 29.9604C168.756 28.4322 164.767 28.0048 162.361 28.212C159.335 28.4646 152.572 31.8383 152.572 31.8383V31.8318Z" fill="#01D38C"/>
<path d="M153.471 35.9891C153.471 35.9891 152.197 32.0131 150.464 32.3693C148.731 32.7254 148.983 38.003 150.522 39.188C152.061 40.373 153.186 38.9678 153.186 38.9678L153.471 35.9891Z" fill="#D3766A"/>
<path d="M150.574 33.8779C150.574 33.8779 150.529 33.9038 150.548 33.9233C151.615 34.7975 151.906 36.1249 151.996 37.4395C151.77 36.8761 151.356 36.4746 150.619 36.7207C150.58 36.7336 150.593 36.7919 150.632 36.7984C151.162 36.8437 151.498 37.0445 151.712 37.5496C151.861 37.9057 151.919 38.3137 151.983 38.6957C152.009 38.8252 152.223 38.8252 152.216 38.6893C152.216 38.6763 152.216 38.6698 152.216 38.6569C152.727 37.1092 152.19 34.5514 150.567 33.8779H150.574Z" fill="#263238"/>
<path d="M141.845 48.5325C126.779 47.082 113.323 48.1828 109.631 49.2707C106.288 50.255 91.7138 57.2162 86.1595 61.503C84.3426 62.9017 94.0804 78.6631 96.0978 77.2709C100.197 74.4476 115.017 64.3328 117.151 63.3032C119.13 62.3448 132.805 59.0358 140.616 57.2226C148.117 55.4807 149.041 49.2254 141.838 48.5325H141.845Z" fill="#D3766A"/>
<path d="M143.422 60.0073C141.573 61.9823 138.159 63.0508 136.213 62.3644C134.622 61.8075 134.273 59.8519 135.45 57.7344C137.467 54.134 143.552 49.5493 145.686 50.1904C148.136 50.9286 146.5 56.7048 143.422 60.0008V60.0073Z" fill="#D3766A"/>
<path d="M138.049 58.3949C137.836 58.4013 137.622 58.4143 137.409 58.4272C138.411 58.1423 138.592 58.0257 139.575 57.6631C139.595 57.6566 139.588 57.6178 139.569 57.6243C138.418 57.8703 138.082 57.9351 136.944 58.2394C136.407 58.3884 135.961 58.5503 135.424 58.7186C134.823 58.9064 134.926 58.9712 135.515 58.8481C136.025 58.7445 136.297 58.7381 136.801 58.6021C136.956 58.6021 137.112 58.615 137.273 58.6021C137.532 58.5891 137.791 58.5697 138.043 58.5308C138.554 58.4596 138.56 58.3689 138.049 58.3884V58.3949Z" fill="#263238"/>
<path d="M96.5892 76.2153C96.5892 76.2153 92.7807 82.3412 90.1038 86.233C88.6101 88.4023 85.7198 91.8926 83.8899 92.9869C81.1613 94.6188 68.6948 99.7021 67.4016 96.7039C66.2313 93.9906 77.4886 90.986 77.4886 90.986C77.4886 90.986 66.3929 95.0203 65.5847 91.4911C64.77 87.9619 77.9477 86.2589 77.9477 86.2589C77.9477 86.2589 66.4576 90.1507 66.1925 86.3819C65.9921 83.5327 77.8378 81.318 77.8378 81.318C77.8378 81.318 67.9383 84.5947 67.6086 81.6742C67.2465 78.4429 78.0511 75.7167 78.0511 75.7167C78.4585 68.1468 81.7303 62.9987 86.5927 61.1273C87.3622 60.8294 96.5892 76.2218 96.5892 76.2218V76.2153Z" fill="#D3766A"/>
<path d="M81.4199 89.8268C80.1332 90.3513 78.8335 90.8823 77.508 91.2903C76.1825 91.6982 74.8376 92.0544 73.4797 92.3328C70.1432 93.0193 67.9513 92.9286 68.087 92.9156C71.3071 92.7019 76.0855 91.3227 77.411 90.9212C78.7366 90.5197 80.0815 90.1765 81.407 89.775C81.4393 89.7621 81.4523 89.8139 81.4199 89.8268Z" fill="#263238"/>
<path d="M80.0492 85.003C78.3809 85.5987 76.7386 86.2463 75.0445 86.7708C73.3568 87.2888 71.708 87.632 69.988 88.0335C69.8523 88.0659 69.8846 87.9817 70.0139 87.9493C71.7145 87.4831 73.2534 86.9132 74.9539 86.4276C76.648 85.9419 78.368 85.5145 80.0427 84.9641C80.0685 84.9576 80.0815 84.9965 80.0556 85.003H80.0492Z" fill="#263238"/>
<path d="M79.6095 80.6447C77.1006 81.6873 74.4043 82.2571 71.7468 82.7622C71.6175 82.7881 71.6627 82.6845 71.7921 82.6521C74.4173 81.9981 76.4864 81.506 79.5707 80.5605C79.6159 80.5476 79.6612 80.6253 79.6095 80.6512V80.6447Z" fill="#263238"/>
</svg>
