<svg width="211" height="251" viewBox="0 0 211 251" fill="none" xmlns="http://www.w3.org/2000/svg">
<path d="M206.147 31.4118C211.687 37.9827 213.971 51.3263 202.645 60.8639C194.555 67.6821 188.612 68.3262 182.115 68.6905C177.956 68.9182 173.693 67.4674 172.462 67.8122C167.398 69.2175 158.878 74.3311 158.878 74.3311L155.818 70.7008C155.818 70.7008 162.301 63.1735 164.547 58.4242C165.094 57.2727 164.391 52.8226 165.315 48.763C166.773 42.4262 168.42 36.6815 176.518 29.8699C187.844 20.3322 200.608 24.8408 206.154 31.4183L206.147 31.4118ZM164.052 62.7636C162.412 65.2684 157.908 70.6163 157.908 70.6163L159.314 72.2883C159.314 72.2883 165.354 68.7621 168.101 67.565C169.305 67.038 171.779 65.9255 171.779 65.9255C170.112 65.1708 168.401 63.1995 168.401 63.1995C168.401 63.1995 166.754 61.1827 166.292 59.4196C166.292 59.4196 164.768 61.6642 164.046 62.7636H164.052ZM170.269 61.6251C175.6 67.9488 189.484 69.198 200.738 59.7189C211.993 50.2398 208.556 37.7745 204.422 32.8626C200.263 27.9246 188.579 22.4596 177.325 31.9387C166.07 41.4178 164.944 55.3014 170.269 61.6251Z" fill="#263238"/>
<path d="M207.273 50.8511L207.182 50.9292C207.202 50.8836 207.221 50.8381 207.234 50.7991L207.28 50.8511H207.273ZM187.206 27.046C187.173 27.046 187.134 27.059 187.095 27.0656L187.173 27.0005L187.206 27.046Z" fill="#263238"/>
<path d="M155.76 70.6288L158.939 74.3999L157.446 75.6576L154.267 71.8865L155.76 70.6288Z" fill="#FFC727"/>
<path opacity="0.5" d="M155.76 70.6288L158.939 74.3999L157.446 75.6576L154.267 71.8865L155.76 70.6288Z" fill="white"/>
<path d="M153.918 71.472L157.789 76.064L139.985 91.06L136.113 86.468L153.918 71.472Z" fill="#FFC727"/>
<path opacity="0.3" d="M153.924 71.4746L153.638 71.7153L155.395 78.0781L155.857 77.6877L154.263 71.8715L153.924 71.4746Z" fill="white"/>
<path opacity="0.3" d="M150.52 74.3366L152.271 80.7059L152.739 80.3156L150.988 73.9463L150.52 74.3366Z" fill="white"/>
<path opacity="0.3" d="M147.402 76.9652L149.153 83.3345L149.622 82.9441L147.864 76.5684L147.402 76.9652Z" fill="white"/>
<path opacity="0.3" d="M144.284 79.5866L146.035 85.9624L146.504 85.5656L144.746 79.1963L144.284 79.5866Z" fill="white"/>
<path opacity="0.3" d="M141.16 82.2156L142.917 88.5848L143.386 88.1945L141.628 81.8252L141.16 82.2156Z" fill="white"/>
<path opacity="0.3" d="M138.51 84.4536L138.048 84.844L139.643 90.6602L139.982 91.0571L140.268 90.8164L138.51 84.4536Z" fill="white"/>
<path d="M207.475 50.0767L188.677 65.9055C189.022 65.8209 189.367 65.7363 189.712 65.6388L207.267 50.8574L207.221 50.8053C207.313 50.5581 207.391 50.3239 207.469 50.0832L207.475 50.0767Z" fill="#263238"/>
<path d="M208.341 43.6094L181.139 66.5166C181.36 66.5426 181.588 66.5491 181.81 66.5557L208.354 44.2014C208.354 43.9997 208.354 43.8046 208.341 43.6094Z" fill="#263238"/>
<path d="M207.456 38.6128L175.73 65.3325C175.893 65.3976 176.062 65.4561 176.231 65.5147L207.599 39.1007C207.553 38.9381 207.508 38.7754 207.456 38.6193V38.6128Z" fill="#263238"/>
<path d="M205.575 34.4562L171.675 63.0041C171.792 63.1082 171.916 63.2058 172.046 63.2968L205.822 34.8531C205.744 34.7164 205.666 34.5798 205.581 34.4497L205.575 34.4562Z" fill="#263238"/>
<path d="M202.698 31.1445L168.915 59.5948C168.993 59.7314 169.065 59.868 169.149 60.0047L203.056 31.4503C202.938 31.3462 202.821 31.2486 202.704 31.1445H202.698Z" fill="#263238"/>
<path d="M198.825 28.672L167.444 55.099C167.47 55.2746 167.502 55.4503 167.542 55.6194L199.28 28.8867C199.137 28.8087 198.981 28.7371 198.825 28.6655V28.672Z" fill="#263238"/>
<path d="M193.917 27.0588L167.353 49.426C167.32 49.6472 167.294 49.8684 167.281 50.0896L194.503 27.1628C194.307 27.1238 194.119 27.0848 193.917 27.0522V27.0588Z" fill="#263238"/>
<path d="M187.167 27.0066L169.598 41.801C169.442 42.1263 169.299 42.4451 169.162 42.7704L187.987 26.9155C187.726 26.9481 187.466 26.9936 187.199 27.0456L187.167 27.0001V27.0066Z" fill="#263238"/>
<path d="M199.957 29.2646L207.196 37.8524C207.026 37.3775 206.838 36.9156 206.642 36.4797L201.214 30.0454C200.817 29.7786 200.4 29.5184 199.957 29.2712V29.2646Z" fill="#263238"/>
<path d="M192.146 26.812L208.289 45.9654C208.308 45.7377 208.321 45.5165 208.328 45.2953L192.81 26.8901C192.588 26.8576 192.367 26.838 192.146 26.8185V26.812Z" fill="#263238"/>
<path d="M186.685 27.1435L207.039 51.2933C207.085 51.1762 207.131 51.0461 207.176 50.929L207.267 50.8509L187.167 27.0068L187.089 27.0719C186.959 27.0979 186.815 27.1239 186.679 27.15L186.685 27.1435Z" fill="#263238"/>
<path d="M182.252 28.6919L204.774 55.4051C204.865 55.275 204.956 55.1449 205.048 55.0148L182.689 28.4902C182.545 28.5553 182.396 28.6204 182.259 28.6919H182.252Z" fill="#263238"/>
<path d="M178.471 31.0145L201.832 58.7296C201.943 58.6255 202.06 58.5214 202.17 58.4108L178.842 30.7412C178.718 30.8323 178.594 30.9234 178.471 31.0145Z" fill="#263238"/>
<path d="M175.496 33.5905C175.385 33.7011 175.274 33.8052 175.17 33.9223L198.408 61.4878C198.538 61.4032 198.662 61.3121 198.792 61.221L175.496 33.584V33.5905Z" fill="#263238"/>
<path d="M172.567 36.9282C172.476 37.0583 172.378 37.1754 172.287 37.3121L194.581 63.7585C194.724 63.6935 194.861 63.6154 195.004 63.5438L172.567 36.9282Z" fill="#263238"/>
<path d="M170.1 40.8057C170.022 40.9488 169.944 41.0984 169.872 41.2481L190.291 65.4695C190.454 65.424 190.61 65.3719 190.766 65.3199L170.106 40.8122L170.1 40.8057Z" fill="#263238"/>
<path d="M168.212 45.373C168.16 45.5552 168.108 45.7244 168.062 45.913L185.383 66.4586C185.572 66.4456 185.754 66.4196 185.937 66.4001L168.212 45.373Z" fill="#263238"/>
<path d="M167.216 51.0137C167.203 51.2414 167.197 51.4691 167.19 51.7033L179.519 66.3285C179.74 66.3676 179.974 66.4001 180.202 66.4261L167.21 51.0137H167.216Z" fill="#263238"/>
<path d="M169.345 60.3434C169.631 60.7988 169.937 61.2217 170.269 61.6121C170.601 62.0089 170.965 62.3863 171.362 62.7376L169.338 60.3369L169.345 60.3434Z" fill="#263238"/>
<path d="M102.606 23.6241C93.7533 26.7599 72.1363 37.6313 67.7165 43.994C64.9501 47.9756 77.4543 61.6315 88.6045 70.0436C90.9283 71.7937 102.541 61.5729 103.309 58.4892C103.83 56.3943 87.3092 47.9496 88.1944 46.4988C89.8282 43.8249 101.792 34.2092 107.533 27.7748C110.736 24.1771 108.113 21.6723 102.606 23.6241Z" fill="#F7A9A0"/>
<path d="M90.5246 46.2193L76.6535 35.387C76.6535 35.387 90.2382 26.9228 101.291 23.761C109.915 21.2887 111.439 23.9627 106.348 29.5707C101.258 35.1788 90.5311 46.2193 90.5311 46.2193H90.5246Z" fill="#01D38C"/>
<path opacity="0.1" d="M82.1016 39.6415L90.5245 46.2189C90.5245 46.2189 101.245 35.1719 106.342 29.5704C110.456 25.0357 110.254 22.4269 105.476 22.8823L82.1016 39.6415Z" fill="black"/>
<path d="M90.6614 48.1387L74.8115 36.285L75.5796 36.0508L75.3387 34.7626L75.9246 34.587L76.966 33.2598L92.3928 45.66L91.5857 45.9007L91.5792 47.0588L90.8176 47.1889L90.6614 48.1387Z" fill="#FFC727"/>
<path opacity="0.1" d="M90.6614 48.1387L74.8115 36.285L75.5796 36.0508L75.3387 34.7626L75.9246 34.587L76.966 33.2598L92.3928 45.66L91.5857 45.9007L91.5792 47.0588L90.8176 47.1889L90.6614 48.1387Z" fill="black"/>
<path d="M40.8074 250.427C40.1174 250.427 27.802 251.025 26.7475 250.082C16.0725 240.525 1.06226 215.418 0.756325 214.15C0.548031 213.356 11.8415 204.072 11.9001 204.007C13.0652 202.725 30.8874 180.931 30.8874 180.931L54.3986 200.24L34.2787 225.138L33.9076 225.503C33.9076 225.503 34.8059 232.613 37.032 239.119C37.338 240.024 41.3021 243.914 41.569 244.662C42.4477 247.141 41.7642 250.433 40.8009 250.433L40.8074 250.427Z" fill="#F7A9A0"/>
<path d="M40.8074 250.426C40.1044 250.426 27.8021 251.031 26.7411 250.081C16.066 240.524 1.05582 215.425 0.749886 214.149C0.541592 213.356 11.835 204.072 11.8936 204.007C12.18 203.694 15.0375 200.24 15.0375 200.24L37.4292 221.234L34.2722 225.138L33.9012 225.502C33.9012 225.502 34.8059 232.62 37.0256 239.119C37.338 240.017 41.2956 243.907 41.5625 244.662C42.4477 247.134 41.7578 250.426 40.8009 250.426H40.8074Z" fill="#EBEBEB"/>
<path d="M41.2827 250.615C40.8856 250.881 27.34 250.992 26.4482 250.185C17.9016 242.469 0.190132 215.411 0.00136566 213.869C-0.102783 213.063 5.95077 207.591 12.6422 202.979L34.0835 225.547C34.0835 225.547 35.4048 234.402 37.1298 239.145C37.5203 240.225 41.4128 243.777 41.7643 244.564C42.8514 246.978 41.8555 250.231 41.2827 250.615Z" fill="#01D38C"/>
<path d="M40.2607 243.536C38.321 242.254 35.841 241.955 34.077 242.41C32.3846 242.846 30.5816 243.802 29.6507 245.468C29.6247 245.514 29.7158 245.572 29.7549 245.527C32.1047 242.742 36.7327 241.851 40.2021 243.633C40.2737 243.672 40.3258 243.581 40.2607 243.536Z" fill="#263238"/>
<path d="M11.705 211.599C9.43979 208.834 5.13722 212.353 7.40892 215.118C9.67412 217.883 13.9767 214.364 11.705 211.599Z" fill="#263238"/>
<path d="M39.7792 228.658C37.872 228.645 36.0299 228.066 34.2203 227.435C34.0902 227.389 33.9665 227.35 33.8428 227.298C33.1008 227.038 32.3587 226.771 31.6427 226.537C31.5516 226.504 31.4865 226.439 31.4604 226.368C31.3823 226.231 31.4084 226.042 31.5125 225.925C31.4735 225.893 31.4669 225.828 31.5125 225.789C31.6036 225.73 31.6948 225.678 31.7924 225.613L31.877 225.548C31.877 225.548 31.877 225.554 31.8835 225.541C32.0007 225.483 32.1179 225.411 32.235 225.34C32.5084 225.184 32.7883 225.034 33.0877 224.897C35.1381 223.882 37.5791 223.238 39.7531 223.167C41.452 223.121 43.7303 223.948 43.6391 226.042C43.548 228.02 41.4065 228.677 39.7727 228.664L39.7792 228.658ZM41.9598 227.181C44.5309 224.832 40.5147 223.954 39.2585 224.032C38.4513 224.091 37.6377 224.247 36.8501 224.409C35.6914 224.644 34.5718 224.995 33.4523 225.359C33.0357 225.502 32.6256 225.633 32.209 225.769C32.209 225.769 32.2003 225.769 32.183 225.769C32.1179 225.789 32.0528 225.815 31.9942 225.834C32.0593 225.847 32.1309 225.873 32.2025 225.893C32.2676 225.906 32.3522 225.925 32.4238 225.951C32.9576 226.101 33.4848 226.264 34.0186 226.433C34.6369 226.628 35.2683 226.83 35.8932 227.018C37.4359 227.48 40.5473 228.469 41.9598 227.181Z" fill="#263238"/>
<path d="M31.4734 226.381C31.4734 226.381 31.4734 226.374 31.4604 226.361C30.6402 225.58 29.768 224.813 28.9283 224.026C27.7176 222.874 26.572 221.651 25.7778 220.207C25.0293 218.821 24.6127 216.726 26.1033 215.679C26.1619 215.633 26.2205 215.587 26.2856 215.548C28.0951 214.494 29.8851 216.101 30.6402 217.637C31.519 219.419 32.0722 221.612 32.2089 223.726C32.2545 224.253 32.2675 224.793 32.235 225.333C32.235 225.476 32.235 225.613 32.2089 225.769C32.222 225.769 32.2154 225.776 32.2089 225.795C32.2089 225.821 32.2154 225.854 32.1959 225.899C32.1959 225.977 32.1959 226.062 32.1894 226.146C32.1764 226.212 32.1243 226.238 32.0722 226.225C31.9681 226.439 31.6752 226.582 31.4669 226.381H31.4734ZM31.4734 225.268C31.5906 225.379 31.6882 225.496 31.7924 225.613C31.8379 225.659 31.8835 225.691 31.9225 225.743C31.916 225.685 31.89 225.62 31.8835 225.554V225.541C31.7012 224.553 31.545 223.57 31.3432 222.588C31.2261 221.983 31.0894 221.384 30.9136 220.792C30.6793 220.018 30.4384 219.224 30.1 218.489C29.6704 217.533 27.7697 215.204 26.6371 216.388C26.4027 216.622 26.2075 216.999 26.0577 217.572C25.5826 219.432 27.9129 221.716 29.0585 222.868C29.8591 223.674 30.6858 224.448 31.4734 225.268Z" fill="#263238"/>
<path d="M35.3463 229.178C33.4521 226.615 30.3212 224.357 27.0471 224.357C26.9234 224.357 26.9234 224.54 27.021 224.585C29.9502 225.977 32.4887 227.487 35.0729 229.465C35.2551 229.601 35.4895 229.367 35.3528 229.185L35.3463 229.178Z" fill="#263238"/>
<path d="M36.0689 231.715C34.1747 229.152 31.0438 226.895 27.7697 226.895C27.646 226.895 27.646 227.077 27.7436 227.122C30.6663 228.515 33.2113 230.024 35.7955 232.002C35.9778 232.138 36.2121 231.904 36.0754 231.722L36.0689 231.715Z" fill="#263238"/>
<path d="M36.7979 234.253C34.9037 231.689 31.7728 229.432 28.4987 229.432C28.375 229.432 28.375 229.614 28.4726 229.659C31.3953 231.052 33.9338 232.561 36.5245 234.539C36.7068 234.675 36.9411 234.441 36.8044 234.259L36.7979 234.253Z" fill="#263238"/>
<path d="M37.5203 236.79C35.6262 234.226 32.4953 231.969 29.2211 231.969C29.0975 231.969 29.0975 232.151 29.1951 232.196C32.1242 233.589 34.6628 235.098 37.247 237.076C37.4292 237.213 37.6636 236.978 37.5269 236.796L37.5203 236.79Z" fill="#263238"/>
<path d="M41.3934 248.767C37.6766 248.273 33.8753 248.351 30.139 247.986C29.7029 247.941 29.2668 247.902 28.8306 247.856C28.3555 247.811 27.8803 247.817 27.5223 247.466C26.8974 246.841 26.3897 246.035 25.8559 245.332C24.7364 243.875 23.6233 242.417 22.5167 240.96C18.0514 235.092 13.6838 229.152 9.35516 223.186C8.13144 221.501 6.90118 219.822 5.67746 218.137C4.44722 216.446 3.11284 214.845 1.87609 213.16C1.83053 213.102 1.73289 213.16 1.77846 213.225C2.81993 214.806 3.75074 216.459 4.82476 218.02C5.89226 219.582 6.95978 221.15 8.05333 222.698C10.2274 225.769 12.434 228.814 14.6666 231.845C16.8993 234.87 19.158 237.883 21.4362 240.875C22.5883 242.385 23.747 243.888 24.9056 245.384C25.4654 246.106 26.0252 246.835 26.598 247.557C27.0797 248.162 27.5288 248.487 28.3164 248.559C32.632 248.975 37.0322 248.871 41.3608 249.086C41.5431 249.092 41.5757 248.793 41.3934 248.767Z" fill="#263238"/>
<path d="M107.26 67.7858C107.26 67.7858 109.863 90.0815 105.261 95.1626C105.261 95.1626 90.0103 149.819 85.5971 161.887C78.7624 180.578 42.8057 214.591 42.8057 214.591L19.8347 194.521C19.8347 194.521 41.979 162.616 53.1813 152.421C58.5709 147.522 70.1443 99.7232 69.6951 98.4871C64.6115 84.4279 72.8391 67.7793 72.8391 67.7793H107.253L107.26 67.7858Z" fill="#F7A9A0"/>
<path d="M61.6433 122.468L98.0622 127.523L105.268 95.1627C105.268 95.1627 110.944 89.3204 110.293 67.6558H72.8521C72.8521 67.6558 64.1103 83.8359 66.9418 96.6525L61.6498 122.468H61.6433Z" fill="#263238"/>
<path d="M99.1036 87.3556C98.9344 90.101 98.9018 92.853 99.1687 95.5725C99.2338 96.2556 99.2989 96.9322 99.416 97.5958L99.5658 98.6108L99.7676 99.5996C100.034 100.907 100.386 102.274 100.835 103.412L100.978 103.77L100.874 104.141C99.6504 108.766 95.2892 123.964 94.391 127.042L91.566 126.671L98.6349 103.835C98.2053 102.501 97.9515 101.272 97.7367 99.9705L97.587 98.9035L97.4763 97.8365C97.3917 97.1274 97.3722 96.4183 97.3331 95.6961C97.2094 92.8465 97.3526 90.0035 97.7432 87.2059C97.971 85.8072 98.1728 84.4084 98.5048 83.0422C98.7716 81.6564 99.1752 80.3032 99.5658 78.9565C99.748 78.2733 99.9823 77.6097 100.217 76.9526L100.907 74.9618C101.421 73.6607 101.987 72.379 102.521 71.0908C102.117 72.431 101.688 73.7517 101.304 75.092C100.985 76.4517 100.568 77.7789 100.314 79.1451C100.047 80.5049 99.7545 81.8581 99.5788 83.2373C99.3444 84.5971 99.2403 85.9763 99.1101 87.3491L99.1036 87.3556Z" fill="#455A64"/>
<path d="M132.163 250.836C130.406 250.855 85.0304 236.119 83.657 234.46C83.1233 233.842 101.024 195.074 101.024 195.074L129.475 205.438L116.945 228.82C116.945 228.82 131.382 241.858 132.697 243.842C133.999 245.813 133.921 250.829 132.163 250.836Z" fill="#F7A9A0"/>
<path d="M132.164 250.829C130.406 250.849 85.0243 236.113 83.6574 234.454C83.4035 234.155 87.5564 224.695 91.7418 215.411L119.067 224.851L116.945 228.807C116.945 228.807 131.383 241.845 132.698 243.829C134.006 245.8 133.921 250.816 132.164 250.823V250.829Z" fill="#EBEBEB"/>
<path d="M132.366 250.868C130.615 250.881 84.7705 236.38 83.4036 234.727C82.8828 234.103 86.2025 226.972 89.3204 219.478L117.362 228.761C117.362 228.761 131.585 241.929 132.893 243.901C134.195 245.865 134.117 250.855 132.366 250.875V250.868Z" fill="#01D38C"/>
<path d="M132.307 248.851C124.796 246.21 94.2415 236.256 86.6127 234.22C86.5476 234.2 86.5346 234.246 86.5997 234.265C93.9876 237.05 124.626 246.75 132.275 248.975C132.437 249.021 132.476 248.903 132.314 248.851H132.307Z" fill="#263238"/>
<path d="M130.517 241.331C128.747 240.674 126.709 240.96 125.388 241.708C124.112 242.43 122.836 243.614 122.381 245.202C122.368 245.247 122.452 245.273 122.472 245.234C123.865 242.411 127.406 240.687 130.485 241.428C130.55 241.441 130.576 241.357 130.517 241.331Z" fill="#263238"/>
<path d="M119.491 230.29C116.47 229.262 112.61 229.197 109.922 231.058C109.818 231.13 109.922 231.279 110.026 231.26C113.222 230.739 116.171 230.531 119.419 230.674C119.647 230.687 119.705 230.355 119.491 230.284V230.29Z" fill="#263238"/>
<path d="M121.534 231.962C118.514 230.934 114.654 230.869 111.966 232.736C111.862 232.808 111.966 232.958 112.07 232.938C115.266 232.418 118.215 232.209 121.463 232.352C121.691 232.366 121.749 232.034 121.534 231.962Z" fill="#263238"/>
<path d="M123.578 233.634C120.558 232.606 116.698 232.541 114.01 234.408C113.906 234.48 114.01 234.629 114.114 234.61C117.31 234.089 120.259 233.881 123.507 234.024C123.735 234.037 123.793 233.706 123.578 233.634Z" fill="#263238"/>
<path d="M125.622 235.306C122.602 234.278 118.742 234.213 116.054 236.08C115.95 236.152 116.054 236.301 116.158 236.282C119.354 235.761 122.303 235.553 125.551 235.696C125.778 235.709 125.837 235.377 125.622 235.306Z" fill="#263238"/>
<path d="M90.8762 227.655C87.4719 226.562 85.7665 231.845 89.1773 232.944C92.5816 234.037 94.287 228.748 90.8762 227.655Z" fill="#263238"/>
<path d="M123.715 227.629C122.146 228.709 120.298 229.281 118.449 229.789C118.312 229.821 118.189 229.86 118.059 229.886C117.304 230.095 116.542 230.303 115.813 230.517C115.715 230.543 115.631 230.524 115.566 230.485C115.422 230.413 115.338 230.244 115.357 230.095C115.305 230.095 115.26 230.043 115.279 229.984C115.318 229.886 115.364 229.789 115.409 229.678L115.442 229.574C115.442 229.574 115.455 229.574 115.442 229.561C115.501 229.444 115.566 229.32 115.618 229.19C115.754 228.91 115.898 228.618 116.067 228.338C117.173 226.334 118.807 224.415 120.558 223.12C121.925 222.112 124.268 221.494 125.394 223.263C126.449 224.935 125.063 226.698 123.715 227.622V227.629ZM124.659 225.17C125.434 221.774 121.632 223.341 120.643 224.122C120.011 224.63 119.432 225.222 118.879 225.807C118.059 226.666 117.343 227.59 116.633 228.527C116.373 228.878 116.112 229.223 115.846 229.574C115.846 229.574 115.839 229.581 115.826 229.594C115.787 229.646 115.748 229.704 115.709 229.756C115.774 229.73 115.846 229.711 115.911 229.685C115.976 229.659 116.054 229.626 116.125 229.607C116.653 229.424 117.173 229.255 117.707 229.093C118.326 228.897 118.957 228.709 119.582 228.501C121.111 228.006 124.236 227.037 124.659 225.176V225.17Z" fill="#263238"/>
<path d="M115.592 230.492C115.592 230.492 115.579 230.492 115.572 230.492C114.452 230.316 113.3 230.186 112.161 230.017C110.508 229.763 108.868 229.412 107.39 228.677C105.984 227.961 104.441 226.484 105.073 224.773C105.092 224.702 105.118 224.63 105.151 224.565C106.03 222.665 108.425 222.965 109.916 223.797C111.654 224.76 113.359 226.25 114.68 227.909C115.019 228.319 115.338 228.755 115.618 229.21C115.702 229.327 115.78 229.438 115.845 229.581C115.858 229.575 115.858 229.581 115.865 229.601C115.884 229.62 115.904 229.646 115.911 229.692C115.956 229.75 116.002 229.822 116.047 229.9C116.073 229.965 116.047 230.011 115.995 230.03C116.034 230.264 115.878 230.551 115.585 230.505L115.592 230.492ZM114.954 229.575C115.11 229.601 115.26 229.64 115.416 229.672C115.481 229.679 115.533 229.685 115.592 229.705C115.553 229.659 115.494 229.62 115.455 229.575V229.562C114.732 228.853 114.049 228.137 113.313 227.447C112.871 227.018 112.422 226.608 111.94 226.218C111.309 225.717 110.658 225.196 109.961 224.786C109.063 224.246 106.173 223.42 105.919 225.034C105.86 225.359 105.919 225.782 106.121 226.335C106.791 228.13 110.013 228.683 111.608 228.976C112.728 229.184 113.847 229.347 114.96 229.568L114.954 229.575Z" fill="#263238"/>
<path d="M126.462 211.052L98.6285 200.278C98.6285 200.278 107.455 169.083 121.671 148.68C122.289 147.789 100.64 110.53 90.6092 99.6127C77.4086 85.2477 84.6208 67.6558 84.6208 67.6558L111.003 67.6818C111.003 67.6818 114.517 77.1804 115.233 78.3319C118.111 82.9641 151.561 130.626 153.742 143.02C156.704 159.851 126.462 211.052 126.462 211.052Z" fill="#F7A9A0"/>
<path d="M107.995 127.003L139.383 107.173C139.383 107.173 117.284 80.4594 115.904 78.0262C114.517 75.593 111.016 67.6818 111.016 67.6818L84.6338 67.6558C84.6338 67.6558 78.8146 80.6675 84.4776 93.0287C90.1406 105.39 108.008 127.003 108.008 127.003H107.995Z" fill="#263238"/>
<path d="M135.653 110.823L134.117 112.02C134.032 111.909 133.752 111.551 133.316 110.992C129.482 106.086 113.613 85.6642 111.282 81.7477C109.271 78.3646 106.667 71.078 105.496 67.6689H107.559C108.802 71.2212 111.178 77.7401 112.962 80.7458C115.227 84.5648 131.441 105.416 134.976 109.951C135.392 110.484 135.633 110.797 135.653 110.823Z" fill="#455A64"/>
<path d="M94.8077 97.8242C93.0827 97.8111 91.3643 97.707 89.6589 97.4078C87.9405 97.102 86.3327 96.549 84.6664 96.0741C83.0781 95.6252 81.3988 95.5666 79.7715 95.3259C78.1246 95.0787 76.4778 94.6623 74.9677 93.9466C74.8961 93.9141 74.8375 94.0182 74.9091 94.0572C76.4062 94.8054 77.9098 95.5146 79.5176 96.0025C81.1644 96.5035 82.8828 96.5555 84.5492 96.9524C86.2676 97.3557 87.921 97.8957 89.685 98.0844C91.3969 98.2665 93.1218 98.2405 94.8207 97.9478C94.8858 97.9347 94.8663 97.8372 94.8012 97.8307L94.8077 97.8242Z" fill="#455A64"/>
<path d="M86.912 97.0039C89.9778 104.551 94.6514 111.46 100.327 117.296C95.3348 110.887 90.7719 104.16 86.912 97.0039Z" fill="#455A64"/>
<path d="M143.451 126.521C143.457 126.463 143.457 126.411 143.457 126.365C143.457 126.3 143.451 126.3 143.451 126.254H143.457C143.457 126.254 143.457 126.287 143.464 126.319C143.477 126.371 143.496 126.424 143.509 126.469L143.542 126.547L143.594 126.638V126.658C143.594 126.658 143.516 126.573 143.451 126.521Z" fill="#455A64"/>
<path d="M109.733 30.5851C107.709 30.2663 106.479 26.7206 106.882 24.1182C106.915 23.9295 107.78 22.3746 108.802 20.4424C109.421 19.2648 110.078 17.9376 110.592 16.6885L117.674 21.8216C117.674 21.8216 115.826 24.1312 114.941 26.3237C114.869 26.5059 114.817 26.688 114.784 26.8572C114.778 26.8832 114.771 26.9157 114.758 26.9483C114.517 27.9892 111.686 30.8973 109.733 30.5851Z" fill="#F7A9A0"/>
<path d="M125.147 9.40251C125.173 13.1499 121.209 21.3408 118.104 22.8307C113.6 24.9906 107.702 23.5723 106.244 18.4977C104.825 13.5793 109.974 3.29347 113.307 2.08988C118.215 0.320278 125.108 3.86599 125.153 9.40251H125.147Z" fill="#F7A9A0"/>
<path d="M125.219 7.52853C125.219 7.52853 126.553 10.2415 126.429 11.5492C126.306 12.8569 124.659 17.5216 121.697 19.9223C120.63 20.7875 119.985 23.0841 118.527 23.507C117.063 23.9299 112.513 19.0635 112.415 18.003C112.317 16.9426 114.231 14.171 114.817 12.9479C115.403 11.7248 113.99 11.0222 113.522 11.1198C110.592 11.7053 109.278 14.9778 109.212 14.3402C109.147 13.7091 108.874 11.7443 109.199 10.4952C109.518 9.24609 112.838 6.18181 113.04 5.16689C113.242 4.15197 111.653 4.41221 110.794 3.98932C110.273 3.72909 111.413 0.450119 112.337 0.0922949C113.261 -0.265529 114.797 0.521682 115.507 0.677824C116.21 0.833965 117.323 0.202896 119.185 0.710355C121.046 1.21781 122.947 2.90935 123.741 3.52741C124.991 4.50329 125.225 7.52853 125.225 7.52853H125.219Z" fill="#263238"/>
<path d="M110.644 12.8953C110.644 12.8953 113.671 10.4426 114.843 11.6072C116.015 12.7717 113.131 16.7533 111.321 16.8965C109.512 17.0396 109.349 15.3676 109.349 15.3676L110.644 12.9018V12.8953Z" fill="#F7A9A0"/>
<path d="M113.99 12.727C113.99 12.727 114.01 12.7725 113.99 12.7725C112.708 12.9092 111.803 13.8005 111.068 14.7763C111.53 14.4511 112.063 14.3535 112.513 14.9195C112.539 14.952 112.493 14.991 112.467 14.9715C112.024 14.7373 111.666 14.7243 111.237 15.0041C110.937 15.2057 110.683 15.4985 110.436 15.7587C110.352 15.8433 110.182 15.7392 110.254 15.6286C110.254 15.6221 110.267 15.6156 110.273 15.6026C110.664 14.1323 112.382 12.4147 113.997 12.714L113.99 12.727Z" fill="#263238"/>
<path d="M69.4543 70.6287L115.006 74.1874C115.273 74.0378 114.133 69.7894 114.543 63.3811C115.279 51.9047 117.284 34.3518 114.901 26.9872C113.977 24.1181 109.518 21.9581 105.99 22.7518C90.2186 26.2975 69.2395 70.1082 69.4543 70.6222V70.6287Z" fill="#01D38C"/>
<path d="M110.599 29.9024C108.086 37.15 111.673 64.6048 112.89 67.0445C116.308 73.8887 129.326 79.8156 137.345 81.7609C139.526 82.2879 143.809 63.7786 141.544 63.0044C136.877 61.4104 126.807 56.5701 125.655 55.1713C124.509 53.7725 119.315 38.9781 116.952 31.2361C114.967 24.7107 111.862 26.2331 110.592 29.8959L110.599 29.9024Z" fill="#F7A9A0"/>
<path d="M138.406 62.4186C138.406 62.4186 142.657 63.0432 146.627 63.7979C151.405 64.7022 162.744 69.2238 165.881 82.5283C167.086 87.6224 164.033 90.6932 161.839 85.6251C160.297 82.0534 159.535 79.4445 158.702 78.4166C158.702 78.4166 157.146 84.1678 153.905 85.3584C152.453 85.8919 148.469 87.2516 145.215 87.8697C145.215 87.8697 144.889 87.1996 144.596 86.2887C144.596 86.2887 138.777 86.035 135.679 81.3443L138.4 62.4121L138.406 62.4186Z" fill="#F7A9A0"/>
<path d="M151.125 65.1836C152.792 67.1158 156.254 71.2601 157.908 75.6386C159.743 80.505 161.963 90.3679 158.357 91.6821C155.714 92.645 154.536 88.9561 154.536 88.9561C154.536 88.9561 154.595 93.224 152.017 93.5753C149.667 93.8941 148.925 90.986 148.925 90.986C148.925 90.986 148.515 93.5818 146.191 93.4517C143.399 93.2956 144.714 87.8827 142.019 85.2803C141.413 84.6948 151.132 65.1836 151.132 65.1836H151.125Z" fill="#F7A9A0"/>
<path d="M152.44 76.7252C153.709 78.7941 155.382 84.2395 154.601 88.8782C154.581 88.9823 154.497 89.0279 154.49 88.9303C154.269 83.641 153.039 78.7746 152.394 76.7447C152.388 76.7187 152.427 76.7057 152.44 76.7252Z" fill="#263238"/>
<path d="M147.578 78.7168C148.489 80.6165 149.967 86.3027 149.01 90.9804C148.99 91.0845 148.899 91.1236 148.899 91.0195C148.899 85.483 148.053 80.7987 147.532 78.7298C147.526 78.7038 147.565 78.6908 147.578 78.7168Z" fill="#263238"/>
<path d="M125.199 51.8335L109.519 59.8292C109.519 59.8292 107.553 43.7857 109.349 32.4394C110.749 23.5784 113.815 23.3246 116.75 30.312C119.686 37.2928 125.199 51.8335 125.199 51.8335Z" fill="#FFC727"/>
<path d="M116.75 30.3115C113.815 23.3307 110.749 23.5844 109.349 32.4389C107.553 43.7852 109.519 59.8287 109.519 59.8287L125.199 51.833C125.199 51.833 119.686 37.2923 116.75 30.3115Z" fill="#01D38C"/>
<path d="M109.317 57.6888C109.408 51.5342 108.913 45.0934 108.757 38.9453C108.171 45.178 108.659 51.4822 109.317 57.6888Z" fill="#263238"/>
<path d="M108.047 39.8042C107.917 40.702 108.178 41.6454 108.672 42.4001C108.529 41.4957 108.295 40.6825 108.047 39.8042Z" fill="#263238"/>
<path d="M126.996 52.5167L109.551 61.8787L109.662 61.0785L108.392 60.7532L108.477 60.1481L107.716 58.6453L125.473 49.9014L125.355 50.7406L126.403 51.2286L126.202 51.9767L126.996 52.5167Z" fill="#FFC727"/>
<path opacity="0.1" d="M126.996 52.5167L109.551 61.8787L109.662 61.0785L108.392 60.7532L108.477 60.1481L107.716 58.6453L125.473 49.9014L125.355 50.7406L126.403 51.2286L126.202 51.9767L126.996 52.5167Z" fill="black"/>
</svg>
